<?xml version="1.0" encoding="UTF-8"?>
<svg width="44px" height="43px" viewBox="0 0 44 43" version="1.1" xmlns="http://www.w3.org/2000/svg" xmlns:xlink="http://www.w3.org/1999/xlink">
    <!-- Generator: sketchtool 53 (72520) - https://sketchapp.com -->
    <title>D8E6A6C3-1A6D-4ED0-8BA9-DBB32F830966</title>
    <desc>Created with sketchtool.</desc>
    <g id="top-estate" stroke="none" stroke-width="1" fill="none" fill-rule="evenodd">
        <g id="покупателям" transform="translate(-394.000000, -1373.000000)" fill="#B9A787" fill-rule="nonzero">
            <g id="analytics" transform="translate(394.000000, 1373.000000)">
                <path d="M19.5801152,14 L16.2468079,14 C15.7868151,14 15.4134615,14.3840251 15.4134615,14.8571658 L15.4134615,25.1428342 C15.4134615,25.6159749 15.7868151,26 16.2468079,26 L19.5801152,26 C20.040108,26 20.4134615,25.6159749 20.4134615,25.1428342 L20.4134615,14.8571658 C20.4134615,14.3840251 20.040108,14 19.5801152,14 Z" id="Path"></path>
                <path d="M12.5801152,19 L9.24680789,19 C8.78681508,19 8.41346154,19.3920243 8.41346154,19.8750205 L8.41346154,25.1249795 C8.41346154,25.6079757 8.78681508,26 9.24680789,26 L12.5801152,26 C13.040108,26 13.4134615,25.6079757 13.4134615,25.1249795 L13.4134615,19.8750205 C13.4133834,19.3920243 13.040108,19 12.5801152,19 Z" id="Path"></path>
                <path d="M26.5801152,9 L23.2468079,9 C22.7868151,9 22.4134615,9.38082537 22.4134615,9.85002391 L22.4134615,25.1499761 C22.4134615,25.6191746 22.7868151,26 23.2468079,26 L26.5801152,26 C27.040108,26 27.4134615,25.6191746 27.4134615,25.1499761 L27.4134615,9.85002391 C27.4134615,9.38082537 27.040108,9 26.5801152,9 Z" id="Path"></path>
                <path d="M42.8880086,39.941625 L32.1937237,29.2471387 C34.7235573,26.1582773 36.2464292,22.2130273 36.2464292,17.9166387 C36.2464292,8.03738867 28.2091288,0 18.3299874,0 C8.45084589,0 0.413461538,8.03738867 0.413461538,17.9166387 C0.413461538,27.7958887 8.45076191,35.8332773 18.3299034,35.8332773 C22.6262448,35.8332773 26.5714515,34.3103887 29.6602789,31.7805273 L40.3546477,42.4750137 C40.7040189,42.8243887 41.1626525,43 41.6213701,43 C42.0800878,43 42.5387214,42.8243887 42.8880926,42.4750137 C43.5885985,41.7745 43.5885985,40.6421387 42.8880086,39.941625 Z M18.3299034,32.25 C10.4269765,32.25 3.99669952,25.8197363 3.99669952,17.9166387 C3.99669952,10.013541 10.4269765,3.58327734 18.3299034,3.58327734 C26.2328302,3.58327734 32.6631072,10.013625 32.6631072,17.9166387 C32.6631072,25.8196523 26.2329142,32.25 18.3299034,32.25 Z" id="Shape"></path>
            </g>
        </g>
    </g>
</svg>