<?xml version="1.0" encoding="UTF-8"?>
<svg width="50px" height="26px" viewBox="0 0 50 26" version="1.1" xmlns="http://www.w3.org/2000/svg" xmlns:xlink="http://www.w3.org/1999/xlink">
    <!-- Generator: sketchtool 53 (72520) - https://sketchapp.com -->
    <title>E3FAF79C-3635-4E94-B457-B74E8ACDEA71</title>
    <desc>Created with sketchtool.</desc>
    <g id="top-estate" stroke="none" stroke-width="1" fill="none" fill-rule="evenodd">
        <g id="застройщикам" transform="translate(-483.000000, -718.000000)" fill="#404852" fill-rule="nonzero">
            <g id="broken-copy-3" transform="translate(507.116601, 731.022192) scale(-1, 1) rotate(281.000000) translate(-507.116601, -731.022192) translate(493.616601, 706.022192)">
                <path d="M1.7268014,16.7793222 C1.7268014,17.5928884 1.55753128,18.5081503 1.04972093,19.1183249 C0.62654564,19.6268038 1.30362611,20.4403699 1.7268014,19.9318911 C2.40388186,19.1183249 2.82705715,17.9996714 2.91169221,16.7793222 C2.99632727,15.8640603 1.7268014,15.8640603 1.7268014,16.7793222 Z" id="Path"></path>
                <path d="M4.83909783,11.6206725 C4.43131969,12.6335323 4.02354155,13.6463921 4.10509718,14.7371641 C4.10509718,15.3604624 5.08376472,15.3604624 5.08376472,14.7371641 C5.16532034,13.7243043 5.49154286,12.9451814 5.98087663,12.0881463 C6.47021039,11.3869356 5.24687597,10.7636373 4.83909783,11.6206725 Z" id="Path"></path>
                <path d="M6.653524,5.08920171 C6.18441475,5.46384498 6.18441475,6.02580989 5.99677105,6.5877748 C5.90294919,7.14973971 5.71530549,7.80536544 5.52766179,8.36733035 C5.34001809,8.83563444 6.0905929,9.21027772 6.37205845,8.74197362 C6.653524,8.18000871 6.84116771,7.71170462 7.02881141,7.14973971 C7.21645511,6.5877748 7.49792066,6.02580989 7.49792066,5.46384498 C7.49792066,4.99554089 7.02881141,4.80821925 6.653524,5.08920171 Z" id="Path"></path>
                <path d="M11.4977471,1.59700347 C10.9416231,1.03669373 10.3854991,0.556428244 9.67048256,0.156207004 C9.43214371,-0.00388149215 9.11435858,0.0761627558 8.95546601,0.236251252 C8.16100318,1.19678223 7.6048792,2.4774902 7.68432548,3.67815392 C7.68432548,4.23846365 8.47878831,4.1584194 8.47878831,3.67815392 C8.5582346,2.79766719 8.95546601,2.07726896 9.51159,1.43691497 C9.90882141,1.67704772 10.3060528,1.99722471 10.7032842,2.39744595 C11.1799619,2.95775568 12.0538711,2.1573132 11.4977471,1.59700347 Z" id="Path"></path>
                <path d="M13.982035,4.49332966 C13.655838,4.21793028 13.655838,3.94253089 13.7373873,3.6671315 C13.9004857,3.11633273 13.1665426,2.84093334 12.9218949,3.29993232 C12.7587964,3.57533171 12.6772472,3.7589313 12.6772472,4.12613048 C12.6772472,4.40152987 12.7587964,4.76872905 12.9218949,4.95232864 C13.1665426,5.41132762 13.655838,5.9621264 14.0635842,6.05392619 C14.4713304,6.14572599 14.7975274,5.7785268 14.6342956,5.41132762 C14.5528796,4.95232864 14.3082319,4.76872905 13.982035,4.49332966 Z" id="Path"></path>
                <path d="M19.8135613,9.27676664 C19.353428,8.94609487 18.8014185,8.72564701 18.3411349,8.50519916 C17.7889751,8.28475131 17.2368152,7.95407953 16.6846553,7.62340775 C16.2243717,7.4029599 15.8564155,8.17452738 16.3165487,8.39497524 C16.776682,8.72564701 17.3288418,9.05631879 17.7889751,9.38699057 C18.3411349,9.71766235 18.8012682,10.268782 19.353428,10.4892298 C20.0896412,10.9301255 20.3657211,9.71766235 19.8135613,9.27676664 Z" id="Path"></path>
                <path d="M22.0987758,13.7649714 C21.5703056,13.3646997 21.0418355,13.0444823 20.4076713,12.6442107 C19.9848952,12.3239933 19.3507311,12.8043193 19.7735072,13.1245367 C20.3019773,13.5248083 20.7247534,14.0051344 21.2532236,14.405406 C21.675827,14.8056777 22.2044698,15.4461124 22.838634,15.5261668 C23.3671041,15.6062211 23.7898802,15.2860037 23.5784922,14.9657864 C23.4727981,14.4055369 22.6272459,14.0851887 22.0987758,13.7649714 Z" id="Path"></path>
                <path d="M25.3090459,19.4579765 C25.4754332,19.4579765 25.1425227,19.2293835 25.1425227,19.1531858 C25.059465,19.0007905 24.8929418,18.7721975 24.8098841,18.6198022 C24.6433608,18.3150115 24.3937799,18.0102208 24.1443349,17.7816278 C23.7283667,17.4006395 23.2293408,17.9340232 23.5619794,18.3150115 C23.8115603,18.5436045 23.894754,18.9245928 24.0611413,19.2293835 C24.1443349,19.4579765 24.3108581,19.6865695 24.3939158,19.9151625 C23.7283667,20.2961508 23.0628176,20.2199532 22.3140748,20.3723485 C21.6485256,20.5247438 21.6485256,21.4391158 22.3140748,21.5915111 C23.5619794,21.8201041 24.8098841,21.3629181 25.6416846,20.6009415 C25.9745951,20.1437555 25.8082078,19.6103718 25.3090459,19.4579765 Z" id="Path"></path>
                <path d="M4.19738577,22.4426384 C3.49244092,22.6051844 2.87561419,22.9302763 2.08255124,22.9302763 C1.3776064,22.9302763 1.02513398,22.1988195 1.02513398,21.6299087 C0.937015874,21.0609979 0.143952927,21.3048168 0.0558348218,21.7111817 C-0.0322832834,22.6864574 0.232071032,23.743006 1.3776064,24.1493709 C2.43502366,24.4744628 3.84491334,24.2307767 4.7260944,23.6617331 C5.34292113,23.2553682 4.99044871,22.2800925 4.19738577,22.4426384 Z" id="Path"></path>
                <path d="M9.89232302,22.5977036 C9.35048276,22.3510115 8.62802909,22.7210496 8.08618883,22.2276654 C7.63465529,21.7342812 7.00250832,22.5977036 7.45404187,23.0910878 C7.99588212,23.8311641 9.16986934,24.3245484 9.89232302,23.9545102 C10.4341633,23.8311641 10.4341633,22.8443957 9.89232302,22.5977036 Z" id="Path"></path>
                <path d="M11.8567963,24.2185237 C11.7317963,23.6441648 10.6067963,23.6441648 10.6067963,24.2185237 C10.4817963,25.2032732 10.2317963,26.1877545 10.2317963,27.1723699 C10.2317963,27.9928827 12.2317963,27.9928827 12.2317963,27.1723699 C12.2317963,26.1878886 11.9817963,25.2032732 11.8567963,24.2185237 Z" id="Path"></path>
                <path d="M10.7114607,32.2659369 C10.5806339,31.5736129 10.4498071,30.9583394 10.3189802,30.2658897 C10.3189802,29.9583159 9.40319234,29.9583159 9.40319234,30.2658897 C9.2723655,30.8812888 9.14153866,31.4198888 9.01071182,32.0351622 C8.87988498,32.6505613 8.6182313,33.2659604 9.14153866,33.8044347 C9.40319234,34.1121342 10.1881534,34.1121342 10.4498071,33.8044347 C10.9731144,33.3428853 10.8422876,32.8044111 10.7114607,32.2659369 Z" id="Path"></path>
                <path d="M11.6106115,38.4651626 C11.6106115,38.1229136 11.6106115,37.7806646 11.4827757,37.5239779 C11.3549398,37.1817289 11.227104,36.8394799 11.0992681,36.497231 C11.0992681,36.2405442 10.4600888,36.2405442 10.3322529,36.497231 C10.3322529,36.7539177 10.0765812,37.0961667 9.9487453,37.3528534 C9.82090944,37.6949626 9.82090944,37.9517891 9.82090944,38.2938983 C9.69307357,38.892834 9.43740184,39.7484565 10.0765812,40.1762677 C10.3322529,40.347532 10.9714322,40.347532 11.227104,40.1762677 C11.8662833,39.6628942 11.6106115,38.9783962 11.6106115,38.4651626 Z" id="Path"></path>
                <path d="M10.7379496,43.1021496 C10.7379496,42.6083224 9.68481664,42.6083224 9.55317502,43.1021496 C9.4215334,44.419022 8.89496691,45.982808 9.28989178,47.2996804 C9.4215334,47.8758121 10.8695912,47.8758121 11.0012329,47.2996804 C11.3961577,45.982808 10.8695912,44.419022 10.7379496,43.1021496 Z" id="Path"></path>
                <path d="M15.8415176,47.7334463 C15.748513,47.2163788 15.2834899,47.113168 14.9114714,47.2163788 C14.7253101,47.2163788 14.5394529,47.3197585 14.4462963,47.526518 C14.3532916,47.526518 14.260287,47.6298977 14.260287,47.6298977 C14.0742777,47.7332774 13.8882685,47.7332774 13.7022592,47.7332774 C13.6092546,47.7332774 13.4232454,47.8364882 13.4232454,47.8364882 C12.6792083,47.9398679 12.6792083,49.1804245 13.4232454,49.1804245 C14.0742777,49.1804245 14.8183148,49.0772137 15.3763425,48.7670746 C15.748513,48.4571044 15.9345223,48.1467963 15.8415176,47.7334463 Z" id="Path"></path>
                <path d="M20.7736115,45.4694794 C20.2404027,45.3538513 19.8593258,45.5851074 19.4021829,45.7007355 C18.7164686,45.9321805 18.0307544,46.0476196 17.4212305,46.0476196 C16.9640877,46.0476196 16.9640877,47.088461 17.4212305,47.2039001 C18.4878972,47.3195282 20.3926591,48.0132965 21.0783734,46.2788757 C21.0783734,46.0476196 21.0021829,45.4694794 20.7736115,45.4694794 Z" id="Path"></path>
                <path d="M24.9215677,44.2270691 C24.1218909,44.6343358 23.1221317,44.7970562 22.3226183,45.2043229 C21.6229011,45.5298968 22.2226587,46.344164 22.9223758,46.0998839 C23.7220525,45.774177 24.7216485,45.6927502 25.5213252,45.3670433 C26.5209211,45.0413364 25.821204,43.8199355 24.9215677,44.2270691 Z" id="Path"></path>
                <path d="M26.5052059,41.7021178 C26.0196729,41.3859557 25.6150621,40.8590189 25.2913734,40.332082 C24.9676848,39.804973 24.7249183,39.1728209 24.3201752,38.7510993 C23.9966188,38.5403245 23.6727979,38.8564866 23.6727979,39.2782083 C23.6727979,40.1213073 24.1583309,40.7536315 24.5628095,41.2805684 C24.9675526,41.8075052 25.5340077,42.3344421 26.1004629,42.6506042 C26.5052059,42.8613789 26.9098168,42.01828 26.5052059,41.7021178 Z" id="Path"></path>
                <path d="M22.8240049,36.0464732 C22.6381518,35.7677454 22.5454528,35.5819268 22.3595996,35.3031989 C22.1738982,34.9315617 22.1738982,34.6528339 22.1738982,34.1882874 C22.0810475,33.3519519 20.8739884,33.3519519 20.8739884,34.1882874 C20.8739884,34.6528339 21.0598415,35.2101378 21.3383937,35.5819268 C21.6169458,35.9537158 21.9883486,36.2322918 22.3595996,36.5110197 C22.6383035,36.6968383 23.0097063,36.3252011 22.8240049,36.0464732 Z" id="Path"></path>
                <path d="M21.342002,31.2009222 C21.1282778,30.7485333 20.8076915,30.2961443 20.4871051,29.8437554 C20.1665188,29.3912186 20.0598313,28.8484997 19.739245,28.305633 C19.5253461,27.7627663 18.5637617,27.7627663 18.456725,28.305633 C18.1361387,29.572322 19.6322082,30.6580555 20.3804176,31.653459 C20.8076915,32.1963257 21.6625883,31.7437889 21.342002,31.2009222 Z" id="Path"></path>
                <path d="M18.6592161,26.4052171 C18.0395873,25.7132944 17.7297729,24.9348812 17.0068727,24.3294488 C16.2839725,23.7240164 15.3545293,24.5889199 15.9741581,25.1943523 C16.5937869,25.7997847 17.0068727,26.4917075 17.7297729,27.0106496 C18.2461302,27.356611 19.0723019,26.8378102 18.6592161,26.4052171 Z" id="Path"></path>
                <path d="M19.754449,20.8194913 C19.3469573,20.2569913 18.8372181,20.3976163 18.3278119,20.3976163 C17.7161581,20.3976163 17.206752,20.5382413 16.5952647,20.5382413 C15.7799484,20.6788663 15.7799484,22.0851163 16.5952647,22.2257413 C17.1048374,22.2257413 17.6144101,22.3663663 18.1239828,22.3663663 C18.7354701,22.3663663 19.3471238,22.5069913 19.7546155,21.9444913 C20.0601926,21.6632413 20.0601926,21.1007413 19.754449,20.8194913 Z" id="Path"></path>
            </g>
        </g>
    </g>
</svg>