<svg xmlns="http://www.w3.org/2000/svg" width="104" height="105" viewBox="0 0 104 105">
    <defs>
        <path id="a" d="M.011 0H150v150H.011z"/>
    </defs>
    <g fill="none" fill-rule="evenodd">
        <path fill="#FFFFFE" d="M.359 53.46h.735v-.735H.359zM1.64 53.46h.735v-.735H1.64zM4.202 53.46h.735v-.735h-.735zM5.483 53.46h.735v-.735h-.735zM2.92 54.777h.736v-.735H2.92zM5.483 54.777h.735v-.735h-.735zM.359 56.094h.735v-.735H.359zM2.92 56.094h.736v-.735H2.92zM6.764 56.094H7.5v-.735h-.735zM.359 57.41h.735v-.735H.359zM1.64 57.41h.735v-.735H1.64zM4.202 57.41h.735v-.735h-.735zM6.764 57.41H7.5v-.735h-.735zM1.64 58.727h.735v-.735H1.64zM2.92 58.727h.736v-.735H2.92zM6.764 58.727H7.5v-.735h-.735zM.359 60.044h.735v-.735H.359zM2.92 60.044h.736v-.735H2.92zM.359 61.36h.735v-.734H.359zM1.64 61.36h.735v-.734H1.64zM4.202 61.36h.735v-.734h-.735zM5.483 61.36h.735v-.734h-.735zM.359 62.677h.735v-.735H.359zM2.92 62.677h.736v-.735H2.92zM6.764 62.677H7.5v-.735h-.735zM1.64 63.994h.735v-.735H1.64zM4.202 63.994h.735v-.735h-.735zM1.64 65.31h.735v-.734H1.64zM6.764 65.31H7.5v-.734h-.735zM.359 66.628h.735v-.736H.359zM2.92 66.628h.736v-.736H2.92zM4.202 66.628h.735v-.736h-.735zM6.764 66.628H7.5v-.736h-.735zM.359 67.944h.735v-.735H.359zM1.64 67.944h.735v-.735H1.64zM.359 69.261h.735v-.735H.359zM2.92 69.261h.736v-.735H2.92zM5.483 69.261h.735v-.735h-.735zM6.764 69.261H7.5v-.735h-.735zM1.64 70.578h.735v-.735H1.64zM5.483 70.578h.735v-.735h-.735zM1.64 71.894h.735v-.734H1.64zM4.202 71.894h.735v-.734h-.735zM4.202 73.211h.735v-.735h-.735zM6.764 73.211H7.5v-.735h-.735zM.359 74.528h.735v-.735H.359zM1.64 74.528h.735v-.735H1.64zM4.202 74.528h.735v-.735h-.735zM6.764 75.845H7.5v-.736h-.735zM.359 77.161h.735v-.735H.359zM2.92 77.161h.736v-.735H2.92zM6.764 77.161H7.5v-.735h-.735zM.359 78.478h.735v-.735H.359zM2.92 78.478h.736v-.735H2.92zM5.483 78.478h.735v-.735h-.735zM1.64 79.794h.735v-.734H1.64zM4.202 79.794h.735v-.734h-.735zM6.764 79.794H7.5v-.734h-.735zM2.92 81.112h.736v-.736H2.92zM8.108 53.46h.735v-.735h-.735zM9.39 53.46h.734v-.735H9.39zM11.952 53.46h.735v-.735h-.735zM13.233 53.46h.735v-.735h-.735zM14.514 53.46h.735v-.735h-.735zM8.108 54.777h.735v-.735h-.735zM10.67 54.777h.735v-.735h-.734zM13.233 54.777h.735v-.735h-.735zM8.108 56.094h.735v-.735h-.735zM9.39 56.094h.734v-.735H9.39zM14.514 56.094h.735v-.735h-.735zM11.952 57.41h.735v-.735h-.735zM13.233 57.41h.735v-.735h-.735zM14.514 57.41h.735v-.735h-.735zM9.39 58.727h.734v-.735H9.39zM10.67 58.727h.735v-.735h-.734zM14.514 58.727h.735v-.735h-.735zM8.108 60.044h.735v-.735h-.735zM10.67 60.044h.735v-.735h-.734zM11.952 60.044h.735v-.735h-.735zM13.233 60.044h.735v-.735h-.735zM8.108 61.36h.735v-.734h-.735zM13.233 61.36h.735v-.734h-.735zM14.514 61.36h.735v-.734h-.735zM8.108 62.677h.735v-.735h-.735zM10.67 62.677h.735v-.735h-.734zM14.514 62.677h.735v-.735h-.735zM9.39 63.994h.734v-.735H9.39zM11.952 63.994h.735v-.735h-.735zM13.233 63.994h.735v-.735h-.735zM14.514 63.994h.735v-.735h-.735zM9.39 65.31h.734v-.734H9.39zM10.67 65.31h.735v-.734h-.734zM14.514 65.31h.735v-.734h-.735zM8.108 67.944h.735v-.735h-.735zM10.67 67.944h.735v-.735h-.734zM11.952 67.944h.735v-.735h-.735zM10.67 69.261h.735v-.735h-.734zM14.514 69.261h.735v-.735h-.735zM9.39 70.578h.734v-.735H9.39zM11.952 70.578h.735v-.735h-.735zM13.233 70.578h.735v-.735h-.735zM8.108 71.894h.735v-.734h-.735zM9.39 71.894h.734v-.734H9.39zM10.67 71.894h.735v-.734h-.734zM14.514 71.894h.735v-.734h-.735zM10.67 73.211h.735v-.735h-.734zM11.952 73.211h.735v-.735h-.735zM13.233 73.211h.735v-.735h-.735zM9.39 74.528h.734v-.735H9.39zM11.952 74.528h.735v-.735h-.735zM10.67 75.845h.735v-.736h-.734zM13.233 75.845h.735v-.736h-.735zM8.108 77.161h.735v-.735h-.735zM10.67 77.161h.735v-.735h-.734zM14.514 77.161h.735v-.735h-.735zM8.108 78.478h.735v-.735h-.735zM10.67 78.478h.735v-.735h-.734zM13.233 78.478h.735v-.735h-.735zM9.39 79.794h.734v-.734H9.39zM11.952 79.794h.735v-.734h-.735zM14.514 79.794h.735v-.734h-.735zM8.108 81.112h.735v-.736h-.735zM10.67 81.112h.735v-.736h-.734zM14.514 81.112h.735v-.736h-.735zM6.764 82.386H7.5v-.736h-.735zM.359 83.6h.735v-.736H.359zM5.483 83.6h.735v-.736h-.735zM14.514 83.6h.735v-.736h-.735zM6.764 84.771H7.5v-.735h-.735zM4.202 84.771h.735v-.735h-.735zM13.233 84.771h.735v-.735h-.735zM.359 85.94h.735v-.736H.359zM9.39 85.94h.734v-.736H9.39zM11.952 85.94h.735v-.736h-.735zM14.514 85.94h.735v-.736h-.735zM4.202 87.107h.735v-.734h-.735zM1.64 87.107h.735v-.734H1.64zM10.67 87.107h.735v-.734h-.734zM9.39 88.275h.734v-.735H9.39zM14.514 88.275h.735v-.735h-.735zM4.202 89.504h.735v-.735h-.735zM8.108 89.504h.735v-.735h-.735zM14.514 89.504h.735v-.735h-.735zM9.39 90.657h.734v-.735H9.39zM2.92 90.657h.736v-.735H2.92zM2.92 94.116h.736v-.735H2.92zM2.92 97.44h.736v-.736H2.92zM1.64 99.654h.735v-.735H1.64zM14.514 99.654h.735v-.735h-.735zM5.483 97.44h.735v-.736h-.735zM5.483 101.171h.735v-.735h-.735zM10.67 101.171h.735v-.735h-.735zM9.39 104.367h.735v-.735H9.39zM6.764 90.657H7.5v-.735h-.735zM.359 91.81h.735v-.735H.359zM14.514 91.81h.735v-.735h-.735zM9.39 92.963h.734v-.735H9.39zM9.39 99.654h.734v-.735H9.39zM4.202 92.963h.735v-.735h-.735zM.359 94.116h.735v-.735H.359zM.359 95.778h.735v-.735H.359zM.359 97.44h.735v-.736H.359zM6.764 94.116H7.5v-.735h-.735zM14.514 94.116h.735v-.735h-.735zM15.692 52.725v.735l3.61 7.452v-.368l-3.61-7.819M18.483 59.692v.45l-1.152-2.217v-.567l1.152 2.334M19.301 61.348v.366l-.463-.89v-.415l.463.939M15.692 55.359v.735l3.61 6.425v-.367l-3.61-6.793M15.692 56.675l.398.704v.694l-.398-.662v-.736M18.17 61.054v.483l-.568-.946v-.54l.568 1.003M18.522 61.678l.228.403v.422l-.228-.378v-.447M19.301 63.054v.367l-.196-.328v-.386l.196.347M15.692 57.99l.823 1.358V60l-.823-1.274v-.736M19.301 63.942v.37l-2.432-3.765v-.614l2.432 4.01M15.692 59.387l1.381 2.073v.592l-1.38-1.933v-.732M19.301 64.802v.366l-.864-1.209v-.453l.864 1.296M15.692 60.624l.398.556v.697l-.398-.517v-.736M17.77 63.53v.524l-1.326-1.718v-.658l1.326 1.852M18.347 64.338v.466l-.223-.289v-.488l.223.311M19.301 65.673v.369l-.602-.782v-.43l.602.843M15.692 61.943l1.138 1.444v.619l-1.138-1.328v-.735M17.442 64.72l-.26-.304v-.583l.243.308v.552l.017.026M18.522 65.532v.447l-.742-.867v-.521l.742.941M19.301 66.52v.369l-.425-.495v-.413l.425.54M19.301 67.39v.365l-.425-.441v-.41l.425.485M15.692 64.576l1.204 1.245v.612l-1.204-1.122v-.735M17.248 66.185l.344.355v.543l-.344-.323v-.575M19.301 68.306v.37l-1.354-1.263v-.48l-.03-.059 1.384 1.432M15.692 65.892l.556.504v.677l-.556-.446v-.735M19.301 69.166v.366l-.342-.277v-.4l.342.31M15.692 67.21l1.381 1.074v.595l-1.38-.934v-.736M17.816 68.865v.52l-.39-.266v-.531l-.025-.046.415.323M19.301 70.022v.367l-1.13-.767v-.48l1.13.88M15.692 68.527l.45.292v.687l-.45-.246v-.733M16.896 69.306v.61l-.4-.219v-.65l.4.26M18.428 70.294v.457l-1.18-.644v-.575l1.18.762M15.692 69.843l.733.379v.66l-.733-.303v-.736M19.301 71.707v.366l-1.407-.582v-.512l1.407.728M15.692 71.16l1.381.532v.593l-1.38-.391v-.734M17.425 71.828l1.003.386v.454l-1.003-.284v-.556M17.425 72.915v.56l-.823-.125v-.643l.823.209M19.301 73.392v.366l-.733-.112v-.442l.214.054.52.134M15.692 73.791l1.291.183v.602l-1.29-.049v-.736M17.78 74.085v.523l-.442-.018v-.568l.441.063M19.301 74.3v.366l-1.167-.044v-.488l1.167.165M15.692 75.11l.556.007v.68l-.556.048v-.735M18.656 75.149v.434l-.877.078v-.522l.877.01M19.301 75.158v.367l-.294.026v-.398l.294.005M15.692 76.425l1.381-.162v.594l-1.38.304v-.736M17.78 76.18v.522l-.355.078v-.558l.354-.042M17.425 77.306v.559l-.682.215v-.628l.682-.146M18.605 77.056v.437l-.826.26v-.522l.35-.073.005-.002.47-.1M19.301 76.909v.366l-.342.107v-.4l.342-.073M18.085 78.226v.493l-1.52.682v-.646l1.52-.529M19.301 77.804v.369l-.861.386v-.456l.861-.299M15.692 80.328l1.381-.595v.595l-1.38.733v-.733M17.425 79.583l1.12-.48v.446l-1.12.592v-.558M17.425 80.731v.558l-.804.51v-.64l.804-.428M19.301 79.733v.37l-.63.4v-.435l.63-.335M15.692 82.84l.93-.541v.64l-.93.637v-.736M19.301 80.738v.37l-1.167.798v-.488l1.167-.68M16.566 83.462l1.927-1.27v.45l-1.927 1.465v-.645M19.301 81.658v.366l-.454.346v-.413l.454-.299M15.692 85.204l1.36-.963v.594l-1.36 1.105v-.736M19.301 82.644v.366l-1.107.898v-.478l1.107-.786M18.134 84.471v.486l-1.335 1.177v-.624l1.335-1.039M19.301 83.564v.366l-.813.716v-.449l.813-.633M15.692 87.541l.398-.332v.692l-.398.373v-.733M16.444 86.913l1.284-1.075v.527l-1.284 1.203v-.655M19.301 84.522v.367l-1.218 1.143v-.49l1.218-1.02M15.692 88.77l.874-.79v.649l-.874.876v-.735M18.316 86.4v.472l-.687.689v-.539l.687-.621M19.301 85.513v.368l-.63.634v-.432l.63-.57M15.692 89.923l.626-.61v.673l-.626.672v-.735M18.017 87.66v.498l-1.345 1.447v-.636l1.345-1.308M19.301 86.413v.367l-.93 1v-.464l.93-.903M19.301 87.4v.367l-.276.311v-.396l.276-.281M16.92 90.9v.61l-.531.631v-.665l.531-.575M19.301 88.328v.366l-2.026 2.399v-.576l2.026-2.189M19.301 89.308v.367l-1.228 1.5v-.49l1.228-1.377"/>
        <path fill="#030617" d="M18.129 77.158l.005-.002v.005l-.005-.003"/>
        <path fill="#FFFFFE" d="M40.341 1.847h1.332V.516H40.34zM42.727 1.847h1.331V.516h-1.331zM45.112 1.847h1.332V.516h-1.332zM47.498 1.847h1.332V.516h-1.332zM49.884 1.847h1.331V.516h-1.331zM40.341 4.233h1.332V2.9H40.34zM42.727 4.233h1.331V2.9h-1.331zM45.112 4.233h1.332V2.9h-1.332zM47.498 4.233h1.332V2.9h-1.332zM40.341 6.619h1.332V5.287H40.34zM45.112 6.619h1.332V5.287h-1.332zM47.498 6.619h1.332V5.287h-1.332zM49.884 6.619h1.331V5.287h-1.331zM40.341 9.004h1.332V7.673H40.34zM42.727 9.004h1.331V7.673h-1.331zM45.112 9.004h1.332V7.673h-1.332zM47.498 9.004h1.332V7.673h-1.332zM49.884 9.004h1.331V7.673h-1.331zM40.341 11.39h1.332v-1.332H40.34zM42.727 11.39h1.331v-1.332h-1.331zM45.112 11.39h1.332v-1.332h-1.332zM47.498 11.39h1.332v-1.332h-1.332zM49.884 11.39h1.331v-1.332h-1.331zM40.341 13.775h1.332v-1.331H40.34zM42.727 13.775h1.331v-1.331h-1.331zM45.112 13.775h1.332v-1.331h-1.332zM49.884 13.775h1.331v-1.331h-1.331zM40.341 16.16h1.332v-1.33H40.34zM45.112 16.16h1.332v-1.33h-1.332zM47.498 16.16h1.332v-1.33h-1.332zM49.884 16.16h1.331v-1.33h-1.331zM40.341 18.547h1.332v-1.332H40.34zM42.727 18.547h1.331v-1.332h-1.331zM45.112 18.547h1.332v-1.332h-1.332zM47.498 18.547h1.332v-1.332h-1.332zM49.884 18.547h1.331v-1.332h-1.331zM40.341 20.932h1.332v-1.331H40.34zM42.727 20.932h1.331v-1.331h-1.331zM45.112 20.932h1.332v-1.331h-1.332zM47.498 20.932h1.332v-1.331h-1.332zM49.884 20.932h1.331v-1.331h-1.331zM40.341 23.318h1.332v-1.332H40.34zM42.727 23.318h1.331v-1.332h-1.331zM47.498 23.318h1.332v-1.332h-1.332zM49.884 23.318h1.331v-1.332h-1.331zM40.341 25.703h1.332v-1.331H40.34zM42.727 25.703h1.331v-1.331h-1.331zM45.112 25.703h1.332v-1.331h-1.332zM47.498 25.703h1.332v-1.331h-1.332zM49.884 25.703h1.331v-1.331h-1.331zM40.341 28.089h1.332v-1.331H40.34zM42.727 28.089h1.331v-1.331h-1.331zM45.112 28.089h1.332v-1.331h-1.332zM47.498 28.089h1.332v-1.331h-1.332zM40.341 30.474h1.332v-1.33H40.34zM42.727 30.474h1.331v-1.33h-1.331zM47.498 30.474h1.332v-1.33h-1.332zM49.884 30.474h1.331v-1.33h-1.331zM40.341 32.86h1.332V31.53H40.34zM45.112 32.86h1.332V31.53h-1.332zM47.498 32.86h1.332V31.53h-1.332zM49.884 32.86h1.331V31.53h-1.331zM52.242 1.847h1.331V.516h-1.331zM54.627 1.847h1.332V.516h-1.332zM57.013 1.847h1.332V.516h-1.332zM59.399 1.847h1.331V.516H59.4zM61.784 1.847h1.332V.516h-1.332zM52.242 4.233h1.331V2.9h-1.331zM54.627 4.233h1.332V2.9h-1.332zM57.013 4.233h1.332V2.9h-1.332zM59.399 4.233h1.331V2.9H59.4zM61.784 4.233h1.332V2.9h-1.332zM54.627 6.619h1.332V5.287h-1.332zM57.013 6.619h1.332V5.287h-1.332zM61.784 6.619h1.332V5.287h-1.332zM52.242 9.004h1.331V7.673h-1.331zM54.627 9.004h1.332V7.673h-1.332zM57.013 9.004h1.332V7.673h-1.332zM59.399 9.004h1.331V7.673H59.4zM61.784 9.004h1.332V7.673h-1.332zM52.242 11.39h1.331v-1.332h-1.331zM57.013 11.39h1.332v-1.332h-1.332zM59.399 11.39h1.331v-1.332H59.4zM52.242 13.775h1.331v-1.331h-1.331zM54.627 13.775h1.332v-1.331h-1.332zM57.013 13.775h1.332v-1.331h-1.332zM59.399 13.775h1.331v-1.331H59.4zM61.784 13.775h1.332v-1.331h-1.332zM52.242 16.16h1.331v-1.33h-1.331zM54.627 16.16h1.332v-1.33h-1.332zM57.013 16.16h1.332v-1.33h-1.332zM61.784 16.16h1.332v-1.33h-1.332zM52.242 18.547h1.331v-1.332h-1.331zM54.627 18.547h1.332v-1.332h-1.332zM57.013 18.547h1.332v-1.332h-1.332zM59.399 18.547h1.331v-1.332H59.4zM61.784 18.547h1.332v-1.332h-1.332zM54.627 20.932h1.332v-1.331h-1.332zM57.013 20.932h1.332v-1.331h-1.332zM59.399 20.932h1.331v-1.331H59.4zM61.784 20.932h1.332v-1.331h-1.332zM52.242 23.318h1.331v-1.332h-1.331zM54.627 23.318h1.332v-1.332h-1.332zM57.013 23.318h1.332v-1.332h-1.332zM59.399 23.318h1.331v-1.332H59.4zM61.784 23.318h1.332v-1.332h-1.332zM52.242 25.703h1.331v-1.331h-1.331zM54.627 25.703h1.332v-1.331h-1.332zM59.399 25.703h1.331v-1.331H59.4zM61.784 25.703h1.332v-1.331h-1.332zM52.242 28.089h1.331v-1.331h-1.331zM57.013 28.089h1.332v-1.331h-1.332zM59.399 28.089h1.331v-1.331H59.4zM61.784 28.089h1.332v-1.331h-1.332zM52.242 30.474h1.331v-1.33h-1.331zM54.627 30.474h1.332v-1.33h-1.332zM59.399 30.474h1.331v-1.33H59.4zM61.784 30.474h1.332v-1.33h-1.332zM52.242 32.86h1.331V31.53h-1.331zM54.627 32.86h1.332V31.53h-1.332zM57.013 32.86h1.332V31.53h-1.332zM61.784 32.86h1.332V31.53h-1.332zM40.341 35.135h1.332v-1.332H40.34zM42.727 35.135h1.331v-1.332h-1.331zM45.112 35.135h1.332v-1.332h-1.332zM49.884 35.135h1.331v-1.332h-1.331zM52.242 35.135h1.331v-1.332h-1.331zM57.013 35.135h1.332v-1.332h-1.332zM59.399 35.135h1.331v-1.332H59.4zM61.784 35.135h1.332v-1.332h-1.332zM42.727 37.41h1.331v-1.332h-1.331zM45.112 37.41h1.332v-1.332h-1.332zM47.498 37.41h1.332v-1.332h-1.332zM52.242 37.41h1.331v-1.332h-1.331zM54.627 37.41h1.332v-1.332h-1.332zM57.013 37.41h1.332v-1.332h-1.332zM59.399 37.41h1.331v-1.332H59.4zM61.784 37.41h1.332v-1.332h-1.332zM40.341 39.684h1.332v-1.331H40.34zM42.727 39.684h1.331v-1.331h-1.331zM47.498 39.684h1.332v-1.331h-1.332zM49.884 39.684h1.331v-1.331h-1.331zM52.242 39.684h1.331v-1.331h-1.331zM54.627 39.684h1.332v-1.331h-1.332zM59.399 39.684h1.331v-1.331H59.4zM61.784 39.684h1.332v-1.331h-1.332zM40.341 41.96h1.332v-1.332H40.34zM45.112 41.96h1.332v-1.332h-1.332zM47.498 41.96h1.332v-1.332h-1.332zM49.884 41.96h1.331v-1.332h-1.331zM54.627 41.96h1.332v-1.332h-1.332zM57.013 41.96h1.332v-1.332h-1.332zM42.727 44.234h1.331v-1.332h-1.331zM45.112 44.234h1.332v-1.332h-1.332zM49.884 44.234h1.331v-1.332h-1.331zM52.242 44.234h1.331v-1.332h-1.331zM57.013 44.234h1.332v-1.332h-1.332zM59.399 44.234h1.331v-1.332H59.4zM61.784 44.234h1.332v-1.332h-1.332zM40.341 46.509h1.332v-1.332H40.34zM42.727 46.509h1.331v-1.332h-1.331zM47.498 46.509h1.332v-1.332h-1.332zM52.242 46.509h1.331v-1.332h-1.331zM54.627 46.509h1.332v-1.332h-1.332zM59.399 46.509h1.331v-1.332H59.4zM40.341 48.783h1.332v-1.331H40.34zM45.112 48.783h1.332v-1.331h-1.332zM49.884 48.783h1.331v-1.331h-1.331zM52.242 48.783h1.331v-1.331h-1.331zM57.013 48.783h1.332v-1.331h-1.332zM61.784 48.783h1.332v-1.331h-1.332zM42.727 51.058h1.331v-1.331h-1.331zM47.498 51.058h1.332v-1.331h-1.332zM49.884 51.058h1.331v-1.331h-1.331zM54.627 51.058h1.332v-1.331h-1.332zM59.399 51.058h1.331v-1.331H59.4zM61.784 51.058h1.332v-1.331h-1.332zM40.341 53.333h1.332v-1.332H40.34zM42.727 53.333h1.331v-1.332h-1.331zM47.498 53.333h1.332v-1.332h-1.332zM52.242 53.333h1.331v-1.332h-1.331zM54.627 53.333h1.332v-1.332h-1.332zM59.399 53.333h1.331v-1.332H59.4zM45.112 55.608h1.332v-1.332h-1.332zM49.884 55.608h1.331v-1.332h-1.331zM52.242 55.608h1.331v-1.332h-1.331zM57.013 55.608h1.332v-1.332h-1.332zM61.784 55.608h1.332v-1.332h-1.332zM45.112 57.977h1.332v-1.331h-1.332zM49.884 57.977h1.331v-1.331h-1.331zM57.013 57.977h1.332v-1.331h-1.332zM47.498 60.222h1.332V58.89h-1.332zM42.727 60.222h1.331V58.89h-1.331zM42.727 65.844h1.331v-1.33h-1.331zM40.341 62.922h1.332v-1.331H40.34zM61.784 62.922h1.332v-1.331h-1.332zM52.27 60.222H53.6V58.89H52.27zM49.884 62.922h1.331v-1.331h-1.331zM54.655 62.922h1.332v-1.331h-1.332zM52.27 67.74H53.6v-1.33H52.27zM54.627 70.658h1.332v-1.332h-1.332zM59.399 60.222h1.331V58.89H59.4z"/>
        <path fill="#FFFFFE" d="M61.784 1.847h1.332V.516h-1.332z"/>
        <path fill="#DDDEDA" d="M69.653 13.573L63.894 1.688V.516l5.76 12.471v.586M65.943 7.723l-2.049-3.935V2.616l2.049 4.145v.962M68.346 12.34l-1.838-3.53v-.905l1.838 3.718v.716M69.654 14.853l-.743-1.427v-.66l.743 1.503v.584M69.653 16.137L63.894 5.888V4.716l5.76 10.835v.586M64.532 9.05l-.638-1.063v-1.17l.638 1.126V9.05M66.377 12.12l-1.281-2.133V8.94l1.281 2.264v.918M67.846 14.567l-.903-1.505v-.861l.903 1.594v.772M68.773 16.11l-.362-.601v-.714l.362.639v.677M69.654 17.577l-.316-.524v-.622l.316.558v.588M65.21 12.123l-1.316-2.034V8.917l1.316 2.167v1.039M69.654 18.994l-3.881-6v-.98l3.88 6.395v.585M66.095 15.388l-2.2-3.078v-1.17l2.2 3.3v.948M67.71 17.645l-1.049-1.466v-.89l1.048 1.572v.784M69.654 20.363l-1.382-1.932v-.726l1.382 2.07v.588M64.532 15.116l-.638-.828v-1.172l.638.893v1.107M67.21 18.586l-2.114-2.74v-1.05l2.114 2.956v.834M68.13 19.778l-.357-.463v-.777l.356.5v.74M69.654 21.754l-.961-1.245v-.685l.96 1.345v.585M65.71 18.506l-1.816-2.116v-1.172l1.816 2.3v.988M66.702 19.664l-.43-.5v-.932l.39.493v.876l.04.063M68.411 21.657l-1.187-1.384v-.835l1.187 1.505v.714M67.218 21.819l-1.187-1.383V19.6l1.187 1.504v.714M69.654 23.106l-.68-.791v-.658l.68.862v.587M64.612 19.237l-.718-.747v-1.173l.718.823v1.097M69.654 24.49l-.68-.71v-.652l.68.776v.585M66.925 23.414l-.548-.512v-.92l.549.568v.864M69.654 25.955l-2.163-2.014v-.765l-.049-.094 2.212 2.286v.587M64.782 23.402l-.888-.714v-1.17l.888.806v1.078M69.654 27.322l-.549-.442v-.64l.549.497v.585M66.095 26.28l-2.2-1.49v-1.172l2.2 1.714v.949M67.282 27.084l-.62-.42v-.85l-.037-.07.657.512v.828M69.654 28.69l-1.808-1.225v-.77l1.808 1.408v.588M64.612 27.28l-.718-.39v-1.173l.718.464v1.1M65.814 27.936l-.638-.35v-1.04l.638.412v.978M68.258 29.266l-1.88-1.024v-.92l1.88 1.216v.728M69.654 30.026l-.833-.454V28.9l.833.538v.588M65.064 29.475l-1.17-.486v-1.172l1.17.604v1.054M66.843 30.21l-1.216-.502v-.995l1.216.626v.871M69.654 31.375l-2.248-.932v-.813l2.248 1.16v.585M66.095 31.713l-2.2-.622V29.92l2.2.847v.947M68.258 32.324l-1.597-.451v-.89l1.597.613v.728M69.654 32.72l-.833-.236v-.672l.833.32v.588M64.782 33.324l-.888-.133v-1.173l.888.226v1.08M66.661 33.608l-1.315-.199v-1.024l1.315.335v.888M67.918 33.8l-.694-.104v-.835l.694.177v.762M69.654 34.062l-1.17-.177v-.704l1.17.296v.585M67.224 35.416l-.706-.026v-.906l.706.1v.832M69.654 35.509l-1.864-.07v-.775l1.864.26v.585M63.894 37.39v-1.17l.888.012v1.08l-.888.078M65.346 37.261V36.24l1.315.017v.888l-1.315.117M67.224 37.096v-.833l1.396.017v.692l-1.396.124M69.185 36.921v-.633l.469.007v.585l-.469.041M66.661 38.885v-.891l.563-.066v.833l-.563.124M67.79 38.637v-.774l1.864-.218v.584l-1.864.408M63.894 41.484v-1.172l1.114-.238v1.06l-1.114.35M66.236 40.746v-.932l.425-.092v.89l-.425.134M67.224 40.436v-.833l.556-.119.01-.002.75-.158v.697l-1.316.415M69.105 39.844v-.641l.549-.117v.585l-.549.173M63.894 43.688v-1.172l.83-.289v1.09l-.83.371M65.29 43.062v-1.03l2.424-.841v.784l-2.424 1.087M68.278 41.72v-.724l1.376-.478v.585l-1.376.617M63.894 45.712V44.54l2.201-.944v.946l-2.2 1.17M66.661 44.244v-.89l1.782-.765v.708l-1.782.947M69.008 42.996v-.65l.646-.277v.585l-.646.342M63.894 47.824v-1.172l.92-.488v1.078l-.92.582M66.156 46.392v-.942l.505-.267v.89l-.505.319M67.224 45.717v-.832l.857-.457v.748l-.857.541M68.644 44.82v-.69l1.01-.536v.587l-1.01.638M63.894 49.72v-1.173l1.483-.861v1.019l-1.483 1.014M65.943 48.32v-.964l1.281-.746v.833l-1.281.876M67.79 47.057v-.774l1.864-1.085v.585l-1.864 1.274M63.894 51.63v-1.173l.83-.545v1.087l-.83.63M66.56 49.603v-.9l1.802-1.19v.719l-1.803 1.371M68.926 47.802v-.658l.728-.48v.585l-.728.553M63.894 53.491V52.32l2.17-1.539v.952l-2.17 1.76M66.63 51.273v-.893l.691-.49v.822l-.692.56M67.887 50.254v-.767l1.767-1.253v.585l-1.767 1.435M63.894 55.355v-1.172l1.202-.934v1.048l-1.202 1.058M65.661 53.8v-.99l2.129-1.658v.776L65.66 53.8M69.028 50.838v-.648l.626-.487v.585l-.626.55M63.894 57.217v-1.172l.638-.534v1.106l-.638.6M65.096 56.09v-1.05l2.048-1.711v.842l-2.049 1.92M67.71 53.64v-.785l1.944-1.623v.585l-1.945 1.822M63.894 59.178v-1.172l1.396-1.26v1.032l-1.396 1.4M65.855 57.21v-.974l.563-.507v.915l-.563.566M66.984 56.079v-.86l1.097-.99v.748l-1.097 1.102M69.159 53.897v-.639l.495-.446v.587l-.495.498M65.46 59.333v-1.012l2.145-2.085v.794l-2.145 2.303M68.168 56.426v-.736l1.486-1.444v.585l-1.486 1.595M64.894 61.736v-1.07l2.145-2.184v.851l-2.145 2.403M67.605 58.702v-.796l1.039-1.058v.692l-1.039 1.162M69.467 56.617v-.607l.187-.188v.587l-.187.208M65.008 63.377V62.32l.847-.915v.973l-.847 1M66.418 61.712v-.917l3.236-3.496v.588l-3.236 3.825M67.693 61.846v-.787l1.96-2.197v.588l-1.96 2.395"/>
        <path fill="#1A202B" d="M67.79 39.492l-.01-.008.01-.002v.01"/>
        <path fill="#FFFFFE" d="M88.107 47.8h.29v-.734h-.29zM88.611 47.8h.29v-.734h-.29zM89.116 47.8h.289v-.734h-.29zM88.107 49.117h.29v-.735h-.29zM88.611 49.117h.794v-.735h-.794zM88.107 50.434h4.851V49.7h-4.85zM88.107 51.751h.29v-.735h-.29zM88.611 51.751h.29v-.735h-.29zM89.62 51.751h1.297v-.735h-1.298zM88.107 54.384h.29v-.735h-.29zM89.116 54.384h2.33v-.735h-2.33zM90.628 55.7h.818v-.734h-.818zM88.107 57.018h.29v-.735h-.29zM89.116 57.018h1.297v-.735h-1.297zM88.611 59.651h.29v-.735h-.29zM89.62 59.651h4.802v-.735H89.62zM88.107 63.601h.29v-.734h-.29zM89.116 63.601h1.297v-.734h-1.297zM90.628 63.601h.289v-.734h-.29zM88.611 64.918h.29v-.735h-.29zM88.611 66.235h.29V65.5h-.29zM88.107 67.552h.29v-.736h-.29zM89.116 67.552h2.33v-.736h-2.33zM88.107 68.868h.793v-.735h-.793zM89.116 70.185h.289v-.735h-.29zM90.124 70.185h.29v-.735h-.29zM90.628 70.185h.289v-.735h-.29zM88.107 72.818h.29v-.735h-.29zM89.116 72.818h1.8v-.735h-1.8zM88.611 74.135h.29V73.4h-.29zM89.62 74.135h1.826V73.4h-1.827zM88.107 75.452h.29v-.736h-.29zM89.116 75.452h.289v-.736h-.29zM92.67 47.8h.288v-.734h-.289zM93.173 47.8h.29v-.734h-.29zM93.677 47.8h.29v-.734h-.29zM91.157 49.117h.289v-.735h-.29zM92.165 49.117h5.984v-.735h-5.984zM91.157 51.751h.289v-.735h-.29zM93.677 53.067h.29v-.734h-.29zM91.66 55.7h.29v-.734h-.29zM93.677 57.018h1.778v-.735h-1.778zM90.124 62.284h1.322v-.734h-1.322zM92.67 62.284h.288v-.734h-.289zM93.677 62.284h.29v-.734h-.29zM90.628 64.918h2.33v-.735h-2.33zM93.677 64.918h.29v-.735h-.29zM93.677 67.552h3.53v-.736h-3.53zM93.677 70.185h.29v-.735h-.29zM91.66 71.501h.29v-.734h-.29zM92.165 71.501h.29v-.734h-.29zM93.677 71.501h1.741v-.734h-1.74zM91.66 74.135h.29V73.4h-.29zM89.116 76.726h.289v-.735h-.29zM92.165 76.726h.29v-.735h-.29zM88.107 77.94h.29v-.736h-.29zM90.124 77.94h.29v-.736h-.29zM90.652 77.94h3.315v-.736h-3.315zM90.628 79.111h.289v-.734h-.29zM89.62 79.111h.289v-.734h-.29zM88.107 80.28h.29v-.735h-.29zM89.115 80.28h.29v-.735h-.29zM89.62 81.448h.288v-.735h-.289zM92.165 81.448h.29v-.735h-.29zM88.107 82.616h.29v-.735h-.29zM91.66 82.616h.29v-.735h-.29zM89.62 83.844h.289v-.734h-.29zM91.157 83.844h.289v-.734h-.29zM88.107 86.15h.29v-.735h-.29zM90.628 86.15h.289v-.735h-.29zM89.62 87.303h.289v-.735h-.29zM88.107 88.456h.29v-.735h-.29zM90.628 88.456h.289v-.735h-.29zM93.677 88.456h.29v-.735h-.29zM93.677 91.126h.29v-.735h-.29zM88.107 92.46h.29v-.734h-.29zM90.628 93.796h.289v-.735h-.29zM90.628 95.07h.289v-.735h-.29zM93.677 93.796h.29v-.735h-.29z"/>
        <path fill="#FFFFFE" d="M93.629 47.8h.29v-.734h-.29zM94.133 47.8h.29v-.734h-.29zM94.637 47.8h.29v-.734h-.29zM95.645 47.8h.29v-.734h-.29zM96.15 47.8h.289v-.734h-.29zM96.15 50.434h.289V49.7h-.29zM94.133 53.067h2.835v-.734h-2.835zM93.629 57.018h1.777v-.735H93.63zM89.116 58.335h5.306v-.736h-5.306zM95.141 58.335h1.827v-.736H95.14zM91.26 60.968h5.179v-.735H91.26zM93.629 62.284h.29v-.734h-.29zM94.133 62.284h.29v-.734h-.29zM94.133 64.918h2.835v-.735h-2.835zM96.15 66.235h.289V65.5h-.29zM93.629 67.552h3.53v-.736h-3.53zM93.629 71.501h1.74v-.734h-1.74zM96.15 71.501h.289v-.734h-.29zM94.133 74.135h.29V73.4h-.29zM94.637 74.135h1.802V73.4h-1.802zM96.679 47.8h.289v-.734h-.29zM97.183 47.8h.289v-.734h-.29zM98.19 47.8h.29v-.734h-.29zM98.695 47.8h.29v-.734h-.29zM99.2 47.8h.288v-.734H99.2zM99.2 50.434h.288V49.7H99.2zM91.66 51.751h5.308v-.735H91.66zM97.327 51.751h1.657v-.735h-1.657zM99.2 51.751h.288v-.735H99.2zM99.2 53.067h.288v-.734H99.2zM91.66 54.384h5.308v-.735H91.66zM97.687 54.384h.29v-.735h-.29zM98.15 54.384h.834v-.735h-.835zM96.679 57.018h.289v-.735h-.29zM97.687 57.018h.29v-.735h-.29zM99.2 57.018h.288v-.735H99.2zM97.183 58.335h.289v-.736h-.29zM98.695 58.335h.29v-.736h-.29zM99.2 58.335h.288v-.736H99.2zM98.19 59.651h.29v-.735h-.29zM99.2 59.651h.288v-.735H99.2zM98.19 60.968h.794v-.735h-.793zM99.2 60.968h.288v-.735H99.2zM95.645 62.284h1.323v-.734h-1.323zM98.19 62.284h.29v-.734h-.29zM99.2 62.284h.288v-.734H99.2zM98.716 63.601h.772v-.734h-.772zM97.183 64.918h.289v-.735h-.29zM98.19 64.918h.29v-.735h-.29zM98.695 64.918h.29v-.735h-.29zM99.2 64.918h.288v-.735H99.2zM97.183 66.235h1.297V65.5h-1.297zM99.2 66.235h.288V65.5H99.2zM99.2 67.552h.288v-.736H99.2zM96.679 68.868h.289v-.735h-.29zM98.19 68.868h.29v-.735h-.29zM98.716 68.868h.772v-.735h-.772zM99.2 70.185h.288v-.735H99.2zM97.687 71.501h.29v-.734h-.29zM99.2 71.501h.288v-.734H99.2zM98.695 72.818h.29v-.735h-.29zM97.183 74.135h.289V73.4h-.29zM98.19 74.135h.29V73.4h-.29zM99.2 74.135h.288V73.4H99.2zM96.679 75.452h.289v-.736h-.29zM99.2 75.452h.288v-.736H99.2zM96.679 76.726h.289v-.735h-.29zM97.687 76.726h.29v-.735h-.29zM90.604 77.94h3.314v-.736h-3.314zM94.133 77.94h.29v-.736h-.29zM95.645 77.94h.29v-.736h-.29zM96.679 77.94h.289v-.736h-.29zM99.2 77.94h.288v-.736H99.2zM95.141 79.111h.29v-.734h-.29zM98.695 79.111h.29v-.734h-.29zM99.2 79.111h.288v-.734H99.2zM97.183 80.28h.289v-.735h-.29zM98.19 80.28h.29v-.735h-.29zM99.2 80.28h.288v-.735H99.2zM95.141 81.448h.29v-.735h-.29zM94.133 81.448h.29v-.735h-.29zM97.687 81.448h.29v-.735h-.29zM98.19 81.448h.29v-.735h-.29zM97.183 82.616h.289v-.735h-.29zM96.15 82.616h.289v-.735h-.29zM99.2 82.616h.288v-.735H99.2zM95.141 83.844h.29v-.734h-.29zM99.2 83.844h.288v-.734H99.2zM97.183 84.997h.289v-.735h-.29zM94.637 84.997h.29v-.735h-.29zM96.15 84.997h.289v-.735h-.29zM96.15 86.15h.289v-.735h-.29zM99.2 86.15h.288v-.735H99.2zM97.183 87.303h.289v-.735h-.29zM95.141 87.303h.29v-.735h-.29zM93.629 88.456h.29v-.735h-.29zM96.15 88.456h.289v-.735h-.29zM99.2 88.456h.288v-.735H99.2zM99.2 89.79h.288v-.734H99.2zM96.15 91.126h.289v-.735h-.29zM99.2 91.126h.288v-.735H99.2zM96.679 92.46h.289v-.734h-.29zM96.15 95.07h.289v-.735h-.29zM99.2 93.796h.288v-.735H99.2zM99.887 47.09v.736l3.61 7.451v-.367l-3.61-7.82M99.888 48.407l1.284 2.599v.604l-1.284-2.468v-.735M102.68 54.06v.448l-1.156-2.22v-.568l1.155 2.34M103.497 55.715v.366l-.466-.895v-.416l.466.945M99.887 49.724v.735l3.61 6.425v-.367l-3.61-6.793M99.888 51.04l.398.704v.694l-.398-.663v-.735M101.444 53.79v.577l-.804-1.34v-.657l.804 1.42M102.718 56.042l.228.405v.423l-.228-.381v-.447M103.497 57.42v.367l-.197-.327v-.386l.197.347M100.71 53.715v.65l-.822-1.272v-.735l.823 1.357M101.267 55.82v.596l-1.38-1.93v-.735l1.38 2.068M103.497 59.166v.369l-.864-1.209v-.456l.864 1.296M99.888 54.991l.398.556v.697l-.398-.517v-.736M101.966 57.897v.524l-1.326-1.719v-.657l1.326 1.852M102.32 58.394l.22.308v.464l-.22-.287v-.485M103.497 60.04v.366l-.602-.781v-.428l.602.843M99.888 56.31l1.136 1.441v.616l-1.136-1.325v-.733M101.638 59.083l-.26-.303v-.58l.243.308v.549l.017.026M102.718 59.9v.443l-.743-.866v-.52l.743.942M99.888 57.624l.45.515v.69l-.45-.469v-.736M101.444 60.55l.344.356v.541l-.344-.323v-.575M103.497 62.673v.367l-1.354-1.262v-.479l-.03-.056 1.384 1.43M99.888 60.258l.556.505v.677l-.556-.446v-.736M103.497 63.53v.366l-.345-.276v-.403l.345.313M99.888 61.574l1.379 1.075v.594l-1.38-.934v-.735M101.597 62.904l.415.325v.52l-.39-.265v-.532l-.025-.048M103.497 64.387v.369l-1.133-.77v-.483l1.133.884M101.09 63.668v.615l-.399-.219v-.653l.398.257M103.497 65.224v.369l-.522-.284-.352-.192-1.18-.643v-.578l1.18.763.352.228.522.337M99.888 64.21l.733.378v.658l-.733-.304v-.732M101.735 65.163v.547l-.762-.319v-.62l.762.392M103.497 66.071v.369l-1.408-.585v-.51l1.408.726M101.621 66.192l1.002.386v.457l-1.002-.284v-.559M100.798 67.074l.823.208v.556l-.823-.124v-.64M101.975 67.37l.435.111v.476l-.435-.065v-.522M103.497 67.755v.367l-.733-.112v-.439l.733.184M99.888 68.158l.91.126v.644l-.91-.034v-.736M103.497 68.663v.367l-1.167-.044v-.485l1.167.162M99.888 69.474l.556.007v.68l-.556.049v-.736M102.33 69.508l.519.005v.437l-.52.043v-.485M101.975 70.547v.522l-.354.077-.354.078v-.595l.708-.082M103.497 70.367v.37l-1.167.254v-.466l-.046-.015.046-.005 1.167-.138M99.888 72.042l.697-.148v.663l-.697.218v-.733M102.33 71.522l.47-.102v.437l-.47.148v-.478l-.008-.005h.008M103.497 71.272v.367l-.345.11v-.403l.345-.074M99.888 73.423l.52-.18v.682l-.52.233v-.735M102.281 72.593v.49l-1.52.682v-.646l1.52-.526M103.497 72.17v.367l-.862.386v-.454l.862-.298M99.888 74.692l1.003-.43v.634l-1.003.532v-.736M101.604 73.957l1.136-.488v.444l-1.136.602v-.558M103.497 73.144v.366l-.405.216v-.408l.405-.174M100.817 75.522l.804-.427v.559l-.804.51v-.642M102.25 74.763l.262-.14v.468l-.262.165v-.493M103.497 74.1v.367l-.63.4v-.432l.63-.335M103.497 75.105v.367l-1.167.798v-.486l1.167-.679M102.689 76.556v.45l-1.927 1.466v-.646l1.927-1.27M103.497 76.025v.366l-.456.347v-.412l.456-.301M99.888 79.57l1.36-.965v.595l-1.36 1.104v-.733M101.602 78.355l.434-.308v.514l-.434.352v-.558M103.497 77.008v.366l-.456.372v-.413l.456-.325M102.33 78.838v.485l-1.335 1.177v-.623l1.335-1.04M103.497 77.93v.367l-.813.716v-.45l.813-.633M99.888 81.906l.398-.333v.695l-.398.373v-.735M101.924 80.202v.53l-1.284 1.203v-.658l1.284-1.075M103.497 78.887v.368l-1.218 1.143v-.492l1.218-1.02M99.888 83.134l.874-.789v.648l-.874.876v-.735M102.512 80.768v.468l-.69.692v-.54l.69-.62M103.497 79.88v.366l-.63.633v-.432l.63-.568M100.868 83.333l1.345-1.308v.5l-1.345 1.444v-.636M103.497 80.777v.369l-.93.998v-.464l.93-.903M99.888 85.44l1.97-2.008v.537l-1.97 2.206v-.735M103.497 81.765v.369l-.279.313v-.398l.279-.284M100.585 85.84l.531-.575v.612l-.531.628v-.665M103.497 82.692v.37l-2.026 2.395v-.575l2.026-2.19M103.497 83.673v.366l-1.228 1.5v-.49l1.228-1.376"/>
        <path fill="#030617" d="M102.284 70.51l.046-.005v.02l-.046-.015M101.621 70.588v.558l-.354.078v-.595l.354-.041"/>
        <path fill="#030617" d="M102.33 70.505v.02l-.046-.015.046-.005M102.33 71.522v.005l-.008-.005h.008"/>
        <path fill="#FFFFFE" d="M100.585 89.423l.531-.632v.61l-.531.682v-.66M103.497 85.976v.367l-2.026 2.604v-.573l2.026-2.398M103.497 87.09v.367l-2.026 2.762v-.573l2.026-2.556M103.497 84.886v.367l-1.228 1.5v-.49l1.228-1.377"/>
        <path fill="#030617" d="M102.33 71.522v.005l-.008-.005h.008M102.975 64.887v.422l-.352-.192v-.458l.352.228"/>
        <path fill="#FFFFFE" d="M70.857 30.962h.289v-.735h-.29zM71.36 30.962h.29v-.735h-.29zM71.865 30.962h.29v-.735h-.29zM72.873 30.962h.29v-.735h-.29zM73.377 30.962h.29v-.735h-.29zM70.857 32.279h.289v-.736h-.29zM71.36 32.279h.794v-.736h-.793zM70.857 33.595h.289v-.735h-.29zM71.865 33.595h1.297v-.735h-1.297zM73.377 33.595h.29v-.735h-.29zM70.857 34.912h.289v-.735h-.29zM71.36 34.912h.29v-.735h-.29zM72.369 34.912h1.297v-.735H72.37zM71.36 36.229h.29v-.735h-.29zM71.865 36.229h.29v-.735h-.29zM73.377 36.229h.29v-.735h-.29zM70.857 37.545h.289v-.735h-.29zM71.865 37.545h.29v-.735h-.29zM71.36 38.862h.29v-.735h-.29zM72.369 38.862h.29v-.735h-.29zM73.377 38.862h.818v-.735h-.818zM70.857 40.179h.289v-.735h-.29zM71.865 40.179h1.297v-.735h-1.297zM71.36 41.496h.29v-.735h-.29zM72.873 41.496h.29v-.735h-.29zM71.36 42.813h.29v-.736h-.29zM72.369 42.813h.29v-.736h-.29zM70.857 44.13h.289v-.736h-.29zM71.865 44.13h.29v-.736h-.29zM73.377 44.13h.29v-.736h-.29zM70.857 45.446h.289v-.735h-.29zM71.36 45.446h.29v-.735h-.29zM70.857 46.762h.289v-.734h-.29zM71.865 46.762h1.297v-.734h-1.297zM73.377 46.762h.29v-.734h-.29zM71.36 48.08h.29v-.736h-.29zM71.36 49.396h.29v-.735h-.29zM72.369 49.396h.29v-.735h-.29zM73.377 49.396h.29v-.735h-.29zM70.857 50.713h.289v-.735h-.29zM71.865 50.713h.29v-.735h-.29zM72.873 50.713h.793v-.735h-.793zM70.857 52.03h.793v-.735h-.793zM72.369 52.03h.29v-.735h-.29zM71.865 53.346h.29v-.735h-.29zM72.873 53.346h.29v-.735h-.29zM73.377 53.346h.29v-.735h-.29zM70.857 54.663h.289v-.735h-.29zM71.36 54.663h.29v-.735h-.29zM71.865 54.663h.29v-.735h-.29zM73.377 54.663h.29v-.735h-.29zM70.857 55.98h.289v-.735h-.29zM71.865 55.98h.29v-.735h-.29zM71.36 57.296h.29v-.735h-.29zM72.369 57.296h.29v-.735h-.29zM70.857 58.613h.289v-.735h-.29zM71.865 58.613h.29v-.735h-.29zM73.906 30.962h.29v-.735h-.29zM74.41 30.962h.29v-.735h-.29zM75.419 30.962h.289v-.735h-.29zM75.923 30.962h.289v-.735h-.29zM76.427 30.962h.289v-.735h-.29zM73.906 32.279h.29v-.736h-.29zM74.915 32.279h.289v-.736h-.29zM75.923 32.279h.289v-.736h-.29zM74.41 33.595h1.298v-.735H74.41zM76.427 33.595h.289v-.735h-.29zM73.906 34.912h.29v-.735h-.29zM75.419 34.912h.793v-.735h-.793zM76.427 34.912h.289v-.735h-.29zM73.906 36.229h.29v-.735h-.29zM74.41 36.229h.794v-.735h-.794zM75.419 36.229h.289v-.735h-.29zM76.427 36.229h.289v-.735h-.29zM73.906 37.545h.29v-.735h-.29zM74.915 37.545h.289v-.735h-.29zM74.41 38.862h.29v-.735h-.29zM75.923 38.862h.289v-.735h-.29zM73.906 40.179h.29v-.735h-.29zM74.915 40.179h.289v-.735h-.29zM75.419 40.179h.289v-.735h-.29zM76.427 40.179h.289v-.735h-.29zM74.41 41.496h.29v-.735h-.29zM75.419 41.496h.289v-.735h-.29zM73.906 42.813h1.298v-.736h-1.298zM75.419 42.813h.289v-.736h-.29zM75.419 44.13h.793v-.736h-.793zM76.427 44.13h.289v-.736h-.29zM72.873 45.446h1.322v-.735h-1.322zM75.419 45.446h.289v-.735h-.29zM76.427 45.446h.289v-.735h-.29zM74.41 46.762h.29v-.734h-.29zM74.915 46.762h.289v-.734h-.29zM75.944 46.762h.772v-.734h-.772zM74.41 48.08h.29v-.736h-.29zM75.419 48.08h.289v-.736h-.29zM76.427 48.08h.289v-.736h-.29zM74.41 49.396h1.298v-.735H74.41zM76.427 49.396h.289v-.735h-.29zM73.906 50.713h.29v-.735h-.29zM76.427 50.713h.289v-.735h-.29zM73.906 52.03h.29v-.735h-.29zM74.41 52.03h.29v-.735h-.29zM75.419 52.03h.289v-.735h-.29zM75.944 52.03h.772v-.735h-.772zM74.915 53.346h.289v-.735h-.29zM75.923 53.346h.289v-.735h-.29zM76.427 53.346h.289v-.735h-.29zM74.41 54.663h.29v-.735h-.29zM74.915 54.663h.289v-.735h-.29zM76.427 54.663h.289v-.735h-.29zM73.906 55.98h.29v-.735h-.29zM74.915 55.98h.289v-.735h-.29zM75.923 55.98h.289v-.735h-.29zM74.41 57.296h.29v-.735h-.29zM75.419 57.296h.289v-.735h-.29zM76.427 57.296h.289v-.735h-.29zM73.906 58.613h.29v-.735h-.29zM74.915 58.613h.289v-.735h-.29zM76.427 58.613h.289v-.735h-.29zM71.865 59.887h.29v-.735h-.29zM73.377 59.887h.29v-.735h-.29zM73.906 59.887h.29v-.735h-.29zM74.915 59.887h.289v-.735h-.29zM70.857 61.1h.289v-.734h-.29zM71.36 61.1h.29v-.734h-.29zM72.873 61.1h.29v-.734h-.29zM73.906 61.1h.29v-.734h-.29zM76.427 61.1h.289v-.734h-.29zM73.377 62.273h.29v-.735h-.29zM72.369 62.273h.29v-.735h-.29zM75.923 62.273h.289v-.735h-.29zM76.427 62.273h.289v-.735h-.29zM70.857 63.44h.289v-.734h-.29zM74.41 63.44h.29v-.734h-.29zM71.865 63.44h.29v-.734h-.29zM75.419 63.44h.289v-.734h-.29zM76.427 63.44h.289v-.734h-.29zM70.857 64.609h.289v-.735h-.29zM72.369 64.609h.29v-.735h-.29zM71.36 64.609h.29v-.735h-.29zM74.915 64.609h.289v-.735h-.29zM75.419 64.609h.289v-.735h-.29zM70.857 65.777h.289v-.735h-.29zM74.41 65.777h.29v-.735h-.29zM72.369 65.777h.29v-.735h-.29zM73.377 65.777h.29v-.735h-.29zM76.427 65.777h.289v-.735h-.29zM70.857 67.005h.289v-.734h-.29zM74.41 67.005h.29v-.734h-.29zM72.369 67.005h.29v-.734h-.29zM73.906 67.005h.29v-.734h-.29zM76.427 67.005h.289v-.734h-.29zM74.41 68.158h.29v-.734h-.29zM71.865 68.158h.29v-.734h-.29zM73.377 68.158h.29v-.734h-.29zM70.857 69.311h.289v-.734h-.29zM73.377 69.311h.29v-.734h-.29zM76.427 69.311h.289v-.734h-.29zM72.369 70.464h.29v-.734h-.29zM70.857 71.617h.289v-.735h-.29zM73.377 71.617h.29v-.735h-.29zM76.427 71.617h.289v-.735h-.29zM70.857 72.952h.289v-.735h-.29zM76.427 72.952h.289v-.735h-.29zM73.377 74.287h.29v-.735h-.29zM76.427 74.287h.289v-.735h-.29zM70.857 75.622h.289v-.735h-.29zM73.906 75.622h.29v-.735h-.29zM73.377 76.957h.29v-.735h-.29zM73.377 78.231h.29v-.735h-.29zM76.427 76.957h.289v-.735h-.29z"/>
        <path fill="#FFFFFE" d="M76.379 30.962h.289v-.735h-.29zM76.882 30.962h.29v-.735h-.29zM77.387 30.962h.289v-.735h-.29zM78.395 30.962h.29v-.735h-.29zM78.899 30.962h.29v-.735h-.29zM76.379 32.279h.289v-.736h-.29zM76.882 32.279h.794v-.736h-.794zM76.379 33.595h.289v-.735h-.29zM77.387 33.595h1.297v-.735h-1.297zM78.899 33.595h.29v-.735h-.29zM76.379 34.912h.289v-.735h-.29zM76.882 34.912h.29v-.735h-.29zM77.89 34.912h1.298v-.735h-1.297zM76.882 36.229h.29v-.735h-.29zM77.387 36.229h.289v-.735h-.29zM78.899 36.229h.29v-.735h-.29zM76.379 37.545h.289v-.735h-.29zM77.387 37.545h.289v-.735h-.29zM78.395 37.545h.29v-.735h-.29zM76.882 38.862h.29v-.735h-.29zM77.89 38.862h.29v-.735h-.29zM78.899 38.862h.818v-.735H78.9zM76.379 40.179h.289v-.735h-.29zM77.387 40.179h1.297v-.735h-1.297zM76.882 41.496h.29v-.735h-.29zM77.89 41.496h.29v-.735h-.29zM78.395 41.496h.29v-.735h-.29zM76.882 42.813h.29v-.736h-.29zM77.89 42.813h.29v-.736h-.29zM76.379 44.13h.289v-.736h-.29zM77.387 44.13h.289v-.736h-.29zM78.899 44.13h.29v-.736h-.29zM76.379 45.446h.289v-.735h-.29zM76.882 45.446h.29v-.735h-.29zM76.379 46.762h.289v-.734h-.29zM77.387 46.762h1.297v-.734h-1.297zM78.899 46.762h.29v-.734h-.29zM76.882 48.08h.29v-.736h-.29zM76.882 49.396h.29v-.735h-.29zM77.89 49.396h.29v-.735h-.29zM78.899 49.396h.29v-.735h-.29zM76.379 50.713h.289v-.735h-.29zM77.387 50.713h.289v-.735h-.29zM78.395 50.713h.793v-.735h-.793zM76.379 52.03h.793v-.735h-.793zM77.89 52.03h.29v-.735h-.29zM77.387 53.346h.289v-.735h-.29zM78.395 53.346h.29v-.735h-.29zM78.899 53.346h.29v-.735h-.29zM76.379 54.663h.289v-.735h-.29zM77.387 54.663h.289v-.735h-.29zM78.899 54.663h.29v-.735h-.29zM76.379 55.98h.289v-.735h-.29zM77.387 55.98h.289v-.735h-.29zM78.395 55.98h.29v-.735h-.29zM76.882 57.296h.29v-.735h-.29zM77.89 57.296h.29v-.735h-.29zM78.899 57.296h.29v-.735h-.29zM76.379 58.613h.289v-.735h-.29zM77.387 58.613h.289v-.735h-.29zM79.428 30.962h.29v-.735h-.29zM79.932 30.962h.29v-.735h-.29zM80.94 30.962h.29v-.735h-.29zM81.444 30.962h.29v-.735h-.29zM81.949 30.962h.289v-.735h-.29zM79.428 32.279h.29v-.736h-.29zM80.436 32.279h.29v-.736h-.29zM81.444 32.279h.29v-.736h-.29zM79.932 33.595h1.297v-.735h-1.297zM81.949 33.595h.289v-.735h-.29zM79.428 34.912h.29v-.735h-.29zM80.94 34.912h.794v-.735h-.794zM81.949 34.912h.289v-.735h-.29zM79.428 36.229h.29v-.735h-.29zM79.932 36.229h.793v-.735h-.793zM80.94 36.229h.29v-.735h-.29zM81.949 36.229h.289v-.735h-.29zM79.428 37.545h.29v-.735h-.29zM80.436 37.545h.29v-.735h-.29zM80.899 37.545h.835v-.735h-.835zM79.932 38.862h.29v-.735h-.29zM81.444 38.862h.29v-.735h-.29zM81.949 38.862h.289v-.735h-.29zM79.428 40.179h.29v-.735h-.29zM80.436 40.179h.29v-.735h-.29zM81.949 40.179h.289v-.735h-.29zM79.932 41.496h.29v-.735h-.29zM81.444 41.496h.29v-.735h-.29zM81.949 41.496h.289v-.735h-.29zM80.94 42.813h.29v-.736h-.29zM81.949 42.813h.289v-.736h-.29zM80.94 44.13h.794v-.736h-.794zM81.949 44.13h.289v-.736h-.29zM78.395 45.446h1.322v-.735h-1.322zM80.94 45.446h.29v-.735h-.29zM81.949 45.446h.289v-.735h-.29zM79.932 46.762h.29v-.734h-.29zM80.436 46.762h.29v-.734h-.29zM81.466 46.762h.772v-.734h-.772zM79.932 48.08h.29v-.736h-.29zM80.94 48.08h.29v-.736h-.29zM81.444 48.08h.29v-.736h-.29zM81.949 48.08h.289v-.736h-.29zM79.932 49.396h1.297v-.735h-1.297zM81.949 49.396h.289v-.735h-.29zM79.428 50.713h.29v-.735h-.29zM81.949 50.713h.289v-.735h-.29zM79.428 52.03h.29v-.735h-.29zM79.932 52.03h.29v-.735h-.29zM80.94 52.03h.29v-.735h-.29zM81.466 52.03h.772v-.735h-.772zM80.436 53.346h.29v-.735h-.29zM81.444 53.346h.29v-.735h-.29zM81.949 53.346h.289v-.735h-.29zM79.428 54.663h.29v-.735h-.29zM79.932 54.663h.29v-.735h-.29zM80.436 54.663h.29v-.735h-.29zM81.949 54.663h.289v-.735h-.29zM79.428 55.98h.29v-.735h-.29zM80.436 55.98h.29v-.735h-.29zM81.444 55.98h.29v-.735h-.29zM79.932 57.296h.29v-.735h-.29zM80.94 57.296h.29v-.735h-.29zM81.949 57.296h.289v-.735h-.29zM79.428 58.613h.29v-.735h-.29zM80.436 58.613h.29v-.735h-.29zM81.949 58.613h.289v-.735h-.29zM77.387 59.887h.289v-.735h-.29zM78.899 59.887h.29v-.735h-.29zM79.428 59.887h.29v-.735h-.29zM80.436 59.887h.29v-.735h-.29zM76.379 61.1h.289v-.734h-.29zM76.882 61.1h.29v-.734h-.29zM78.395 61.1h.29v-.734h-.29zM79.428 61.1h.29v-.734h-.29zM81.949 61.1h.289v-.734h-.29zM78.899 62.273h.29v-.735h-.29zM77.89 62.273h.29v-.735h-.29zM81.444 62.273h.29v-.735h-.29zM81.949 62.273h.289v-.735h-.29zM79.932 63.44h.29v-.734h-.29zM77.386 63.44h.29v-.734h-.29zM80.94 63.44h.29v-.734h-.29zM81.949 63.44h.289v-.734h-.29zM76.379 64.609h.289v-.735h-.29zM77.89 64.609h.29v-.735h-.29zM76.882 64.609h.29v-.735h-.29zM80.436 64.609h.29v-.735h-.29zM80.94 64.609h.29v-.735h-.29zM76.379 65.777h.289v-.735h-.29zM79.932 65.777h.29v-.735h-.29zM77.89 65.777h.29v-.735h-.29zM78.899 65.777h.29v-.735h-.29zM81.949 65.777h.289v-.735h-.29zM76.379 67.005h.289v-.734h-.29zM79.932 67.005h.29v-.734h-.29zM77.89 67.005h.29v-.734h-.29zM79.428 67.005h.29v-.734h-.29zM81.949 67.005h.289v-.734h-.29zM79.932 68.158h.29v-.734h-.29zM77.386 68.158h.29v-.734h-.29zM78.899 68.158h.29v-.734h-.29zM76.379 69.311h.289v-.734h-.29zM78.899 69.311h.29v-.734h-.29zM81.949 69.311h.289v-.734h-.29zM79.932 70.464h.29v-.734h-.29zM77.89 70.464h.29v-.734h-.29zM76.379 71.617h.289v-.735h-.29zM78.899 71.617h.29v-.735h-.29zM81.949 71.617h.289v-.735h-.29zM76.379 72.952h.289v-.735h-.29zM81.949 72.952h.289v-.735h-.29zM78.899 74.287h.29v-.735h-.29zM81.949 74.287h.289v-.735h-.29zM76.379 75.622h.289v-.735h-.29zM79.428 75.622h.29v-.735h-.29zM78.899 76.957h.29v-.735h-.29zM78.899 78.231h.29v-.735h-.29zM81.949 76.957h.289v-.735h-.29zM82.728 30.252v.735l3.61 7.452v-.368l-3.61-7.82M82.728 31.569l1.284 2.6v.603l-1.284-2.468v-.735M84.366 34.884l1.153 2.335v.451l-1.153-2.216v-.57M86.337 38.874v.37l-.463-.892v-.417l.463.94M82.728 32.886v.734l3.61 6.426v-.368l-3.61-6.792M82.728 34.202l.4.709v.694l-.4-.668v-.735M84.284 36.952v.578l-.803-1.34v-.658l.803 1.42M85.206 38.58v.486l-.568-.947v-.54l.568 1.002M85.558 39.204l.228.403v.425l-.228-.381v-.447M86.337 40.58v.37l-.196-.328v-.389l.196.348M82.728 35.52l.823 1.357v.65l-.823-1.274v-.733M86.337 41.471v.367l-2.431-3.765v-.611l2.431 4.01M82.728 36.913l1.381 2.073v.592l-1.38-1.932v-.733M85.119 40.5v.49l-.658-.92v-.557l.658.988M86.337 42.328v.367l-.864-1.21v-.453l.864 1.296M82.728 38.153l.4.561v.692l-.4-.52v-.733M84.806 41.059v.522l-1.325-1.719v-.655l1.325 1.852M85.384 41.867v.464l-.224-.29v-.485l.224.31M86.337 43.202v.366l-.602-.781v-.427l.602.842M82.728 39.469l1.139 1.444v.619l-1.139-1.328v-.735M84.478 42.246l-.26-.304v-.582l.243.308v.55l.017.028M85.558 43.059v.446l-.742-.866v-.522l.742.942M86.337 44.046v.37l-.425-.496v-.412l.425.538M82.728 40.787l.45.514v.687l-.45-.468v-.733M85.558 44.025v.444l-2.026-2.112v-.607l-.059-.111 2.085 2.386M86.337 44.915v.367l-.425-.442v-.41l.425.485M82.728 42.102l1.204 1.245v.612l-1.204-1.121v-.736M84.284 43.711l.344.357v.542l-.344-.323v-.576M86.337 45.835v.367l-1.354-1.262v-.48l-.027-.052 1.381 1.427M83.284 43.925v.675l-.556-.447v-.733l.556.505M86.337 46.692v.366l-.342-.276v-.4l.342.31M82.728 44.736l1.381 1.075v.595l-1.38-.935v-.735M84.437 46.068l.415.323v.52l-.39-.265v-.532l-.025-.046M86.337 47.549v.366l-1.13-.767v-.48l1.13.88M82.728 46.054l.45.291v.687l-.45-.245v-.733M83.932 46.833v.61l-.4-.22v-.65l.4.26M85.464 47.82v.457l-1.18-.643v-.576l1.18.763M86.337 48.386v.367l-.519-.284v-.418l.52.335M82.728 47.369l.733.379v.66l-.733-.303v-.736M83.816 47.93l.76.393v.546l-.76-.313v-.626M86.337 49.233v.367l-1.407-.583v-.512l1.407.728M82.728 48.687l1.381.532v.592l-1.38-.39v-.734M85.464 49.74v.454l-1.003-.283v-.556l1.003.386M86.337 50.075v.367l-.519-.148v-.418l.52.2M82.728 50.003l.556.14v.68l-.556-.085v-.735M84.461 50.442V51l-.823-.123v-.644l.823.209M84.816 50.532l.434.11v.477l-.434-.065v-.522M86.337 50.918v.366l-.733-.111v-.442l.214.053.52.134M82.728 51.32l.91.127v.64l-.91-.033v-.733M84.374 51.551l.442.06v.523l-.442-.017v-.566M86.337 51.826v.366l-1.167-.043v-.486l1.167.163M82.728 52.636l.556.007v.68l-.556.048v-.735M84.461 52.66v.559l-.823.072v-.643l.823.012M85.17 52.67l.522.005v.434l-.522.047v-.486M86.337 52.685v.366l-.293.027v-.398l.293.005M82.728 53.954l1.381-.162v.592l-1.38.303v-.733M84.816 53.71v.518l-.355.078v-.556l.355-.04M86.337 53.53v.366l-1.167.255v-.466l-.039-.012.039-.005 1.167-.139M82.728 55.202l.697-.148v.665l-.697.218v-.735M84.461 54.833v.558l-.682.216v-.629l.682-.145M85.17 54.682l.47-.1v.438l-.47.148v-.481l-.005-.002.005-.003M86.337 54.435v.366l-.342.107v-.4l.342-.073M82.728 56.585l.522-.182v.682l-.522.235v-.735M85.121 55.753v.492l-1.52.682v-.645l1.52-.53M86.337 55.33v.37l-.861.385v-.456l.861-.299M82.728 57.854l1.003-.43v.632l-1.003.531v-.733M84.444 57.116l1.136-.487v.446l-1.136.602v-.56M86.337 56.304v.368l-.403.214v-.41l.403-.172M82.728 59.177l.575-.306v.678l-.575.364v-.736M84.461 58.257v.558l-.803.51v-.64l.803-.428M85.09 57.922l.262-.138v.469l-.262.165v-.496M86.337 57.26v.369l-.63.4v-.434l.63-.336M82.728 60.367l.93-.542v.64l-.93.637v-.735M84.816 59.153v.522l-.804.548v-.604l.804-.466M86.337 58.267v.366l-1.167.799v-.485l1.167-.68M82.728 61.563l.522-.345v.682l-.522.398v-.735M85.53 59.716v.451l-1.928 1.467v-.646l1.927-1.272M86.337 59.184v.37l-.454.344v-.415l.454-.298M84.876 61.206v.517l-.434.352v-.56l.434-.31M86.337 60.17v.366l-.454.37v-.413l.454-.323M82.728 63.9l.753-.584v.655l-.753.662V63.9M85.17 62v.483l-1.335 1.177v-.621L85.17 62M86.337 61.09v.366l-.813.716v-.449l.813-.633M82.728 65.067l.398-.332v.694l-.398.374v-.736M84.764 63.364v.527l-1.283 1.206v-.658l1.283-1.075M86.337 62.048v.367l-1.218 1.143v-.49l1.218-1.02M82.728 66.296l.874-.789v.648l-.874.876v-.735M83.956 65.189l.355-.32v.573l-.355.357v-.61M85.352 63.93v.468l-.687.689v-.538l.687-.62M86.337 63.041v.366l-.63.634v-.432l.63-.568M82.728 67.449l.626-.61v.673l-.626.672v-.735M85.053 65.187v.497l-1.344 1.447v-.636l1.344-1.308M86.337 63.94v.366l-.93 1v-.464l.93-.903M82.728 68.602l1.971-2.008v.534l-1.97 2.209v-.735M85.053 66.235l.653-.665V66l-.653.733v-.498M86.337 64.927v.367l-.276.31v-.396l.276-.281M83.425 69.002l.531-.575v.61l-.531.63v-.665M86.337 65.854v.366l-2.026 2.399v-.575l2.026-2.19M86.337 66.835v.366l-1.228 1.5v-.49l1.228-1.376"/>
        <path fill="#030617" d="M85.17 52.59v.005l-.017-.012.017.007"/>
        <path fill="#030617" d="M85.17 52.59v.005l-.017-.012.017.007M85.17 53.668v.017l-.039-.012.039-.005"/>
        <path fill="#030617" d="M85.17 53.668v.017l-.039-.012.039-.005M85.17 54.682v.005l-.005-.002.005-.003"/>
        <path fill="#FFFFFE" d="M83.425 72.582l.531-.628v.609l-.531.682v-.663M86.337 69.138v.367l-2.026 2.604v-.575l2.026-2.396M83.425 73.924l.531-.67v.61l-.531.725v-.665M86.337 70.252v.367l-2.026 2.761v-.572l2.026-2.556M86.337 68.046v.369l-1.228 1.5v-.493l1.228-1.376"/>
        <path fill="#030617" d="M85.17 54.682v.005l-.005-.002.005-.003"/>
        <path fill="#FFFFFE" d="M20.789 41.97h.735v-.735h-.735zM22.07 41.97h.734v-.735h-.734zM23.35 41.97h.736v-.735h-.735zM25.913 41.97h.735v-.735h-.735zM27.194 41.97h.735v-.735h-.735zM20.789 43.287h.735v-.735h-.735zM22.07 43.287h2.016v-.735H22.07zM20.789 44.603h.735v-.734h-.735zM23.35 44.603h3.298v-.734H23.35zM27.194 44.603h.735v-.734h-.735zM20.789 45.92h.735v-.735h-.735zM22.07 45.92h.734v-.735h-.734zM24.632 45.92h3.297v-.735h-3.297zM22.07 47.237h.734v-.735h-.734zM23.35 47.237h.736v-.735h-.735zM27.194 47.237h.735v-.735h-.735zM20.789 48.554h.735v-.735h-.735zM23.35 48.554h.736v-.735h-.735zM25.913 48.554h.735v-.735h-.735zM22.07 49.87h.734v-.735h-.734zM24.632 49.87h.735v-.735h-.735zM27.194 49.87h2.08v-.735h-2.08zM20.789 51.187h.735v-.735h-.735zM23.35 51.187h3.298v-.735H23.35zM22.07 52.504h.734v-.735h-.734zM24.632 52.504h.735v-.735h-.735zM25.913 52.504h.735v-.735h-.735zM22.07 53.82h.734v-.734h-.734zM24.632 53.82h.735v-.734h-.735zM20.789 55.137h.735v-.735h-.735zM23.35 55.137h.736v-.735h-.735zM27.194 55.137h.735v-.735h-.735zM20.789 56.454h.735v-.735h-.735zM22.07 56.454h.734v-.735h-.734zM20.789 57.77h.735v-.734h-.735zM23.35 57.77h3.298v-.734H23.35zM27.194 57.77h.735v-.734h-.735zM22.07 59.087h.734v-.734h-.734zM22.07 60.404h.734v-.735h-.734zM24.632 60.404h.735v-.735h-.735zM27.194 60.404h.735v-.735h-.735zM20.789 61.72h.735v-.734h-.735zM23.35 61.72h.736v-.734h-.735zM25.913 61.72h2.016v-.734h-2.016zM20.789 63.038h2.015v-.735H20.79zM24.632 63.038h.735v-.735h-.735zM23.35 64.355h.736v-.736h-.735zM25.913 64.355h.735v-.736h-.735zM27.194 64.355h.735v-.736h-.735zM20.789 65.671h.735v-.735h-.735zM22.07 65.671h.734v-.735h-.734zM23.35 65.671h.736v-.735h-.735zM27.194 65.671h.735v-.735h-.735zM20.789 66.988h.735v-.735h-.735zM23.35 66.988h.736v-.735h-.735zM25.913 66.988h.735v-.735h-.735zM22.07 68.305h.734v-.735h-.734zM24.632 68.305h.735v-.735h-.735zM27.194 68.305h.735v-.735h-.735zM20.789 69.621h.735v-.735h-.735zM23.35 69.621h.736v-.735h-.735zM28.538 41.97h.735v-.735h-.735zM29.82 41.97h.734v-.735h-.734zM32.382 41.97h.735v-.735h-.735zM33.663 41.97h.734v-.735h-.734zM34.944 41.97h.735v-.735h-.735zM28.538 43.287h.735v-.735h-.735zM31.1 43.287h.735v-.735H31.1zM33.663 43.287h.734v-.735h-.734zM29.82 44.603h3.297v-.734H29.82zM34.944 44.603h.735v-.734h-.735zM28.538 45.92h.735v-.735h-.735zM32.382 45.92h2.015v-.735h-2.015zM34.944 45.92h.735v-.735h-.735zM28.538 47.237h.735v-.735h-.735zM29.82 47.237h2.015v-.735H29.82zM32.382 47.237h.735v-.735h-.735zM34.944 47.237h.735v-.735h-.735zM28.538 48.554h.735v-.735h-.735zM31.1 48.554h.735v-.735H31.1zM32.276 48.554h2.121v-.735h-2.121zM29.82 49.87h.734v-.735h-.734zM33.663 49.87h.734v-.735h-.734zM34.944 49.87h.735v-.735h-.735zM28.538 51.187h.735v-.735h-.735zM31.1 51.187h.735v-.735H31.1zM32.382 51.187h.735v-.735h-.735zM34.944 51.187h.735v-.735h-.735zM29.82 52.504h.734v-.735h-.734zM32.382 52.504h.735v-.735h-.735zM33.663 52.504h.734v-.735h-.734zM34.944 52.504h.735v-.735h-.735zM28.538 53.82h3.297v-.734h-3.297zM32.382 53.82h.735v-.734h-.735zM34.944 53.82h.735v-.734h-.735zM32.382 55.137h2.015v-.735h-2.015zM34.944 55.137h.735v-.735h-.735zM25.913 56.454h3.36v-.735h-3.36zM32.382 56.454h.735v-.735h-.735zM34.944 56.454h.735v-.735h-.735zM29.82 57.77h.734v-.734h-.734zM31.1 57.77h.735v-.734H31.1zM33.717 57.77h1.962v-.734h-1.962zM29.82 59.087h.734v-.734h-.734zM32.382 59.087h.735v-.734h-.735zM33.663 59.087h.734v-.734h-.734zM34.944 59.087h.735v-.734h-.735zM29.82 60.404h3.297v-.735H29.82zM34.944 60.404h.735v-.735h-.735zM28.538 61.72h.735v-.734h-.735zM34.944 61.72h.735v-.734h-.735zM28.538 63.038h.735v-.735h-.735zM29.82 63.038h.734v-.735h-.734zM32.382 63.038h.735v-.735h-.735zM33.717 63.038h1.962v-.735h-1.962zM31.1 64.355h.735v-.736H31.1zM33.663 64.355h.734v-.736h-.734zM34.944 64.355h.735v-.736h-.735zM28.538 65.671h.735v-.735h-.735zM29.82 65.671h.734v-.735h-.734zM31.1 65.671h.735v-.735H31.1zM34.944 65.671h.735v-.735h-.735zM28.538 66.988h.735v-.735h-.735zM31.1 66.988h.735v-.735H31.1zM33.663 66.988h.734v-.735h-.734zM29.82 68.305h.734v-.735h-.734zM32.382 68.305h.735v-.735h-.735zM34.944 68.305h.735v-.735h-.735zM28.538 69.621h.735v-.735h-.735zM31.1 69.621h.735v-.735H31.1zM34.944 69.621h.735v-.735h-.735zM23.35 70.896h.736v-.736h-.735zM27.194 70.896h.735v-.736h-.735zM28.538 70.896h.735v-.736h-.735zM31.1 70.896h.735v-.736H31.1zM20.789 72.11h.735v-.736h-.735zM22.07 72.11h.734v-.736h-.734zM25.913 72.11h.735v-.736h-.735zM28.538 72.11h.735v-.736h-.735zM34.944 72.11h.735v-.736h-.735zM27.194 73.281h.735v-.735h-.735zM24.632 73.281h.735v-.735h-.735zM33.663 73.281h.734v-.735h-.734zM34.944 73.281h.735v-.735h-.735zM20.789 74.45h.735v-.736h-.735zM29.82 74.45h.734v-.736h-.734zM23.35 74.45h.736v-.736h-.735zM32.382 74.45h.735v-.736h-.735zM34.944 74.45h.735v-.736h-.735zM20.789 75.617h.735v-.735h-.735zM24.632 75.617h.735v-.735h-.735zM22.07 75.617h.734v-.735h-.734zM31.1 75.617h.735v-.735H31.1zM32.381 75.617h.736v-.735h-.736zM20.789 76.785h.735v-.734h-.735zM29.82 76.785h.734v-.734h-.734zM24.632 76.785h.735v-.734h-.735zM27.194 76.785h.735v-.734h-.735zM34.944 76.785h.735v-.734h-.735zM20.789 78.014h.735v-.735h-.735zM29.82 78.014h.734v-.735h-.734zM24.632 78.014h.735v-.735h-.735zM28.538 78.014h.735v-.735h-.735zM34.944 78.014h.735v-.735h-.735zM29.82 79.167h.734v-.735h-.734zM23.35 79.167h.736v-.735h-.735zM27.194 79.167h.735v-.735h-.735zM20.789 80.32h.735v-.735h-.735zM27.194 80.32h.735v-.735h-.735zM34.944 80.32h.735v-.735h-.735zM29.82 81.473h.734v-.735h-.734zM24.632 81.473h.735v-.735h-.735zM20.789 82.626h.735v-.735h-.735zM27.194 82.626h.735v-.735h-.735zM34.944 82.626h.735v-.735h-.735zM20.789 83.96h.735v-.734h-.735zM34.944 83.96h.735v-.734h-.735zM27.194 85.295h.735v-.734h-.735zM34.944 85.295h.735v-.734h-.735zM20.789 86.63h.735v-.734h-.735zM28.538 86.63h.735v-.734h-.735zM27.194 87.965h.735v-.734h-.735zM27.194 89.24h.735v-.735h-.735zM34.944 87.965h.735v-.734h-.735zM36.762 89.24h-.485V41.603l.485.77V89.24M37.633 80.73h-.386V42.802l.386.77V80.73M38.4 77.148h-.242V44.074l.243.77v32.304"/>
    </g>
</svg>
