<?xml version="1.0" encoding="UTF-8"?>
<svg width="73px" height="59px" viewBox="0 0 73 59" version="1.1" xmlns="http://www.w3.org/2000/svg" xmlns:xlink="http://www.w3.org/1999/xlink">
    <!-- Generator: sketchtool 53 (72520) - https://sketchapp.com -->
    <title>DDCC7FD6-E3D7-47B7-884A-7862FD893143</title>
    <desc>Created with sketchtool.</desc>
    <g id="top-estate" stroke="none" stroke-width="1" fill="none" fill-rule="evenodd">
        <g id="продавцам" transform="translate(-584.000000, -732.000000)" fill="#B9A787" fill-rule="nonzero">
            <g id="camera" transform="translate(584.000000, 731.406250)">
                <path d="M61.6795401,10.4068341 L50.6143213,10.4068341 L48.2388838,2.11884346 C47.9802745,1.21603972 47.1525557,0.59375 46.2107901,0.59375 L26.2420401,0.59375 C25.3002745,0.59375 24.4725557,1.21603972 24.2138057,2.11884346 L21.8385088,10.4068341 L20.4764151,10.4068341 L20.4764151,7.18253505 C20.4764151,6.02122664 19.5319776,5.07973131 18.3670401,5.07973131 L9.36704009,5.07973131 C8.20210259,5.07973131 7.25766509,6.02122664 7.25766509,7.18253505 L7.25766509,11.0096379 C3.16575884,12.456507 0.226415094,16.352021 0.226415094,20.9208528 L0.226415094,30.59375 L22.8874307,30.59375 C28.2282276,19.4162266 44.2063213,19.3778154 49.5653995,30.59375 L72.2264151,30.59375 L72.2264151,20.9208528 C72.2264151,15.1234229 67.495087,10.4068341 61.6795401,10.4068341 Z M64.3514151,19.9395444 C64.3514151,21.0234696 63.4699776,21.9021612 62.3826651,21.9021612 L54.2264151,21.9021612 C53.1391026,21.9021612 52.2576651,21.0234696 52.2576651,19.9395444 L52.2576651,19.6591706 C52.2576651,18.5752453 53.1391026,17.6965537 54.2264151,17.6965537 L62.3826651,17.6965537 C63.4699776,17.6965537 64.3514151,18.5752453 64.3514151,19.6591706 L64.3514151,19.9395444 Z" id="Shape"></path>
                <path d="M50.2264151,38.59375 L72.2264151,38.59375 L72.2264151,34.59375 L50.2264151,34.59375 C50.433864,35.92415 50.4341533,37.26135 50.2264151,38.59375 Z" id="Path"></path>
                <path d="M22.2264151,34.59375 L0.226415094,34.59375 L0.226415094,38.59375 L22.2264151,38.59375 C22.0191109,37.26335 22.0186769,35.92615 22.2264151,34.59375 Z" id="Path"></path>
                <path d="M36.2264151,46.59375 C41.7404151,46.59375 46.2264151,42.10775 46.2264151,36.59375 C46.2264151,31.07975 41.7404151,26.59375 36.2264151,26.59375 C30.7124151,26.59375 26.2264151,31.07975 26.2264151,36.59375 C26.2264151,42.10775 30.7124151,46.59375 36.2264151,46.59375 Z" id="Path"></path>
                <path d="M22.8874307,42.59375 L0.226415094,42.59375 L0.226415094,48.96875 C0.226415094,54.827375 4.95774322,59.59375 10.7732901,59.59375 L61.6795401,59.59375 C67.495087,59.59375 72.2264151,54.827375 72.2264151,48.96875 L72.2264151,42.59375 L49.5653995,42.59375 C44.2246026,53.8894 28.2465088,53.9282167 22.8874307,42.59375 Z" id="Path"></path>
            </g>
        </g>
    </g>
</svg>