<?xml version="1.0" encoding="UTF-8"?>
<svg width="108px" height="109px" viewBox="0 0 108 109" version="1.1" xmlns="http://www.w3.org/2000/svg" xmlns:xlink="http://www.w3.org/1999/xlink">
    <!-- Generator: sketchtool 53 (72520) - https://sketchapp.com -->
    <title>1DD717B1-B3AA-420A-B30A-01EF3A123C1C</title>
    <desc>Created with sketchtool.</desc>
    <g id="top-estate" stroke="none" stroke-width="1" fill="none" fill-rule="evenodd">
        <g id="продавцам" transform="translate(-282.000000, -2628.000000)" fill="#B9A787" fill-rule="nonzero">
            <g id="campaign" transform="translate(282.000000, 2628.000000)">
                <polygon id="Path" points="0.485849057 50 9.48584906 50 9.48584906 61 0.485849057 61"></polygon>
                <path d="M21.4858491,66 L30.4858491,66 L30.4858491,73.3483877 C30.4858491,75.3651091 28.8806354,77 26.9005225,77 L21.4858491,77 L21.4858491,66 Z" id="Path"></path>
                <polygon id="Path" points="36.4858491 48.5044417 70.4858491 33 70.4858491 78 36.4858491 62.4955585"></polygon>
                <polygon id="Path" points="12.4858491 66 23.4858491 66 23.4858491 87 12.4858491 87"></polygon>
                <path d="M94.4193496,2 L79.4858491,16.9338908 L79.4858491,30 L92.5523485,30 L107.485849,15.0669455 L94.4193496,2 Z M87.8861,24.3999999 C86.3393233,24.3999999 85.0860164,23.1467304 85.0860164,21.6 C85.0860164,20.0541057 86.3393233,18.8 87.8861,18.8 C89.4320404,18.8 90.6861835,20.0541057 90.6861835,21.6 C90.6861835,23.1467304 89.4320404,24.3999999 87.8861,24.3999999 Z" id="Shape"></path>
                <path d="M12.8714551,42 L32.1010829,42 C35.0747975,42 37.4858491,44.3881371 37.4858491,47.3335893 L37.4858491,62.6664109 C37.4858491,65.6118631 35.0747975,68 32.1010829,68 L12.8714551,68 C9.89690081,68 7.48584906,65.6118631 7.48584906,62.6664109 L7.48584906,47.3335893 C7.48584906,44.3881371 9.89690081,42 12.8714551,42 Z" id="Path"></path>
                <path d="M89.4021067,74 L76.4858491,86.9167348 L94.5695914,105 L107.485849,92.0840833 L89.4021067,74 Z M90.5532546,92.6134175 C89.6549175,92.5438759 88.9414838,91.8296428 88.8727586,90.9313294 L87.9956934,79.5404186 L91.638132,79.2606159 L92.3941099,89.0921591 L102.427997,89.8628433 L102.149005,93.5051858 L90.5532546,92.6134175 Z" id="Shape"></path>
                <path d="M101.485849,43.4999999 C101.485849,46.5382203 99.0238855,49 95.9854384,49 C92.9478126,49 90.4858491,46.5382203 90.4858491,43.4999999 C90.4858491,40.4626008 92.9478126,38 95.9854384,38 C99.0238855,38 101.485849,40.4626008 101.485849,43.4999999 Z" id="Path"></path>
                <path d="M94.1462264,52 L97.8271512,52 C100.952956,52.0008398 103.485849,54.5354124 103.485849,57.6603774 L103.485849,67 L88.4858491,67 L88.4858491,57.6603774 C88.4858491,54.5345726 91.0204215,52 94.1462264,52 L94.1462264,52 Z" id="Path"></path>
                <path d="M86.4858491,45.4999999 C86.4858491,47.4330347 84.9188837,49 82.985849,49 C81.0528144,49 79.4858491,47.4330347 79.4858491,45.4999999 C79.4858491,43.5669653 81.0528144,42 82.985849,42 C84.9188837,42 86.4858491,43.5669653 86.4858491,45.4999999 L86.4858491,45.4999999 Z" id="Path"></path>
                <path d="M83.985849,52 C87.0232482,52 89.4858491,54.4626008 89.4858491,57.5000001 L89.4858491,63 L78.4858491,63 L78.4858491,57.5000001 C78.4858491,54.4626008 80.9484497,52 83.985849,52 Z" id="Path"></path>
                <path d="M70.4858491,2.63776556 L67.8480564,0 L56.4521573,11.3924404 C50.6551963,7.05437291 42.438518,8.23664654 38.100406,14.0335481 C33.762294,19.8304496 34.94458,28.0470435 40.741541,32.385111 C46.5393374,36.7240139 54.7551801,35.5409046 59.0941275,29.7440033 C62.5791555,25.0867635 62.5791555,18.6907876 59.0941275,14.0335481 L70.4858491,2.63776556 Z M48.647399,31.1660738 C43.4954734,31.1660738 39.3194556,26.9900991 39.3194556,21.8390616 C39.3194556,16.6871888 43.4954734,12.511214 48.647399,12.511214 C53.7984894,12.511214 57.9745069,16.6871888 57.9745069,21.8390616 C57.9686581,26.9875925 53.7959827,31.1593896 48.647399,31.1660738 Z" id="Shape"></path>
                <path d="M50.906641,78 L43.5386543,78 L32.4858491,88.9412725 L52.7490502,109 L67.4858491,94.4119089 L50.906641,78 Z M42.235849,91.2992491 L49.6046609,84.0047951 L52.2094464,86.5832959 L44.8406344,93.8777499 L42.235849,91.2992491 Z M50.3670372,99.3483863 L47.7622517,96.7698853 L55.1310635,89.4754315 L57.7358491,92.0539323 L50.3670372,99.3483863 Z" id="Shape"></path>
            </g>
        </g>
    </g>
</svg>