<?xml version="1.0" encoding="UTF-8"?>
<svg width="62px" height="60px" viewBox="0 0 62 60" version="1.1" xmlns="http://www.w3.org/2000/svg" xmlns:xlink="http://www.w3.org/1999/xlink">
    <!-- Generator: sketchtool 53 (72520) - https://sketchapp.com -->
    <title>F8410CF7-2F33-4C34-8C42-24523498B9EA</title>
    <desc>Created with sketchtool.</desc>
    <g id="top-estate" stroke="none" stroke-width="1" fill="none" fill-rule="evenodd">
        <g id="покупателям" transform="translate(-436.000000, -573.000000)" fill="#B9A787" fill-rule="nonzero">
            <g id="contract" transform="translate(436.000000, 573.000000)">
                <polygon id="Path" points="32.7244898 7 42.7244898 7 32.7244898 1"></polygon>
                <path d="M43.7244898,48.7316895 L42.2647393,50.1718139 L27.1438397,55.1467896 L31.4850432,42.3046875 L7.85156162,42.3046875 L7.85156162,38.7890625 L33.6463648,38.7890625 L43.7244898,28.8446045 L43.7244898,10.546875 L29.4703461,10.546875 L29.4703461,0 L0.724489796,0 L0.724489796,60 L43.7244898,60 L43.7244898,48.7316895 Z M11.4150975,17.6953125 L33.0338821,17.6953125 L33.0338821,21.2109375 L11.4150975,21.2109375 L11.4150975,17.6953125 Z M7.85156162,24.7265625 L36.597418,24.7265625 L36.597418,28.2421875 L7.85156162,28.2421875 L7.85156162,24.7265625 Z M7.85156162,31.7578125 L36.597418,31.7578125 L36.597418,35.2734375 L7.85156162,35.2734375 L7.85156162,31.7578125 Z M18.7797384,52.8515625 L7.85156162,52.8515625 L7.85156162,49.3359375 L18.7797384,49.3359375 L18.7797384,52.8515625 Z" id="Shape"></path>
                <polygon id="Path" points="35.162963 41.7190131 32.7244898 49 40.0054767 46.5615268 49.7244898 36.8764995 44.8479903 32"></polygon>
                <path d="M55.9208622,21.9921178 L48.7244898,29.1835084 L53.5447599,34 L60.7411321,26.8090509 C62.0529386,25.4981525 62.0516126,23.3016911 60.7411321,21.9921178 C59.4173921,20.6692941 57.2446022,20.6692941 55.9208622,21.9921178 Z" id="Path"></path>
            </g>
        </g>
    </g>
</svg>