<svg xmlns="http://www.w3.org/2000/svg" width="35" height="32" viewBox="0 0 35 32">
    <g fill="none" fill-rule="evenodd">
        <path fill="#B0B0B0" fill-rule="nonzero" d="M14.75 19.5a.75.75 0 1 0 0-1.5.75.75 0 0 0 0 1.5z"/>
        <path fill="#B0B0B0" fill-rule="nonzero" d="M17.48 28.679c3.658 0 6.512-2.967 6.512-6.511a6.519 6.519 0 0 0-8.064-6.325.592.592 0 1 0 .28 1.15 5.333 5.333 0 0 1 6.6 5.175c0 3.016-2.45 5.327-5.328 5.327a5.333 5.333 0 0 1-5.327-5.327c0-.903.23-1.825.717-2.67a.592.592 0 0 0-1.026-.592 6.488 6.488 0 0 0-.669 1.63c-.02.111-.206.727-.206 1.632a6.519 6.519 0 0 0 6.511 6.51z"/>
        <path stroke="#B0B0B0" d="M17.25 26.181c1.994-.265 3.308-1.25 3.941-2.953"/>
        <path fill="#B0B0B0" fill-rule="nonzero" d="M1.17 17.542C3.007 15.67 9.612 9.56 17.48 9.56c7.87 0 14.474 6.11 16.31 7.982a.683.683 0 0 0 .976-.956c-1.931-1.969-8.885-8.392-17.286-8.392-8.4 0-15.354 6.423-17.285 8.392a.683.683 0 0 0 .975.956z"/>
        <path fill="#B0B0B0" fill-rule="nonzero" d="M5.268 26.967c3.525 2.478 7.78 4.443 12.212 4.443 4.432 0 8.688-1.965 12.213-4.443 3.094-2.175 5.035-4.321 5.116-4.411a.57.57 0 0 0 0-.776c-.081-.09-2.022-2.236-5.116-4.411-3.525-2.478-7.78-4.444-12.213-4.444-4.431 0-8.688 1.966-12.212 4.444-3.094 2.175-5.035 4.32-5.116 4.41a.57.57 0 0 0 0 .777c.081.09 2.022 2.236 5.116 4.411zm.863-8.643c2.71-1.9 6.878-4.166 11.35-4.166 4.472 0 8.64 2.265 11.349 4.166a33.549 33.549 0 0 1 4.549 3.844 33.549 33.549 0 0 1-4.55 3.844c-2.708 1.9-6.876 4.166-11.349 4.166-4.471 0-8.64-2.266-11.349-4.166a33.521 33.521 0 0 1-4.549-3.844 33.52 33.52 0 0 1 4.55-3.844zM17.48 5.463a.683.683 0 0 0 .683-.683V.683a.683.683 0 1 0-1.365 0V4.78c0 .377.305.683.682.683zM9.037 7.225a.683.683 0 1 0 1.182-.683L8.171 2.994a.683.683 0 1 0-1.183.683l2.049 3.548zM24.992 7.475a.683.683 0 0 0 .932-.25l2.049-3.548a.683.683 0 1 0-1.183-.683l-2.048 3.548a.683.683 0 0 0 .25.933z"/>
    </g>
</svg>
