<svg xmlns="http://www.w3.org/2000/svg" width="81" height="37" viewBox="0 0 81 37">
    <path fill="#33384C" fill-rule="evenodd" d="M1.667 32.425c11.139-1.882 22.407-2.448 33.522-4.752 10.446-2.165 20.522-5.321 30.756-8.215a42.667 42.667 0 0 1 2.926-5.267c-2.536.286-5.08.297-7.58-.235-7.851 3.431-16.689 5.414-24.864 7.312-9.822 2.283-19.998 4.193-30.077 4.821-2.948.184-2.826-4.211 0-4.534 10.115-1.156 20.163-2.138 30.172-4.118 6.829-1.35 13.538-3.44 20.304-5.12-3.286-1.644-6.24-3.96-9.605-5.545-3.836-1.806-1.07-7.62 2.801-6.667 4 .983 6.643 3.948 10.268 5.673 5.19 2.467 11.003.848 16.29-.504 3.51-.896 5.826 3.346 3.452 5.949-5.728 6.278-8.318 13.811-13.111 20.574-1.067 1.505-3.32.965-3.445-.937-.177-2.738.29-5.479 1.177-8.152-9.114 3.842-18.841 6.595-28.39 8.88C25.372 34.193 13.537 37.002 2.284 37c-2.528 0-3.267-4.127-.616-4.575"/>
</svg>
