<svg xmlns="http://www.w3.org/2000/svg" xmlns:xlink="http://www.w3.org/1999/xlink" viewBox="0 0 217.81 50.58"><defs><style>.cls-1{fill:#fff;}.cls-2{mask:url(#mask);}.cls-3{fill:#bc1111;}.cls-4{fill:#c34242;}.cls-5{fill:none;}</style><mask id="mask" x="-1.41" y="-8.73" width="221.01" height="68.43" maskUnits="userSpaceOnUse"><g id="b"><path id="a" class="cls-1" d="M-1.41,1.46,216.88-8.73,219.6,49.5,1.31,59.69Z"/></g></mask></defs><title>Ресурс 1</title><g id="Слой_2" data-name="Слой 2"><g id="Слой_1-2" data-name="Слой 1"><g class="cls-2"><path class="cls-3" d="M4.05,6.68l.57.11c-.16.18-.26.43-.69.35H3.85l.2-.45m-.14,4.08.31.05c.92.17,1.27.63.69,1,0-.33-.93-.35-1.19-.59l.19-.45M7.42,5.63h0a.4.4,0,0,1,.27.22c.07.1.13.2.21.21A.19.19,0,0,0,8.09,6c.48.41-.55.62-1.06.53.36-.4,0-.77.39-.89m-.6,2.3c.07-.21.34-.19.39-.41.33.18.31.55-.27.44l-.12,0m-.49,1.6H6.24C6,9.47,6,9.36,5.8,9.31c.08-.09.24-.08.29-.19.21.09.33.22.24.41m-1.4,5.05H4.87c-.43-.08-.47-.28-.8-.39a.36.36,0,0,1,.36-.13c.27,0,.55.34.5.53m.49-9.33C5.19,5.21,5.2,5.09,5,5c.07-.08.24-.07.29-.18.21.09.33.21.23.4H5.42M25.58.73a.66.66,0,0,0,.52.38,2.34,2.34,0,0,0,.38,0l.41,0a.89.89,0,0,1,.31.11c.29.34-.64.41-1.06.52l-.18,0c-.46-.08-.54-.29-.87-.41.1-.28.21-.55.49-.63M30.7,2.79A4.4,4.4,0,0,1,30,2.73c-.41-.08-.62-.24-.42-.64.25.28,1.4.27,1.15.7m2.79-1.16c.34.44,1,.78,1.1,1.3a1.65,1.65,0,0,1-.58,0,9.87,9.87,0,0,1-1.48-.49c.15-.43.71-.45,1-.79m2.64.14h.09c.23.05.22.17.44.21,0,.1-.17.11-.33.08s-.44-.17-.2-.3m15.62-.06.38.08L52,2l-.38-.07.1-.23m4,.64c.41.08.44.28.27.54-.24-.15-.54-.29-.38-.56l.11,0M57.15.79c.34.07.63.24.41.46a.81.81,0,0,1-.38,0,3.46,3.46,0,0,1-.72-.36c.07-.16.4-.18.69-.13M63.62.34c.56.11.49.41.48.7-.27-.21-.66-.38-.53-.71h0M66,1.42c.22,0,.37.16.27.39a1.49,1.49,0,0,0-.3-.09.73.73,0,0,0-.48.05.76.76,0,0,1-.47.06l-.19-.05c.08-.27.76-.44,1.17-.36M71.14,2.5h0c.13,0,.16.16.1.28a.32.32,0,0,1-.36.19.44.44,0,0,1-.16-.06c0-.25.27-.27.39-.41m1-.42c.66.13.77-.32,1.11-.52h.09c.73.14-.8.67.14.88a.64.64,0,0,0,.18.06c.21,0,.25-.08.3-.21s.09-.25.3-.21l.18.06-.29.67a5.41,5.41,0,0,1-1.27,0c-.52-.1-.91-.32-.89-.72l.15,0M83.69.89c.2.07,0,.25.29.3a2.55,2.55,0,0,1,1.3-.05c.82.15,1.56.6,1.33,1.15a10.36,10.36,0,0,0-2-.61A5.15,5.15,0,0,0,83,1.6c-.44-.47.62-.31.72-.71m16.56,1.69c.57.11.42.62,0,.74a.62.62,0,0,1-.09-.75h0m4.18-1.5c.6.11.67.63.24.77a1.57,1.57,0,0,1-.28-.78h0M104.81,3a.44.44,0,0,1-.27,0c-.38-.07-.51-.73,0-.82h.19c.52.1-.43.66.09.76m3.56-.53.09,0c.35.06.46.21.33.43l-.57-.11.15-.34m1-.89c.68.17.31.67,1.08.82l.21,0a.83.83,0,0,1-.61.09c-.52-.1-1-.56-.68-.94M.68,32.26l.12,0c.28,0,.17.23.11.39-.14-.05-.14-.15-.33-.18h0l.1-.23M3,28c.91.2.4.84.71,1.22a1.28,1.28,0,0,1-.39,0c-.67-.12-.92-.76-.32-1.2M1.62,34.38c.77.22.43,1.54-.48,1.36a.23.23,0,0,1-.11,0c-.24-.36.25-1.06.59-1.33M4.7,28.47a1,1,0,0,1,.32.17,1.27,1.27,0,0,0,.44.18h0c-.07.09-.25.1-.45.06a1.85,1.85,0,0,1-.7-.28.37.37,0,0,1,.34-.14m-.41,2.18-.38-.07.1-.22.38.07-.1.23M.85,34.21c-.09,0-.17-.07-.14-.13s.08-.06.11,0a.27.27,0,0,1,.1.06.51.51,0,0,0,.17.07.25.25,0,0,1-.24.05m1.8,7.25a1.3,1.3,0,0,1-.8-1c.25.34,1.37.41.8,1M3,42.61l.57.11-.1.22-.57-.11c0-.07.07-.14.1-.22M4.55,39l.38.07-.1.23-.38-.08.1-.22m-.31,2c.67.12.17.82-.15.95-.64-.21.33-.54,0-1l.14,0m15.41,6.2h.05c.61.11.74.59.23.76-.51-.14-.69-.64-.28-.77m4.55,1,.58.11c0,.25-.27.27-.39.41-.33-.09-.36-.27-.19-.52m.68.91a.83.83,0,0,1,.35,0l.21.06c.28.34-.18.82-.84.69l-.08,0c0-.19.27-.15.34-.3s-.06-.14-.22-.17h-.08c-.2,0-.37-.09-.13-.26l.11,0a.94.94,0,0,0,.34,0m2.24,0c.09,0,.17.07.14.13a.81.81,0,0,1-.3,0c-.06,0-.09,0-.08-.1a.25.25,0,0,1,.24-.05m7.25-1.56.26.06a3.45,3.45,0,0,1-.2.93c-.45-.28-1.09-.49-.81-1a1.9,1.9,0,0,1,.75,0m4.63,0c.55.22.37,1,.08,1.22H39c-.42-.08-.47-.28-.8-.39.08-.46.45-.62.78-.82m1.19.59c.45.24.43.47.09.74h-.05c-.57-.11-.42-.62,0-.73m3.08.1c.59.13.32.54.23.89a2,2,0,0,1-.54,0c-.39-.08-.72-.29-.61-.69.31-.06.76,0,.92-.18m-.16,1.78-.16,0c-.57-.11-.28-.62.07-.72h.16c.47.09-.09.5-.07.73m1-.71c.35.07.74.31.68.55a1.06,1.06,0,0,1-.5,0c-.37-.07-.66-.31-.51-.57a.91.91,0,0,1,.33,0m5.49-.47c.15,0,.14.15.33.19h0c-.07.08-.24.07-.29.18-.14,0-.14-.14-.33-.18h0c.08-.08.24-.07.29-.19m2.94-1c-.49-.17-.62-.45-.47-.81.49.16.61.44.47.81m4.9-.28c.52.2.39,1.5-.45,1.49.59-.67-.2-1.08.45-1.49m2.92.68c.36.06.47.21.34.42h-.1c-.35-.07-.46-.21-.33-.43l.09,0M71.9,49c.43.08.77.19.56.48a.83.83,0,0,0-.21-.06,1,1,0,0,0-.35,0,.86.86,0,0,1-.45,0,.44.44,0,0,1,0-.49l.44.08m3.41-.8c.8.49-1,.53-.54,1.23-1.13-.27.11-1.09.54-1.23m1.28,1.7a.29.29,0,0,1,.19.15l-.1.23-.19,0c-.26,0-.3-.15-.24-.24a.37.37,0,0,1,.34-.12m2-.11c.32.09.35.27.18.52l-.19,0c-.34-.06,0-.32,0-.5m4.29-1.72.76.14-.29.67a1.15,1.15,0,0,1-.26,0c-.56-.11-.41-.44-.21-.78m.53-1c.36.06.47.21.34.43l-.09,0c-.36-.07-.47-.21-.34-.43l.09,0m4,2.45c-.22-.09-.33-.21-.24-.4.21.09.33.21.24.4m7.54-.14.38.08-.1.22-.38-.07.1-.23m7-.84c-.41.11-.62.44-1.2.38a1.23,1.23,0,0,1,1.2-.38m2.5,0h.18c.16,0,.21.14.16.24a.27.27,0,0,1-.33.14l-.16,0,.15-.34m2.46.85a1.44,1.44,0,0,1,.55.33c-.06.09-.2.1-.35.07a1.65,1.65,0,0,1-.61-.25.4.4,0,0,1,.41-.15m3-1.5c-.11.48-.72.44-1.4.34.16-.43.78-.39,1.4-.34m1.06,0c.64.22,0,.86-.62.74l-.11,0c0-.43.39-.57.73-.71m2.31,1.2c.22,0,.43.2.31.39l-.17,0a2.85,2.85,0,0,1-.55-.23.37.37,0,0,1,.41-.13m.21,1.09s-.09.06-.12,0-.06,0-.09,0a.36.36,0,0,0-.17-.07.24.24,0,0,1,.23-.06c.1,0,.17.07.15.13m1.56-2.12c.55.16.2.38,0,.34s-.16-.11,0-.34m1.57,1.14.23,0c.7.14.28.62.87.79a1.23,1.23,0,0,1-.54,0c-.5-.09-.95-.46-.56-.83m2.74-.08c-.71-.19-1.17-.47-1-.92.67.2,1,.53,1,.92m.21-1.81a3.11,3.11,0,0,1,.41.11,3.68,3.68,0,0,0,.37.11.36.36,0,0,0,.37-.08c.43.18,1.06.31,1,.66a1.77,1.77,0,0,1-.65,0c-.25,0-.51-.13-.79-.21a9,9,0,0,0-.89-.24l-.55-.07a.69.69,0,0,1,.77-.25m1.76,2.06-.37-.06a1.45,1.45,0,0,1-.73-.27c.06-.2.34-.19.39-.41,0,.32.87.37.71.74m-2.79.68c-.49-.1-.27-.5.05-.59.48.1.27.5-.05.59m14-.72.19,0c.34.06,0,.32,0,.5-.33-.09-.36-.27-.19-.52m2.85-1.75h0c.13,0,.16.16.1.28a.32.32,0,0,1-.36.19.44.44,0,0,1-.16-.06c0-.25.26-.27.39-.41m8.67,2,.77.14-.1.22-.76-.14.09-.22m4.15.23s.06,0,.1,0a.42.42,0,0,0,.15.07h0a.25.25,0,0,1-.24.06c-.09,0-.17-.07-.14-.13s.08-.06.11,0m19.59-1.29.58.11-.2.45-.11,0c-.42-.08-.44-.28-.27-.54m4-.81c.22,0,.2.16.17.28L172,48a.17.17,0,0,0-.19.09c-.21-.06-.07-.23,0-.37l.12,0m17.51.07h.05a.16.16,0,0,0,.19-.09h0a.13.13,0,0,1,.1.22.3.3,0,0,1-.32.13.44.44,0,0,1-.16-.06l.1-.22M189.9,49H190c.61.12.74.6.22.77l-.57-.11c-.28-.28.12-.42.29-.67m2.88.55c-.48-.11-.67-.31-.57-.59.15.2.74.28.57.59m4.25-2.1.57.11a1.47,1.47,0,0,1-.1.22l-.57-.1.1-.23m4.51.62a.56.56,0,0,1,.29,0c.16,0,.16.2.43.29,0,.1-.25.11-.46.07s-.51-.18-.26-.32m4.52-1.32c.07.2.54.28.38.56l-.17,0a2.5,2.5,0,0,1-.54-.23.57.57,0,0,0,.33-.3m3.65-1,.3.07c.16.17.05.43-.1.7h0c-.63-.12-.7-.42-.94-.66.11-.19.41-.17.76-.11m3.54-12c.06-.12.29-.14.54-.09.41.08.88.33.71.57h-.07a4.53,4.53,0,0,1-1.18-.47M213,38.65l.26.1a1.61,1.61,0,0,0,.61.15c-.05.1-.2.1-.39.06l-.31-.07-.31-.08-.19,0c.13-.13.22-.16.33-.14m-1.25,6.49a.42.42,0,0,1-.43.14,2.85,2.85,0,0,1-.72-.36c.69-.64-.47-1.08.2-1.41.89.37-.15,1.33.95,1.63m.65-12.32c-.15,0-.15-.15-.34-.19h0c.08-.08.24-.07.29-.18.15,0,.14.14.33.18h0c-.08.08-.25.07-.29.19m1.74-12.72c-.42-.08-.44-.28-.27-.54H214c.42.08.3.33.29.55l-.11,0m1.5-5,.1-.22h.12c.29.06.17.24.12.4-.15-.05-.14-.15-.34-.19m1.29-3.38a1.29,1.29,0,0,0-.63-.24l-.09,0,.19-.44.58.11c-.3.28.14.34,0,.59m-2.57-2.32c-.1,0-.16-.12,0-.34.55.15.2.38,0,.34m-.89-2.57-.39-.07c.08-.09,0-.12-.14-.15s.17-.11.33-.08.44.18.2.3m.23-1.72a.24.24,0,0,1,.09.06.51.51,0,0,0,.17.07.23.23,0,0,1-.23,0c-.1,0-.18-.07-.15-.13s.08-.06.12,0m-2.64,2a.4.4,0,0,1,.19.52c-.33-.09-.35-.27-.19-.52m-14.75-5a.41.41,0,0,1-.23-.13c.06-.26.33-.3.71-.23l.2,0a.67.67,0,0,1-.68.32m-.27-1,.38.07-.19.45-.39-.08.2-.44M178.35,2.7l-.24-.08c.06-.37.46-.38.68-.6.56.15.22.8-.44.68m-9,0a.61.61,0,0,1-.34-.17c.11-.16.34-.19.66-.13l.21,0c0,.23-.3.29-.53.25M169,1.88c0-.06.1-.1.21-.08a.46.46,0,0,1,.26.15.73.73,0,0,1-.37.06c-.1,0-.13-.08-.1-.13m-.11-.65a.14.14,0,0,0-.18.09c-.22-.06-.08-.24-.05-.37h.12c.22,0,.2.16.17.28h-.06M162.11,2.6c-.59-.13-.83-.38-.71-.74.37,0,.57-.13,1-.05h.06c0,.27.13.65-.35.78m-.92.68-.38-.08.1-.22.38.07-.1.23M159.57,3l-.1,0,.24-.56c.48.11.68.3.57.59a1.7,1.7,0,0,1-.71,0M157,.91l-.3-.07c0-.21.17-.22.4-.18l.25.06.26.06.15,0c-.11.19-.41.17-.76.11m-1.32,2.28-.2,0c0-.25.26-.27.39-.41h.09c.23,0,.22.16.44.21-.07.26-.34.31-.72.23m-.32-2.6a2.16,2.16,0,0,1,.3,0c.43.08.51.27.75.41-.7.48-.75.81-.39,1.37a2.54,2.54,0,0,1-.48,0c-1-.19.3-1.23-.18-1.79m-5.26,3-.2,0c-.33-.06,0-.32,0-.5s-1-.28-1-.56a.9.9,0,0,1,.7-.12c.73.14,1.38.92.49,1.2m-2.11-.16c-.23,0-.22-.16-.43-.21.07-.08.24-.07.29-.18.21.09.33.22.23.41l-.09,0m-5.52-.93c-.38-.11-.24-.37-.62-.48.08-.08.24-.07.29-.19.38.11.24.38.62.49-.08.08-.24.07-.29.18m-2-.14c-.24-.09-.22-.25-.48-.33,0-.35.4-.24.44-.52a.48.48,0,0,1,0,.85m-3.51-.54,1.54.29c0,.38.41.64.37,1-.51-.49-1.95-.68-1.91-1.33m-2.16.67c-.34-.28-.43-.64-1.1-.81l.24-.56c.77.28,1.45,1,.86,1.37m-4.67,1.17c-.23-.63-1.27-1-2.06-1.48-.5.16.07.47.33.67a.6.6,0,0,1-.35,0l-.18,0a2.44,2.44,0,0,0-.66-.09c-.34-.66.73-.57,1.2-.85.85.6,2.76.85,3.64,1.65a13,13,0,0,1-1.92.12m-8.53-2.1c-.23,0-.22-.16-.43-.21.07-.08.24-.07.29-.18.21.09.33.22.23.41l-.09,0M119.33,2l-.19.13h-.3a1.15,1.15,0,0,1-.26,0,.8.8,0,0,1-.6-.37l-.26-.06,0-.28a.41.41,0,0,1,.3-.31,1.16,1.16,0,0,1,.62,0,1.21,1.21,0,0,1,.78.46.38.38,0,0,1-.13.51M214.8,39.17l.37.09a.78.78,0,0,1-.45.06c-.13,0-.22-.09-.23-.13s.09-.06.31,0m.9-.17h.17c.17,0,.22.14.17.24a.29.29,0,0,1-.34.14l-.15,0,.15-.34m-1,4.64c-.15.48-.44.39-.34.79l-.08,0c-.66-.12-.38-.78-.15-.87l.57.1M2,10.29a.48.48,0,0,1-.31.09.49.49,0,0,1-.28-.25L1.39,10a2.92,2.92,0,0,0-.16,1l.15,2.57c0,.47.06,1.23.07,1.69l0,2.57a7.28,7.28,0,0,1-.2,1.68L.61,22.13a6.35,6.35,0,0,0-.16,1.68l.13,2c.31.1.21.32.2.52H.67l-.05,0v.05a8,8,0,0,1-.1,1.69L.07,30.64a5.91,5.91,0,0,0,0,1.68L.49,34.9a10.56,10.56,0,0,1,.13,1.68l0,2.57c0,.46,0,1.22,0,1.69l0,.56.22-.29.6.25c.88.37,1.73.86,1.35,1.7l-.11.26H2.22a3.16,3.16,0,0,1-.32,0c-.35-.07-.73-.24-.61-.71h0l0-.11-.12-.05a2.09,2.09,0,0,1-.46-.26l0,1.21a2.16,2.16,0,0,0,.87,1.44l2.52,1.79.42.27a2.05,2.05,0,0,1,.25-.27C4.82,46,3.17,45.44,3.82,45c.5.58,2,1.3,1,2.08l.2.11c.81.26,1.93.31,1.84.91l2,.93a7.78,7.78,0,0,0,.75.27l0-.06.26,0a.55.55,0,0,1,.37.19l.17,0,.62.09,3.2.26a.75.75,0,0,0-.4-.29c.67-.81,0-1.21,0-1.82a.57.57,0,0,1,.29,0,2.09,2.09,0,0,1,.53.21,2.63,2.63,0,0,0,.59.22.89.89,0,0,0,.51,0,3.09,3.09,0,0,0,.32,1.15l2.11.4a.66.66,0,0,0-.12.3l2.86,0c.67,0,1.76,0,2.43,0l3.89.21.67,0a4.9,4.9,0,0,1,.22-.48c.19-.06.55,0,.67-.11.28.07.13.31,0,.58.31,0,.6,0,.83,0l3.92-.28a16.3,16.3,0,0,1,2.2,0c.2-.3.4-.59.33-.85l.12,0c.47.09.3.38.45.57a2.34,2.34,0,0,0-.31.32l3.52.4a17.74,17.74,0,0,0,2.42.07l3.9-.21q1.22,0,2.43,0l3.88.22a18.85,18.85,0,0,0,2.11,0v0l0,0,.27,0L58.88,50c.67-.06,1.76-.1,2.43-.08l3.88.1,1.07,0c.37-.44.26-.89,1.5-.68-.38.31-.57.32-.59.7h.46l3.88.06c.67,0,1.76.05,2.43.08l3.24.16c0-.07-.08-.15-.21-.23.08-.09.27-.06.48,0h.08l.08,0,.18,0a.34.34,0,0,1,.07.22c.8,0,1.6,0,2.4,0l3.9-.22c.67,0,1.77-.07,2.44-.07h3.89c.67,0,1.76,0,2.43.07l3.88.22c.67,0,1.76,0,2.43,0l3.9-.18,2.08-.07c0-.36.46-.27.63-.46.11.15.28.27.33.44l1.35,0,0-.07.18.07,1.71,0a21.66,21.66,0,0,1,2.42.09l3.89.37a21.67,21.67,0,0,0,2.42.06l3.9-.16,2.44-.1,3.9-.14c.67,0,1.76,0,2.43,0l3.89.07h2.43l3.89,0c.67,0,1.76,0,2.43,0l3.88.16c.67,0,1.77,0,2.43,0l3.9-.13c.67,0,1.77,0,2.44,0l3.88.19c.66,0,1.76,0,2.43,0l3.9-.16c.67,0,1.77-.06,2.44-.06l3.88,0c.68,0,1.77,0,2.44,0l3.89,0q1.22,0,2.43-.06l3.91-.23a19.52,19.52,0,0,1,2.42,0l3.89.39c.66.07,1.75.12,2.42.11h1c-.55-.44-1.08-.88-.57-1.65a1,1,0,0,1,.26,0c.57.1.29.47.45.71.62-.08,0-.55.39-.89.34.34,1,.58.76,1.11-.19.13-.75-.13-.87.07s.08.46.29.62h.68a.75.75,0,0,1,.28-.61,1.8,1.8,0,0,1,.49.6H198a14.91,14.91,0,0,0,1.64-.14c-.09-.1-.06-.24,0-.4l.58.11-.09.21.23,0,3.42-.74,1.9-.42-.12,0c-.82-.16-.84-.61-.33-.93.13.33.66.53.63.91l.26-.06,3.49-.79a5.65,5.65,0,0,0,2-.93l.22-.19a.76.76,0,0,0-.45-.22l-.33,0,.25-.55-.19,0c-.27-.05-.44,0-.49.16-.24-.15-.12-.41-.14-.63.44-.15,1.5.36,1.4-.34.91.23.49.72.13,1.11,0,.12,0,.2.19.26l1.13-1c-.17-.14-.28-.29-.15-.53a3.08,3.08,0,0,1,.51.23l.34-.29a4,4,0,0,0,1.09-1.49l.92-2.51a5.05,5.05,0,0,0,.25-1.67l-.16-2.44a1.78,1.78,0,0,1-.86.11,3.78,3.78,0,0,1,0-1.93,1.8,1.8,0,0,1,.73,0l.1,0v0l.13-2.57c0-.46,0-1.23.06-1.69l0-2.57c0-.46,0-1.22,0-1.69l.1-2.56c0-.47.06-1.23.09-1.69l.18-2.57a14.27,14.27,0,0,1,.23-1.69l.5-2.57a13.8,13.8,0,0,0,.22-1.68l.13-2.57a6.28,6.28,0,0,0-.17-1.67L217,7.28a2.8,2.8,0,0,0-1.1-1.39L213.3,4.25c-.59-.38-1.19-.74-1.79-1.1l-2.69-1.59A6,6,0,0,0,207.08,1l-.37,0L203.1.54c-.66-.07-1.75-.12-2.42-.12h-3.89l-2.44,0-3.9,0L188,.54l-3.89.08c-.67,0-1.77,0-2.44,0L177.8.54c-.82,0-1.63,0-2.44.07l-3.9.28c.22.08.33.19.18.38a.7.7,0,0,1-.38,0c-.23,0-.31-.25-.44-.39h-.31c-.2.12-.24.41-.55.4h-.12c-.28-.05-.26-.24-.15-.42-.22,0-.43,0-.65-.06l-3.9-.54a17.62,17.62,0,0,0-2.41-.14L158.84.2c-.67,0-1.77.07-2.43.12l-3.92.29a20.41,20.41,0,0,1-2.22,0c.18.15.09.44.22.47s.14,0,.3-.16c.42.1.29.36.14.63h0a.77.77,0,0,1-.45-.22,1,1,0,0,0-.45-.22,1.73,1.73,0,0,0-.32,0A.66.66,0,0,1,150,.62L148.21.5a.62.62,0,0,0-.2.15.37.37,0,0,1-.18-.17L146.62.4a1.26,1.26,0,0,1,.47.92l.11,0a.78.78,0,0,0,.45-.05.82.82,0,0,1,.46-.05,1.44,1.44,0,0,1,.23.07c-.72.66.33.8-.64,1.45-.33-.87-3-1.19-1.76-2.41-.73,0-1.46-.07-2.19-.08l-2,0a.25.25,0,0,1,0,.31c-1.25-.13-.22.45-.35.79a.49.49,0,0,0-.17-.06.24.24,0,0,0-.26.09.23.23,0,0,1-.26.1.49.49,0,0,1-.17-.06A1.56,1.56,0,0,1,141.1.24h-1.24c-.21,0-.46,0-.72,0a1.2,1.2,0,0,1,.44,1.16v.17l-.89,0-.14.34-.39-.08.2-.44h0c0-.11-.14-.22-.28-.36a1.34,1.34,0,0,1-.47-.69l-.18,0h-.11c.38.43.64,1,.4,1h-.08c-.4-.08-.58-.53-.76-1L133.5.73a19.73,19.73,0,0,1-2.43.07h-.29c.09,0,.17.1.26.15a1.74,1.74,0,0,0,.62.27,1,1,0,0,0,.3,0,.6.6,0,0,1,.58-.23,1.11,1.11,0,0,1,.76,1,9.65,9.65,0,0,1-3.25-1.1l.14-.11-.84,0a2.43,2.43,0,0,1,.32.18,3.29,3.29,0,0,0,.42.21l.61.22-.41.32a1.65,1.65,0,0,1-1.35.35,2,2,0,0,1-.77-.35,1.59,1.59,0,0,0-.55-.28,1.28,1.28,0,0,0-.39,0l-1.29.16.58-.69a.26.26,0,0,0,.07-.12.81.81,0,0,0-.22-.07l-.25-.05c-.45,0-.91,0-1.36,0l-3.9.09-2.37,0a1,1,0,0,1-.8.1,1.39,1.39,0,0,1-.33-.1h-.93c.31.06.53.27.31.6l-1-.18c.09-.12,0-.21-.1-.26a.83.83,0,0,1,.45-.17h-3a.54.54,0,0,1-.1.57l.34.16.38.18.26.13,0,.2a.57.57,0,0,1,0,.14,3.41,3.41,0,0,1,.42,0,1.93,1.93,0,0,1,.53.17l.32.15-.1.23h0c.54.15.21.67-.4.55l-.07,0-.18.1,2.28-.16a2.67,2.67,0,0,0-.4,0c-.29-.32.44-.5.45-1l-.08,0a.32.32,0,0,0-.37.18.33.33,0,0,1-.38.18l-.14,0c.43-.42-.21-.51,0-.86l.53.08a7.51,7.51,0,0,1,3,1.34,14.18,14.18,0,0,1,1.43.09l3.52.49a.61.61,0,0,0-.15-.17c.64-.4.49-1-.27-1.26a2,2,0,0,1,1.59-.5,1.5,1.5,0,0,1,.43.16c-.45.42-.34.58-.49,1.11-.25.34.93.22.57.59h0l-.26,0-.27-.06a1.83,1.83,0,0,0-.83,0c-.08.1-.08.18,0,.24l.13,0a17.47,17.47,0,0,0,2.4.14h0l.07-.15.38.07,0,.08,3.45-.06,1.43-.06c0-.12,0-.24.29-.31h.05c.27,0,.39.14.44.26l.23,0,.45,0h0a.48.48,0,0,1,.31-.06.19.19,0,0,1,.08,0l3.09-.23a21.89,21.89,0,0,1,2.43,0l.52,0c-.39-.18-.62-.41-.61-.71l.2,0,.31.07.31.08c.24,0,.44,0,.43-.18l.58.11c-.34.3-.11.52,0,.69l.75,0c0-.3.44-.67.73-.71l.13,0c.43.08.4.48.18.75l.39,0c.36,0,.85,0,1.32.06a.71.71,0,0,0,.18-.2l.18,0c.18,0,.21.12.16.2H146l3.88.06c.67,0,1.76,0,2.43-.11l3.93-.4a21.91,21.91,0,0,1,2.43-.07l3.88.17c.66,0,1.74,0,2.41,0a2.34,2.34,0,0,1-1.71-2,.92.92,0,0,1,.37,0,4.88,4.88,0,0,1,1.26.55c-.06.52.37.89.18,1.45L168,3.31c-.12-.14-.14-.31,0-.54l.23,0a.66.66,0,0,1,.28.13.7.7,0,0,0,.29.13H169l-.1.23h0c.67,0,1.77,0,2.44,0l3.88,0c.67,0,1.77,0,2.44,0l3.89,0H184l3.89-.08,2.44,0h3.89l2.44,0,3.88,0a18.78,18.78,0,0,1,2.39.21l3.24.53h.07a4.3,4.3,0,0,1,1.83.84l1.88,1.73a11.08,11.08,0,0,1,1.27,1.4l1.41,1.91a2.32,2.32,0,0,1,.37,1.58L212.45,14c-.09.46-.21,1.22-.25,1.68L212,18.26a8.56,8.56,0,0,0,.05,1.68l.39,2.58a4.61,4.61,0,0,1,0,1,.81.81,0,0,1,.47,0c.29.05.53.22.33.43l-.26,0a1.64,1.64,0,0,1-.56-.2,3.42,3.42,0,0,1-.09.53l-.67,2.58a6,6,0,0,0-.15,1.68l.22,2.57a13.6,13.6,0,0,1,0,1.69l-.22,2.56a5.83,5.83,0,0,0,0,.59.28.28,0,0,0,.17-.3h.09c.23,0,.22.16.44.21a.86.86,0,0,1-.71.48c0,.26,0,.51,0,.7l.2,2.57a3.2,3.2,0,0,1-.42,1.63l-1.32,2.18a5.08,5.08,0,0,1-1.38,1.35,3.7,3.7,0,0,0,.77.34.93.93,0,0,1-.7.11,2.3,2.3,0,0,1-.5-.18l-.67.41a.82.82,0,0,1,.18.67l-.32,0a1.45,1.45,0,0,1-.54-.19l-.77.48a5,5,0,0,1-2.14.6l-3.25.09c-.67,0-1.76.08-2.43.14l-3.94.38a13.86,13.86,0,0,1-2.41,0l-3.9-.42A17.64,17.64,0,0,0,185.5,47l-3.91.2-2.44.1-3.9.12a21.82,21.82,0,0,1-2.42-.08L168.94,47a19.51,19.51,0,0,0-2.42-.06l-3.9.22c-.81,0-1.62,0-2.43,0l-3.88-.24a19.71,19.71,0,0,0-2.43.05l-3.93.4c-.67.07-1.76.14-2.43.15l-3.9.06c-.67,0-1.75-.05-2.41-.12l-3.9-.46a14.9,14.9,0,0,0-2.41,0l-3.92.31c-.81.05-1.62.07-2.43,0l-3.88-.17c-.81,0-1.62,0-2.43,0l-3.9.12c-.67,0-1.77,0-2.44,0l-3.89,0c-.67,0-1.76,0-2.43-.05L105.7,47h0a1.12,1.12,0,0,0-.25.77,5.18,5.18,0,0,1-1.05-.44.51.51,0,0,1,.19-.35c-.43,0-.86,0-1.3,0l-3.91.28-.58,0a2.08,2.08,0,0,1,.11.66l-.33,0c-.54-.1-.75-.34-.84-.64-.26,0-.52,0-.77,0l-1.36-.15a.52.52,0,0,1-.1.11.8.8,0,0,1-.23,0c-.12,0-.14-.08-.11-.15l-2.1-.24a16.54,16.54,0,0,0-2.11-.08.68.68,0,0,1-.39.39l-.23,0A.59.59,0,0,1,90,47a.59.59,0,0,0-.29-.13h-.11v0L86.73,47q-1.22.06-2.43,0l-3.88-.21-1,0c.06.31-.26.73-.22,1a.8.8,0,0,1-.5-1l-.75.05-3.93.37a21.93,21.93,0,0,1-2.43.09l-1.18,0c.54.28.9.63.62,1.17l-.23,0c-.77-.15-.54-.6-1.06-.82,0-.3.41-.18.55-.33l-2.58-.07-2.43,0-3.89-.06L59,47l-3.88-.2c-.81,0-1.62,0-2.43,0L48.79,47q-1.22.06-2.43.06H42.65c.32.11.58.38.48.63-.33-.07-.37.18-.71.12l-.15,0c.18-.3-.25-.41-.11-.71-.71,0-1.41,0-2.12-.06l-3-.17c0,.15,0,.3,0,.44-.61-.05-.8.34-1.48.21l-.06,0c-.16-.17,0-.43.11-.7h0a1.64,1.64,0,0,1-.73,0h-.74c-.09.11-.13.26-.31.28a1.25,1.25,0,0,0-.26-.07,1.52,1.52,0,0,0-.47,0,1.78,1.78,0,0,1-.46,0h0l-.08-.1-2.76.12-2,.08c-.29.5.67.84,0,1.14a11.16,11.16,0,0,1-1.44-1.11l-1.35,0a1.83,1.83,0,0,1-.13.16,1,1,0,0,1-.24-.15l-1.1,0q-1.21,0-2.43-.09l-3.88-.37-.94-.09H16.2c.13.41.61.71.51,1.19a.92.92,0,0,0-.27-.08,1,1,0,0,0-.54,0,.92.92,0,0,1-.54.05l-.28-.08c1-.2.08-.62-.46-.72a.71.71,0,0,0-.25,0,.77.77,0,0,1-.36-.62l-2.11-.22-.4-.06c-.21,0-.43-.09-.64-.15a.3.3,0,0,1-.09.25l-.54-.1c-.53-.1-.93-.24-.6-.61h0l-.37-.2c.08.4-.3.94-.4,1.4-1.35-.4-.24-1.15-.05-1.64l-1.52-.8A3.09,3.09,0,0,1,6.1,42.94c-.35-.13-.46-.34-.28-.64l0,0-.09-.26-.63-.12.14-.34a1.55,1.55,0,0,1,.31,0l-.28-.76a5.16,5.16,0,0,1-.27-1.66l.07-2.56a15.82,15.82,0,0,1,.14-1.69l.36-2.57a12,12,0,0,0,.09-1.69l0-2.57a11.56,11.56,0,0,1,.1-1.66l0,.05L5,26.31c0-.23.3-.29.53-.25a.42.42,0,0,1,.3.19l.38-2.43a10.7,10.7,0,0,0,.09-1.69l-.1-2.57c0-.46,0-1.22,0-1.69l.1-2.56c0-.47.06-1.23.1-1.7l.19-2.56a6.84,6.84,0,0,1,.37-1.67l.82-2.21A2.66,2.66,0,0,1,9.11,5.91l2.83-1.16a12.55,12.55,0,0,1,2.26-.64l2.93-.48c.66-.11,1.74-.23,2.41-.26l3.91-.16c.67,0,1.76-.06,2.43-.06h3.9l2.44,0,3.22-.06c-.14-.11-.22-.25-.13-.38l.08,0a.86.86,0,0,1,.45.21.82.82,0,0,0,.23.14h0l2.44,0h6.33l3.89,0c.67,0,1.76,0,2.42.1l3.88.27c.81,0,1.62.08,2.43.08h1.27l-.6-.15q-.44-.08-.87-.12c0-.32-.95-.64-.23-.89l.27,0c.56.11.22.5.69.64l.11,0a1.23,1.23,0,0,0,1.33-.47h0a.87.87,0,0,1,.52.29.75.75,0,0,0,.51.3,1.65,1.65,0,0,0,.34,0c-.08.24-.33.28-.59.32h1.12l2.43,0h0c.11-.43.44-.63,1.06-.53a.86.86,0,0,1-.69.55l2.53,0a1.07,1.07,0,0,1,.11-.46c-.57-.13-.31-.52-.16-.88.18,0,.09.17.09.26.23,0,.25-.17.34-.3l.58.11a.45.45,0,0,1-.31.29l.39.08c.77.18.91.57.91.9.52,0,1.06-.06,1.46-.11L74.08,3a12,12,0,0,1,2.4,0l3.9.48a21.49,21.49,0,0,0,2.41.12l3.9-.06,2.43,0H93l2.44,0,3.38,0A.62.62,0,0,0,99,3.06l.57.11c0,.12-.07.23-.09.32l2.35,0h.57c-.54-.28.37-1,.64-1.06.23.16,0,.84-.35,1.05l3-.06h.06c0-.57-.16-1.06.39-1.49l.06,0a4.4,4.4,0,0,1,1.18.46,1.53,1.53,0,0,0-.44,1h1.19l3.88.08h.7l-.9-.21-.45-.12-.5-.12.1-.3a.77.77,0,0,1,.64-.45,1.52,1.52,0,0,1,0-1.5h-.66l.27.05-.15.33h-.09c-.32-.06-.44-.19-.36-.38l-2.35,0h-.06l.13,0c-.38.42-1.54,0-1.74.63-.31-.18-.66-.36-.69-.64h-.08L101.89.8l-2.44,0H95.56l-2.43,0L91.3.79c0,.27.19.59.17.85a5.51,5.51,0,0,1-.9-.1A16.35,16.35,0,0,1,88.11.76h-1.3l-3.89,0a24,24,0,0,1-2.4-.16l-3.9-.5a11.33,11.33,0,0,0-2.4,0H74.1c0,.11-.2.13-.37.1l-.13,0-3.33.4-.14,0c-.31.56.42,1.05.25,1.8-1-.32-.71-1.06-.95-1.63a1.28,1.28,0,0,0,.65-.17,15,15,0,0,1-2.22,0L64,.3C63.16.24,62.36.2,61.55.18l-1.63,0-.24.53a1.74,1.74,0,0,1-.84,0L58.48.58a2.57,2.57,0,0,1,.66-.45L57.66.1q-1.21,0-2.43.09L51.3.55a14.92,14.92,0,0,1-2.41,0L45,.16a17.75,17.75,0,0,0-2.42,0L42,.15s0,.05,0,.08L41.86.16l-3.19.2q-1.22.07-2.43.06L32.36.35c-.82,0-1.63,0-2.44.05L28.11.51a.14.14,0,0,1,0,.11l-.6-.08L26,.63c-.67,0-1.76.05-2.43,0L19.7.51h-.54c0,.08,0,.15,0,.22A.24.24,0,0,0,19,.58c-.28,0-.72.23-.34.4a.45.45,0,0,1-.29.07c-.2,0-.26-.28-.19-.5-.31,0-.61,0-.85.09l-3.35.5c-.66.1-1.73.3-2.37.46l-3.45.82a4.23,4.23,0,0,0-1.82,1L4.34,5.58l-.2.24a1.82,1.82,0,0,1,.38,0l.26.06L5,6c.39.08.74.08.89-.26.29.23.61.74,0,1-.46-.14-.78-.22-1.12-.29s-.67-.1-1-.13c-.23.3-.46.61-.61.84L1.68,9.41l0,.06c.29.22.23.56.39.82"/></g><path class="cls-4" d="M15.27,49.87l1.14,0-.34-.22a2.81,2.81,0,0,0-.8.18m90.58-45a3.62,3.62,0,0,1,.46.06,2.55,2.55,0,0,1,1.48.8l.19,0,3.91-.3.25,0a2.74,2.74,0,0,1-.2-.82h0l-3.87,0-1.47,0a1.76,1.76,0,0,1-.7.31m9.72.58,2.61.16,1.06,0a0,0,0,0,1,0,0c.05,0,.08-.06.12,0a.24.24,0,0,1,.09.06l.09,0h1.34c-.08-.31.21-.61.47-.88h0l-.74,0-1.88,0c.33.22.43.62-.13.92l-.06,0a.66.66,0,0,1-.51-.33.63.63,0,0,0-.51-.34l-.06,0a1,1,0,0,1,.26-.23h-.6a.31.31,0,0,0,.2.1c-.1.11-.42,0-.48.15-.2-.06-.29-.15-.29-.26l-1.42,0c-.27.24.54.49.43.83m-1.83-.09.57,0,1.13.07a3,3,0,0,1-.92-.84h-.2l-1.08,0c.15.28.34.53.5.77m-31,.11,3.88-.14c.67,0,1.77,0,2.44,0l3.87,0h6.31c.77,0,1.54,0,2.31.07a.47.47,0,0,0,0-.49c-.67,0-1.66,0-2.28,0l-3.87-.22c-.66,0-1.76,0-2.43,0l-3.89.21C88.39,5,87.3,5,86.63,5L82.75,5c-.65,0-1.3,0-2-.08a1.07,1.07,0,0,1-.35.52c.77,0,1.54,0,2.32,0M20.15,45.14a.28.28,0,0,1-.1-.09H17.49a13.52,13.52,0,0,1-2.15-.22l-.22,0-.59-.14.06.15.53.13.31.06a12.45,12.45,0,0,0,2.05.22l3.13,0a.67.67,0,0,0-.19,0l-.27,0M78.47,4.73v0l-.18,0,.18,0M103.11,5l.38.08-.1.23L103,5.19l.1-.24M102,5.48l3.6.28.46,0c-.45-.21-.91-.42-1.33-.65.23-.23,0-.32,0-.47l-2.19.18a.87.87,0,0,0-.54.63m44.21,0,3.56-.05c.67,0,1.76,0,2.43.05l.3,0c.13-.1.28-.19.41-.3a5.3,5.3,0,0,0,.59.36l1.34.09a.65.65,0,0,1,.08-.31,1.07,1.07,0,0,1,.29.33l.86,0c.66,0,1.76.07,2.43.06l3.38-.06a.88.88,0,0,1,.58,0l.16,0h0c.4-.43-.38-.5-.7-.71l-.82,0c-.14.23-.42.32-.51.6A4.49,4.49,0,0,1,159.31,5l-.83,0-2.43-.06-2.17-.07a.31.31,0,0,1,0,.1.61.61,0,0,1-.3,0,.4.4,0,0,1-.26-.14l-.82,0c-.13.35-.46.5-1,.41-.11-.15,0-.32.26-.43-.64,0-1.41,0-1.94,0l-3.23.2c-.23.19-.33.32-.34.5M46,45.61a.86.86,0,0,1-.23.06s0,0,.16-.1a.83.83,0,0,1,.22,0s0,0-.15.07M29.38,45l.07-.09-.07.09m-.08.11-.07.09.07-.09m-2.63.22c-.1,0-.16-.08-.16-.14s0-.11.15-.09a.64.64,0,0,1,.31.18.45.45,0,0,1-.3.05m52.65,0v0l-1.19,0H74.26c-.67,0-1.76,0-2.43,0L68,45c-.66,0-1.76,0-2.43,0l-3.89.15c-.67,0-1.76,0-2.42,0l-.51,0a1.08,1.08,0,0,1,0,.39,1.22,1.22,0,0,1-.78-.45l-2.54-.2a16.28,16.28,0,0,0-2.42,0L49,45.16a17.92,17.92,0,0,1-2.43,0l-3.87-.29-.38,0-.05,0-.08,0c-.63,0-1.39-.07-1.91-.08l-3.87-.08L34,44.63l-3.87-.1c-.67,0-1.76,0-2.43.08l-2,.18a1,1,0,0,1,.47.75l1.5.12c.36,0,.84.05,1.32.05a3.68,3.68,0,0,1-.95-.52.59.59,0,0,1,.37,0c.34.06.67.37.64.56h.28a.81.81,0,0,1,0-.16,3.52,3.52,0,0,1,.56.14h.2l2-.11a1.8,1.8,0,0,1,.06-.22l.16,0c.16,0,.2.1.21.18l1.5-.08c.81,0,1.63-.07,2.44-.07l3.87,0c.81,0,1.62,0,2.43.07l.24,0a.66.66,0,0,1-.08-.53,5.74,5.74,0,0,1,1.19.59h0l2.52.14c.67,0,1.76.09,2.43.11l3.87.12h.37l0-.08a.54.54,0,0,1,.18,0,.28.28,0,0,1,.15.08c.57,0,1.14,0,1.7,0l3.89-.17,1.12-.06a.93.93,0,0,1,.51-.45h0c.35.07.44.22.44.39l.34,0,3.89-.22c.81,0,1.63-.06,2.44-.06h3.87c.81,0,1.62,0,2.44.06l3.87.17c.53,0,1.33,0,2,0a.7.7,0,0,0-.49-.31,1.63,1.63,0,0,0-.31,0"/><path class="cls-4" d="M209.11,10.07h0c.57.11.3.48.27.77l-.21,0c-.76-.14-.29-.4-.07-.75M153.79,45.18c-.16,0-.28-.14.08-.27.29.24.08.31-.08.27m-.45.47-.39-.07c0-.19.27-.16.34-.3l.38.07c0,.2-.26.16-.34.3m-62.91-.58L90,45l.09-.23.39.08-.1.22M163.73,5.71l1,0,3.87.14,2.43.06,2.44.05a.67.67,0,0,1,.1-.23l.2,0c.17,0,.17.12.13.22h1l2.43,0h.31l3.56,0c.82,0,1.63,0,2.44-.09l3.9-.31c.67,0,1.76-.06,2.43,0l3.87.22c.81,0,1.62,0,2.43,0l3.89-.21a10.3,10.3,0,0,1,2.12.16l.24,0,3.21.77a2.26,2.26,0,0,1,1.46,1.09l.83,2a5.58,5.58,0,0,1,.34,1.65l0,2.57c0,.46,0,1.22-.05,1.69l-.21,2.56a13.6,13.6,0,0,0,0,1.69l.19,2.56a7.41,7.41,0,0,1-.13,1.69l-.56,2.57a6.3,6.3,0,0,0-.09,1.68l.28,2.57a13.47,13.47,0,0,1,0,1.68l-.12,2.56c0,.47-.08,1.23-.12,1.69l-.21,2.56a3.46,3.46,0,0,1-.68,1.6L205.23,43a3.11,3.11,0,0,1-1.15.79c.18.09.27.21.18.38-.46,0-1,0-1.44-.06l-2.35.47c-.65.13-1.73.29-2.39.36l-3.93.41-.3,0a.25.25,0,0,0,0,.21l-.14,0a.4.4,0,0,1-.3-.16c-.58,0-1.24,0-1.7,0l-3.88-.25c-.66,0-1.76-.08-2.43-.09l-3.87,0c-.81,0-1.62,0-2.44.08l-3.9.25c-.67,0-1.76.08-2.43.08H168.9l-2.43,0-3.87-.09c-.67,0-1.76-.08-2.42-.15l-3.87-.41a15,15,0,0,0-2.42,0l-3.91.37a21.92,21.92,0,0,1-2.43.08l-3.87-.12c-.67,0-1.77,0-2.44,0l-3.89.16-2.43.06-3.88,0H128.6l-3.87,0c-.67,0-1.76-.05-2.42-.11l-3.87-.32a21.89,21.89,0,0,0-2.43,0l-3.89.22c-.67,0-1.77.06-2.44.06h-1.51a.66.66,0,0,1-.41.18c-.14-.05-.18-.11-.17-.18h-1.78c-.67,0-1.76,0-2.43-.07l-3.87-.22-2.42-.1-3.87-.13H92.5c.19.21,0,.68-.35.78-.38-.17-.33-.47-.26-.78l-1.1,0-3.89.18L84.46,45l-3.89.22h0c-.09.14-.22.28-.3.43h.36l3.89-.15c.67,0,1.76,0,2.42,0H87a.83.83,0,0,0,0-.22,1,1,0,0,1,.46.26l3.29.26a17.76,17.76,0,0,0,2.42,0l3.92-.36a17.76,17.76,0,0,1,2.42,0l3.87.29c.66,0,1.75.1,2.42.11l3.87.09h.08a.37.37,0,0,1,.06-.53l.35,0a1.75,1.75,0,0,1,.9.44.5.5,0,0,0-.12.08l1.16,0h.4a.24.24,0,0,1,0-.19h.1c.21,0,.33.11.37.2l3,.07c.81,0,1.62,0,2.43-.08l3.91-.34c.67-.06,1.77-.11,2.44-.1l3.87,0,2.43,0,3.88-.08c.67,0,1.77,0,2.43,0l3.87.15h.3a.45.45,0,0,1,.08-.27,1.4,1.4,0,0,1,.49.28c.55,0,1.14,0,1.56,0l3.89-.11a21.56,21.56,0,0,1,2.41.08l3.88.4a17.74,17.74,0,0,0,2.42.07l3.89-.17c.67,0,1.76,0,2.43,0l3.87.1,2.43,0,3.88,0c.67,0,1.76,0,2.43-.08l3.91-.31c.81-.06,1.62-.09,2.43-.11l3.88,0a21.49,21.49,0,0,1,2.41.12l3.88.46a17.65,17.65,0,0,0,2.41.08l3.89-.21a14.69,14.69,0,0,0,2.38-.35l3.32-.84c0-.16.21-.32.5-.44l.57.12a3.16,3.16,0,0,0,1.19-.88l1.74-2.42a4.82,4.82,0,0,0,.69-1.61l.45-2.57c.1-.56.18-1.12.26-1.69l.31-2.56c.06-.56.1-1.13.11-1.69V28.45c0-.57,0-1.13,0-1.69l-.15-2.57a9.41,9.41,0,0,1,.07-1.68l.39-2.57c.08-.56.14-1.12.17-1.69l.13-2.55a15.84,15.84,0,0,0,0-1.69l-.22-2.57a4.85,4.85,0,0,0-.51-1.62L208,7.37a2.73,2.73,0,0,0-1.6-1l-3.76-.79-.13,0a15.75,15.75,0,0,0-2.25-.23l-3.87,0H190c-.67,0-1.76,0-2.42-.09l-3.88-.28a17.77,17.77,0,0,0-2.42,0l-.53,0a.61.61,0,0,1,.43.32.64.64,0,0,0,.51.34h.07a.79.79,0,0,1-.68.12c-.56-.11-1.11-.54-.61-.77l-3.1.25a21.89,21.89,0,0,1-2.43,0L171.09,5c-.66,0-1.76-.06-2.43,0L164.79,5H163.1c.36.24,1,.41.63.69m-40.8-.14-.1,0a.52.52,0,0,0-.42.07h.66Z"/><path class="cls-4" d="M163.38,5.59a.5.5,0,0,0-.36.12h.55a.35.35,0,0,0-.19-.12M25.52,44.8,23.79,45c-.56,0-1.11.07-1.67.09a2.43,2.43,0,0,0,.29.21l1.37.08,1.64.14c.29-.18,0-.3.1-.68M204,43.86a3.68,3.68,0,0,1-.54.16h0a.47.47,0,0,0,.53-.18M35.48,5.15c-.09.13-.39,0-.63,0,.09-.12.39,0,.63,0M9.17,11.51a2.4,2.4,0,0,1,.53.23l0-.66a2.54,2.54,0,0,1,.76-1.54l2-1.87a5.77,5.77,0,0,1,1.88-1l2.9-.88a10.11,10.11,0,0,1,2.35-.36l3.88,0,2.44,0,3.88-.07c.67,0,1.76,0,2.43,0l3.87.23,2.43.11,3.87.13c.81,0,1.62,0,2.43,0l2.12,0c-.15-.32.22-.79-.5-.93l-.25,0a.61.61,0,0,0,.12-.16l-.69,0a1,1,0,0,0-.1.22.37.37,0,0,1-.28-.19l-.39,0-1.34.07c-.18.06-.33.15-.21.4h0a.29.29,0,0,1-.26-.38H38.6c-.67,0-1.77,0-2.44,0l-3.87-.06-2.43,0L26,4.63l-2.44-.06-3.86-.14a7.2,7.2,0,0,0-2.32.34L13.59,6.08a5,5,0,0,0-1.76,1.11L9.71,9.5A3,3,0,0,0,9,11.07l0,.44,0,0,.17,0M68.69,4.9c.31.19.3.41.28.49a.43.43,0,0,1-.14.23l1.29,0L73,5.39a3.37,3.37,0,0,1-1.33-.74c.13-.17.46-.14.72-.18l-1.15,0a.66.66,0,0,1,0,.29,1.9,1.9,0,0,1-.75,0l-.26-.06a1.06,1.06,0,0,0,0-.19l-.88,0-.11.09a1.26,1.26,0,0,1-.45.25m74.74.67c.66,0,1.76-.08,2.43-.09-.1-.14-.12-.31-.25-.45-.67,0-1.6.07-2.19.08l-1.81,0a3.3,3.3,0,0,0,.31.53l1.51-.1ZM52,4.55c.1,0,.18.07.15.13a.8.8,0,0,1-.31,0,.08.08,0,0,1-.07-.1A.24.24,0,0,1,52,4.55M54.26,5c.42.31-.36.52-.85.43a.51.51,0,0,1-.31-.16c.31-.17.85-.1,1.16-.27m-6.6.11.3,0a1.74,1.74,0,0,1-.45.62l1.24,0H49c-.35-.1-.09-.39,0-.62h0c.47.09.39.35.3.62l1.73-.07a1.17,1.17,0,0,1,.74,0l3.24-.17c.81,0,1.62,0,2.43,0l3.87.18,2.43.06h2.88l0,0,.21-.07A.64.64,0,0,0,67.34,5l0-.22a1.5,1.5,0,0,1-.25-.19l-3.29,0c-.67,0-1.76,0-2.43,0l-.43,0c0,.14-.06.28-.3.4a4,4,0,0,0-.25-.37l-1.15.06c.34.15.72.28.68.54h0a.79.79,0,0,1-.3-.12.86.86,0,0,0-.3-.11l-.08,0c-.2,0-.29.19-.58.14l-.09,0c-.19-.19-.08-.28.09-.36l-.37,0a.25.25,0,0,1,0,.15l-.14,0-.23,0-.26,0h-.1a21.69,21.69,0,0,1-2.42,0l-3.87-.31h0a.42.42,0,0,1,.13.58,2.25,2.25,0,0,1-.71-.61H49.19a.36.36,0,0,1-.21.28,1.6,1.6,0,0,1-.45-.23l-1.2.09c-.07.24-.09.45.33.53M11.79,44l-.07,0-.21,0,0-.05A2.65,2.65,0,0,1,10.2,43L9,40.77a4.15,4.15,0,0,1-.45-1.63l0-1.75a1.31,1.31,0,0,1-.59-.13l0,0-.22,1.9a2.52,2.52,0,0,0,.46,1.59l1.76,2.33a3.43,3.43,0,0,0,1.7,1l2.31.55,0-.12L11.79,44Zm-2.89-13L8.52,31l.1-.22.38.07ZM8,30.75c-.16-.63.82-1.09.93-1.63C10.4,29.71,8.29,30.11,8,30.75Zm.48,5.83a7.3,7.3,0,0,1,.22-1.68l.69-2.58a6.37,6.37,0,0,0,.19-1.68l-.11-2.55A.08.08,0,0,1,9.41,28l0,0a13.82,13.82,0,0,1,.06-1.58l.07-.76c-.5-.09-.37-.39-.76-.52A.54.54,0,0,1,9.34,25a1,1,0,0,1,.3.1l.13-1.25c.06-.57.11-1.13.15-1.7l.16-2.55a10.58,10.58,0,0,0,0-1.69l-.3-2.57a13.57,13.57,0,0,1-.08-1.69l0-1a.58.58,0,0,1-.32,0h0a.89.89,0,0,1-.41-.24l-.08,1.25a13.46,13.46,0,0,0,0,1.68l.23,2.58a15.7,15.7,0,0,1,0,1.68L9,22.14c0,.47-.07,1.23-.12,1.69l-.23,2.34a1,1,0,0,1,.17-.1.73.73,0,0,1,.13,1.12.9.9,0,0,1-.4-.23c-.07.39-.15.82-.23,1.11l-.7,2.58a4.75,4.75,0,0,0-.1,1.68L7.9,34.9a7.87,7.87,0,0,1,0,1.68l0,.27a1.65,1.65,0,0,1,.58.26v-.53ZM72.8,4.86c.43,0,.52-.26,1-.17l.12,0a1.41,1.41,0,0,1,0,.62H74c.67,0,1.76-.05,2.43,0l2.21.09a1.56,1.56,0,0,1-1-.75L76.46,4.5h-.11a.83.83,0,0,1,.29.62c-.32-.2-.8-.34-.75-.66-.61,0-1.35,0-1.85,0l-1,0c-.24.11-.53.14-.26.42M9.69,12v-.24a.66.66,0,0,1-.44,0A.91.91,0,0,1,9,11.69v.14l.25,0a2.49,2.49,0,0,1,.5.15m118.1-7c.22.1.34.22.24.41a1,1,0,0,1-.26,0c-.41-.07-.27-.28,0-.38m-4.09.35-.13.21h.6l-.13,0c.19-.41,1.11,0,1.11-.64l.18,0c.4.07,0,.27-.13.34a3.15,3.15,0,0,1,.57.31h1.15l2.77.06a.63.63,0,0,1,0-.24l.14,0a1,1,0,0,1,.53.23h.41l1.48,0a.64.64,0,0,1,.37-.35h0a2.42,2.42,0,0,1,.43.13,2.28,2.28,0,0,0,.35.11c.19,0,.33,0,.44-.25.33.09.45.24.49.42l.5,0a2.53,2.53,0,0,0-.27-.18.32.32,0,0,1,.34-.13,1.74,1.74,0,0,1,.32.11,2.1,2.1,0,0,0,.44.13,1.23,1.23,0,0,0,.29,0l0,.07,1.12,0q1.22,0,2.43,0l1-.06c-.13-.2-.23-.41-.35-.59h-.65c-.67,0-1.76,0-2.43-.06l-3.87-.24c-.66,0-1.76-.07-2.43-.06l-3.87.07c-.67,0-1.77,0-2.44,0l-.82,0a.42.42,0,0,1,0,.55"/><path class="cls-5" d="M94.51,34a.2.2,0,0,0,0-.11m6-4.65s0,0,0,.05"/></g></g></svg>