<svg xmlns="http://www.w3.org/2000/svg" xmlns:xlink="http://www.w3.org/1999/xlink" viewBox="0 0 217.69 50.96"><defs><style>.cls-1{fill:#fff;}.cls-2{mask:url(#mask);}.cls-3{fill:#58607e;}.cls-4{fill:none;}</style><mask id="mask" x="-1.58" y="-9.18" width="221.28" height="69.66" maskUnits="userSpaceOnUse"><g id="b"><path id="a" class="cls-1" d="M-1.58,2.26,216.65-9.18l3,58.22L1.47,60.48Z"/></g></mask></defs><title>Ресурс 2</title><g id="Слой_2" data-name="Слой 2"><g id="Слой_1-2" data-name="Слой 1"><g class="cls-2"><path class="cls-3" d="M3.91,7.45l.57.1c-.16.19-.26.44-.68.36l-.09,0,.2-.44M3.8,11.53l.3,0c.92.17,1.27.62.7,1,0-.33-.94-.35-1.2-.58l.2-.45M7.27,6.37h0a.44.44,0,0,1,.28.22c.07.1.12.19.2.21s.1,0,.17-.07c.48.4-.55.62-1.06.53.35-.4,0-.77.38-.9M6.69,8.68c.06-.2.34-.19.38-.41.33.17.32.54-.27.44l-.11,0m-.49,1.6H6.11c-.23,0-.22-.16-.44-.21.08-.08.25-.07.29-.18.22.09.34.21.24.4M4.84,15.34H4.78c-.43-.08-.48-.29-.81-.4a.34.34,0,0,1,.36-.12c.27,0,.55.33.51.52M5.27,6C5,6,5,5.85,4.83,5.8c.07-.08.24-.07.29-.18.21.09.33.21.23.4H5.27M25.4,1.38a.69.69,0,0,0,.53.37,2.34,2.34,0,0,0,.38,0,3,3,0,0,1,.41,0,1.24,1.24,0,0,1,.31.1c.29.35-.64.42-1.06.53l-.18,0c-.46-.09-.54-.29-.87-.41.09-.29.2-.55.48-.64m5.13,2a4.59,4.59,0,0,1-.73-.06c-.4-.07-.61-.24-.42-.63.25.27,1.41.26,1.15.69m2.79-1.18c.34.44,1,.77,1.1,1.29a1.65,1.65,0,0,1-.58,0A9.53,9.53,0,0,1,32.36,3c.16-.43.72-.45,1-.79M36,2.36h.09c.23,0,.22.16.44.2,0,.1-.17.12-.33.09s-.44-.17-.2-.3m15.61-.15.39.07-.1.22-.38-.07.09-.22m4,.61c.41.08.43.28.26.54-.23-.15-.53-.28-.38-.56l.12,0M57,1.26c.34.06.63.23.42.45a.71.71,0,0,1-.38,0,4.43,4.43,0,0,1-.73-.35c.08-.16.4-.19.69-.13M63.44.77c.56.1.49.41.48.69-.27-.2-.65-.37-.52-.7h0M65.8,1.83c.23,0,.38.17.28.39a1.49,1.49,0,0,0-.3-.09.8.8,0,0,0-.48.06.76.76,0,0,1-.47.06l-.19,0c.07-.27.76-.44,1.16-.37m5.18,1h0c.14,0,.16.16.11.28a.32.32,0,0,1-.36.19.44.44,0,0,1-.16-.06c0-.25.26-.27.39-.41m1-.42c.66.12.77-.32,1.1-.53l.1,0c.73.13-.8.66.14.87a.6.6,0,0,0,.19.06c.2,0,.25-.08.29-.21s.09-.25.3-.21a.54.54,0,0,1,.18.06L74,3.19a5.32,5.32,0,0,1-1.26,0c-.53-.1-.92-.31-.9-.71l.15,0M83.52,1.2c.19.07,0,.25.29.3a2.5,2.5,0,0,1,1.29-.06c.82.15,1.57.59,1.34,1.15a11.12,11.12,0,0,0-2-.61,5.43,5.43,0,0,0-1.65-.06c-.44-.47.62-.32.72-.72m16.57,1.6c.56.11.42.61,0,.74a.64.64,0,0,1-.1-.75h.06m4.16-1.52c.61.11.68.62.25.77a1.48,1.48,0,0,1-.28-.78h0m.39,1.88a.42.42,0,1,1-.28-.78h.19c.53.1-.43.67.09.77m3.56-.55h.09c.36.06.47.21.34.43l-.58-.11.15-.33m1-.9c.67.17.31.67,1.08.81l.22,0a.8.8,0,0,1-.61.1c-.53-.1-1-.56-.69-.94M.68,33.05H.8c.29,0,.17.24.12.4-.15-.05-.14-.15-.33-.19h0l.1-.22M3,28.76c.91.19.41.84.72,1.22a1.28,1.28,0,0,1-.39,0c-.67-.12-.92-.75-.33-1.2m-1.32,6.4c.78.21.44,1.53-.46,1.37l-.12,0c-.24-.36.25-1.06.58-1.34m3.05-5.93A1,1,0,0,1,5,29.4a1.27,1.27,0,0,0,.44.18h0a.5.5,0,0,1-.45.06,1.74,1.74,0,0,1-.7-.27.38.38,0,0,1,.33-.15m-.39,2.19-.38-.07L4,31.13l.39.07-.1.22M.87,35c-.09,0-.17-.07-.15-.13a.17.17,0,0,1,.12-.06l.1.06a.33.33,0,0,0,.17.07A.29.29,0,0,1,.87,35m1.84,7.24a1.33,1.33,0,0,1-.81-1c.25.34,1.37.4.81,1M3,43.38l.58.11-.1.22-.58-.1a2.29,2.29,0,0,0,.1-.23m1.55-3.57.39.07-.1.22L4.49,40l.1-.22m-.29,2c.66.13.17.82-.15,1-.64-.2.33-.54,0-1H4.3M19.74,47.9h.05c.61.11.74.6.23.77-.51-.14-.69-.64-.28-.78m4.56,1,.57.11c0,.25-.26.27-.39.41-.32-.09-.35-.27-.18-.52m.68.91a.83.83,0,0,1,.35,0l.21.06c.28.33-.18.81-.84.69l-.08,0c0-.19.27-.16.34-.3s-.06-.14-.22-.17h-.08c-.2,0-.37-.08-.13-.26l.11,0a1.23,1.23,0,0,0,.34,0m2.24,0c.09,0,.17.07.14.13a1.16,1.16,0,0,1-.3,0c-.06,0-.09,0-.08-.1a.25.25,0,0,1,.24-.06m7.24-1.59.26.05a3.45,3.45,0,0,1-.2.93c-.44-.27-1.09-.48-.81-1a1.9,1.9,0,0,1,.75,0m4.63,0c.55.23.38,1,.09,1.23h-.06c-.43-.08-.47-.28-.8-.39.08-.46.45-.62.77-.83m1.2.59c.44.24.43.47.09.74h-.05c-.57-.1-.42-.61,0-.73m3.07.08c.6.13.33.54.24.89a2,2,0,0,1-.54,0c-.39-.07-.72-.28-.61-.68.3-.06.76,0,.91-.19m-.15,1.78h-.15c-.57-.11-.28-.62.06-.73l.16,0c.47.08-.08.49-.07.72m1-.71c.35.06.75.3.68.55a1.06,1.06,0,0,1-.5,0c-.37-.07-.65-.31-.51-.57a.74.74,0,0,1,.33,0m5.49-.5c.14.05.14.15.33.18h0c-.07.09-.24.08-.29.19-.14-.05-.14-.15-.33-.18h0c.08-.09.24-.08.29-.19m2.93-1c-.49-.16-.62-.44-.47-.81.49.16.61.44.47.81m4.9-.31c.52.2.4,1.5-.44,1.49.59-.66-.21-1.08.44-1.49m2.93.66c.35.07.46.21.33.43l-.09,0c-.35-.06-.47-.2-.34-.42h.1M72,49.42c.43.08.77.19.56.47l-.21-.06a1,1,0,0,0-.35,0,.86.86,0,0,1-.45,0,.44.44,0,0,1,0-.48l.45.07m3.4-.82c.81.48-1,.53-.53,1.23-1.13-.26.1-1.08.53-1.23m1.29,1.69a.26.26,0,0,1,.19.16l-.1.22-.19,0c-.25,0-.3-.15-.24-.23a.36.36,0,0,1,.34-.13m2-.12c.32.09.35.27.19.52h-.2c-.33-.07,0-.33,0-.51m4.28-1.75.77.14-.29.67-.26,0c-.57-.11-.42-.44-.22-.79m.53-1c.36.07.47.21.34.43l-.09,0c-.36-.06-.47-.2-.34-.42h.09m4,2.43c-.22-.09-.33-.21-.24-.4.21.09.33.21.24.4M95,49.68l.38.07-.09.23-.39-.07.1-.23m7-.88c-.42.11-.63.44-1.21.38a1.26,1.26,0,0,1,1.21-.38m2.49,0h.18c.17,0,.21.14.17.24a.3.3,0,0,1-.34.15.47.47,0,0,1-.15-.06l.14-.33m2.47.83a1.44,1.44,0,0,1,.55.33c-.06.09-.2.1-.35.07a1.73,1.73,0,0,1-.61-.25.42.42,0,0,1,.41-.15m3-1.52c-.1.49-.72.45-1.39.35.15-.43.77-.39,1.39-.35m1.06,0c.65.22,0,.86-.61.74l-.12,0c.06-.43.39-.57.73-.71m2.31,1.18c.23,0,.43.2.32.39l-.17,0c-.27-.05-.34-.17-.55-.24a.36.36,0,0,1,.4-.13m.22,1.09c-.05,0-.08.06-.11.06l-.1-.06a.51.51,0,0,0-.17-.07.28.28,0,0,1,.24-.06c.09,0,.17.07.14.13m1.55-2.13c.55.16.2.38,0,.35s-.17-.12,0-.35m1.58,1.14a1.43,1.43,0,0,1,.23,0c.7.13.28.61.87.78a1.19,1.19,0,0,1-.53,0c-.51-.09-1-.46-.57-.82m2.74-.1c-.72-.19-1.17-.46-1-.92.67.21,1,.53,1,.92m.2-1.81a3.59,3.59,0,0,1,.41.11l.37.1a.36.36,0,0,0,.37-.08c.43.18,1.06.3,1,.66a2,2,0,0,1-.65,0,7.19,7.19,0,0,1-.79-.21,8.93,8.93,0,0,0-.89-.23,5.14,5.14,0,0,0-.55-.06.68.68,0,0,1,.77-.26m1.77,2-.37-.06a1.55,1.55,0,0,1-.73-.26c.06-.21.33-.19.38-.41,0,.31.87.36.72.73m-2.79.7c-.48-.11-.27-.5,0-.6.48.1.27.5,0,.6m14-.8a.56.56,0,0,1,.19,0c.34.06,0,.32,0,.5-.33-.09-.36-.27-.19-.51m2.84-1.77h0c.13,0,.16.16.1.28a.34.34,0,0,1-.36.19.44.44,0,0,1-.16-.06c0-.25.26-.28.39-.41m8.68,1.95.77.15-.1.22-.76-.14.09-.23m4.15.21a.27.27,0,0,1,.1.06.42.42,0,0,0,.15.06h0a.22.22,0,0,1-.23.06c-.1,0-.18-.07-.15-.13s.08-.06.11-.05M168,48.37l.57.1-.19.45-.11,0c-.42-.07-.44-.27-.27-.53m4-.84c.22,0,.2.16.17.28l-.06,0a.15.15,0,0,0-.18.09c-.22-.06-.08-.23-.05-.37l.12,0m17.51,0h.05a.16.16,0,0,0,.19-.09h0c.14,0,.16.12.11.21a.3.3,0,0,1-.33.14.44.44,0,0,1-.16-.06l.1-.22m.52,1.18h.06c.61.11.74.59.23.77l-.58-.11c-.29-.28.12-.42.29-.67m2.88.53c-.48-.11-.67-.3-.57-.59.15.21.74.28.57.59m4.24-2.12.57.11-.1.22-.57-.11.1-.22m4.51.59a.7.7,0,0,1,.29,0c.16,0,.17.2.43.29,0,.09-.25.1-.46.07s-.51-.18-.26-.32m4.52-1.34c.07.2.53.28.38.55l-.17,0a2.85,2.85,0,0,1-.55-.23.63.63,0,0,0,.34-.3m3.64-1,.3.06c.16.18,0,.44-.1.71h0c-.63-.11-.7-.41-.94-.65.11-.19.41-.17.76-.11m3.47-12c.06-.13.29-.14.54-.1.41.08.88.33.71.57h-.06a4.48,4.48,0,0,1-1.19-.46M213,38.23a1.41,1.41,0,0,1,.27.09,1.61,1.61,0,0,0,.61.15c0,.1-.2.1-.39.07l-.31-.08-.31-.07-.19,0a.33.33,0,0,1,.32-.14m-1.21,6.49a.4.4,0,0,1-.42.15,3.1,3.1,0,0,1-.73-.36c.69-.64-.48-1.08.2-1.41.89.36-.15,1.33.95,1.62m.58-12.32c-.15,0-.14-.15-.33-.19h0c.08-.08.25-.07.29-.18.15,0,.15.14.34.18h0c-.08.08-.24.07-.29.19m1.67-12.73c-.41-.08-.44-.28-.27-.54h.08c.43.08.31.33.3.55l-.11,0m1.48-5.05.09-.22h.12c.29.06.17.24.12.4-.14-.05-.14-.15-.33-.19m1.26-3.39a1.41,1.41,0,0,0-.63-.23l-.09,0,.19-.45.58.11c-.3.29.14.34-.05.59m-2.58-2.3c-.1,0-.16-.11,0-.34.55.15.2.38,0,.34m-.91-2.56-.38-.07c.07-.09,0-.12-.14-.15s.17-.11.33-.08.44.17.19.3m.22-1.73.1.06a.36.36,0,0,0,.17.07.28.28,0,0,1-.24.06c-.09,0-.17-.07-.14-.13s.08-.06.11-.06m-2.62,2a.39.39,0,0,1,.19.52c-.33-.09-.35-.27-.19-.52M196.14,1.72a.41.41,0,0,1-.23-.13c.06-.26.33-.3.71-.23l.2,0a.67.67,0,0,1-.68.32m-.28-1,.39.07-.2.45-.38-.07.19-.45M178.19,2.47a1,1,0,0,1-.25-.07c.06-.37.46-.39.67-.61.57.15.23.8-.42.68m-9,.11a.69.69,0,0,1-.34-.17c.11-.16.35-.19.67-.13l.2,0c0,.23-.29.3-.53.26m-.32-.88c0-.05.1-.09.21-.08a.61.61,0,0,1,.26.15.78.78,0,0,1-.37.07c-.1,0-.13-.08-.1-.14m-.11-.64a.16.16,0,0,0-.19.09c-.22-.06-.07-.24,0-.37h.11c.22,0,.2.16.17.28h-.05M162,2.47c-.6-.13-.84-.38-.72-.74.37,0,.57-.13,1-.05h.05c0,.27.14.64-.33.78m-.92.68-.38-.07.09-.23.39.07-.1.23m-1.63-.3-.1,0,.25-.56c.48.1.67.3.57.59a1.75,1.75,0,0,1-.72,0m-2.62-2-.3-.06c0-.21.16-.22.39-.18l.26.06.25.05.15,0c-.1.19-.4.18-.75.11m-1.31,2.3-.2-.05c0-.25.26-.27.38-.41h.09c.23,0,.22.16.44.21-.06.26-.33.31-.72.24M155.13.49l.3,0c.43.07.51.26.76.4-.7.49-.75.81-.39,1.38a2.58,2.58,0,0,1-.48,0c-1-.18.3-1.23-.19-1.79m-5.24,3h-.2c-.33-.06,0-.33,0-.51s-.95-.27-1-.54a.87.87,0,0,1,.7-.13c.73.13,1.39.91.5,1.19m-2.11-.14c-.23,0-.22-.16-.44-.21.08-.08.24-.07.29-.18.22.09.33.21.24.4h-.09m-5.53-.9c-.37-.1-.24-.37-.62-.48.08-.08.24-.07.29-.18.38.1.25.37.62.47-.07.09-.24.08-.29.19m-2-.13c-.24-.08-.22-.25-.48-.33,0-.34.39-.24.43-.52a.48.48,0,0,1,.05.85m-3.51-.52,1.54.28c0,.38.41.64.38,1-.52-.48-2-.67-1.92-1.32m-2.16.69c-.34-.28-.43-.64-1.1-.81l.24-.56c.76.27,1.45,1,.86,1.37M129.91,3.7c-.23-.63-1.28-1-2.06-1.47-.51.16.07.47.33.67a.74.74,0,0,1-.36,0l-.17-.05A2.16,2.16,0,0,0,127,2.8c-.34-.66.73-.58,1.2-.86.85.6,2.77.84,3.65,1.63a13,13,0,0,1-1.92.13m-8.54-2.05c-.23,0-.22-.16-.44-.2.08-.09.24-.08.29-.19.22.09.33.21.24.4h-.09m-2.21.46-.19.14-.3,0-.26,0a.8.8,0,0,1-.6-.37l-.26-.06,0-.28a.42.42,0,0,1,.3-.32,1.22,1.22,0,0,1,.61,0,1.31,1.31,0,0,1,.79.46.38.38,0,0,1-.13.51m95.68,36.63a1.77,1.77,0,0,1,.37.09.77.77,0,0,1-.45.05c-.13,0-.22-.08-.22-.12s.08-.06.3,0m.9-.18h.17c.17,0,.22.14.17.24a.3.3,0,0,1-.33.15.76.76,0,0,1-.16-.06l.15-.34m-1,4.65c-.15.47-.44.39-.34.78h-.08c-.66-.12-.38-.78-.16-.87l.58.1M1.92,11.07a.48.48,0,0,1-.31.09.49.49,0,0,1-.28-.25l-.06-.09a2.92,2.92,0,0,0-.16,1l.17,2.57c0,.47.07,1.23.08,1.69l0,2.57a7.27,7.27,0,0,1-.19,1.68L.56,22.92A5.91,5.91,0,0,0,.41,24.6l.14,2c.31.1.21.32.2.52l-.11,0H.59v.05A8,8,0,0,1,.5,28.86L.06,31.43a5.91,5.91,0,0,0,0,1.68l.45,2.58a11.78,11.78,0,0,1,.14,1.68l0,2.56c0,.47,0,1.23,0,1.69l0,.57.21-.29.61.25c.88.36,1.73.84,1.36,1.68l-.11.26H2.29l-.33,0c-.34-.06-.73-.23-.61-.69l0,0,0-.11-.12,0a2.05,2.05,0,0,1-.46-.25l.06,1.21a2.18,2.18,0,0,0,.88,1.43l2.53,1.77.42.28a1.58,1.58,0,0,1,.25-.28c.05-.62-1.61-1.13-.95-1.62.5.58,2,1.28,1,2.07l.2.12c.81.24,1.93.29,1.85.89l2,.92A5.87,5.87,0,0,0,9.7,50l0,0L10,50a.52.52,0,0,1,.37.2l.17,0a5,5,0,0,0,.62.08l3.21.25a.79.79,0,0,0-.4-.29c.65-.82,0-1.21-.05-1.82a.58.58,0,0,1,.29,0,2.09,2.09,0,0,1,.53.21,2.19,2.19,0,0,0,.59.21.82.82,0,0,0,.51,0,3.1,3.1,0,0,0,.33,1.15l2.12.38a.67.67,0,0,0-.13.3l2.86,0c.67,0,1.76,0,2.43,0l3.89.18.68,0q.09-.23.21-.48c.2-.07.55,0,.67-.12.28.07.14.32,0,.59l.83,0,3.91-.3a16.19,16.19,0,0,1,2.2,0c.2-.29.4-.58.33-.84h.12c.47.09.3.38.45.57a3,3,0,0,0-.3.32l3.52.38a19.4,19.4,0,0,0,2.41.06l3.91-.23c.81,0,1.62,0,2.43,0l3.88.19c.57,0,1.45,0,2.1,0v0l0,0,.27,0L59,50.44c.67-.07,1.76-.11,2.43-.1l3.89.08,1.07,0c.36-.44.25-.89,1.49-.69-.38.32-.57.33-.59.7h.46l3.89,0c.67,0,1.76,0,2.43.07l3.24.14a.43.43,0,0,0-.21-.23c.08-.09.27-.06.47,0l.09,0,.08,0,.17,0a.4.4,0,0,1,.08.23c.8,0,1.6,0,2.39,0l3.91-.25c.67,0,1.76-.08,2.43-.08l3.89,0c.67,0,1.77,0,2.43.06l3.89.19c.66,0,1.76,0,2.43,0l3.9-.19,2.08-.09c0-.36.45-.27.62-.46a2,2,0,0,1,.34.43l1.34,0,0-.07a.7.7,0,0,1,.19.06l1.71,0c.67,0,1.76,0,2.42.08l3.89.35a21.67,21.67,0,0,0,2.42,0l3.9-.19,2.44-.11,3.89-.16c.67,0,1.77,0,2.44,0l3.88.05h2.44l3.88-.07c.67,0,1.77,0,2.44,0l3.88.14c.67,0,1.76,0,2.43,0l3.9-.16c.67,0,1.76,0,2.43,0l3.88.17c.67,0,1.76,0,2.43,0l3.9-.18c.67,0,1.77-.07,2.44-.07l3.89-.05h2.44l3.88,0c.81,0,1.62,0,2.44-.08l3.9-.25a19.52,19.52,0,0,1,2.42,0l3.89.37c.66.06,1.75.11,2.42.1l1,0c-.55-.43-1.08-.88-.58-1.65a1.85,1.85,0,0,1,.27,0c.56.1.29.47.45.71.61-.08-.05-.56.39-.9.34.34,1,.58.76,1.11-.18.13-.75-.12-.86.08s.08.46.28.61h.69a.75.75,0,0,1,.27-.61,1.71,1.71,0,0,1,.49.6h.72A14.73,14.73,0,0,0,199.7,50c-.09-.1-.06-.23.05-.39l.57.1-.09.21.23,0,3.42-.76,1.9-.43-.13,0c-.82-.15-.83-.61-.32-.93.13.33.65.53.62.91l.27-.06,3.48-.82a5.58,5.58,0,0,0,2-.94l.22-.19a.82.82,0,0,0-.45-.22l-.34,0,.25-.56-.19,0c-.27,0-.44,0-.49.16-.24-.15-.12-.41-.14-.63.44-.15,1.5.35,1.4-.35.9.22.49.72.14,1.12,0,.11,0,.19.18.25l1.13-1c-.17-.14-.29-.3-.16-.53a2.8,2.8,0,0,1,.52.22l.34-.29a4.2,4.2,0,0,0,1.08-1.49l.9-2.52a5.08,5.08,0,0,0,.24-1.67l-.17-2.44a1.88,1.88,0,0,1-.86.12,3.79,3.79,0,0,1,0-1.93,1.57,1.57,0,0,1,.72,0l.1,0v0l.11-2.57c0-.47,0-1.23,0-1.69l0-2.57c0-.46,0-1.22,0-1.69l.08-2.56c0-.47.06-1.23.09-1.7l.16-2.56a15.94,15.94,0,0,1,.22-1.69l.49-2.57a14.14,14.14,0,0,0,.2-1.69l.13-2.57a6.73,6.73,0,0,0-.18-1.67l-.66-2.49a2.84,2.84,0,0,0-1.11-1.38l-2.6-1.63c-.59-.37-1.19-.73-1.8-1.09l-2.69-1.57a6.2,6.2,0,0,0-1.75-.6l-.37-.05L202.92.17c-.66-.06-1.75-.11-2.42-.1l-3.89,0-2.44,0-3.9.07-2.44.05-3.89.1c-.67,0-1.77,0-2.43,0L177.62.32c-.81,0-1.63,0-2.43.08l-3.91.31c.22.07.33.18.18.37a.71.71,0,0,1-.38,0c-.23,0-.31-.25-.43-.4h-.31c-.2.12-.24.41-.56.41l-.11,0c-.28-.05-.27-.23-.16-.41l-.65-.06L165,.13A19.36,19.36,0,0,0,162.55,0l-3.89.09c-.67,0-1.77.07-2.43.13l-3.92.31a20.23,20.23,0,0,1-2.22,0c.18.14.1.44.22.46s.14,0,.31-.16c.41.09.29.36.14.63h0a1,1,0,0,1-.45-.22.79.79,0,0,0-.45-.22,1.66,1.66,0,0,0-.32,0,.66.66,0,0,1,.34-.47L148,.45a.59.59,0,0,0-.2.15.49.49,0,0,1-.18-.17L146.44.36a1.27,1.27,0,0,1,.48.92l.1,0a.82.82,0,0,0,.46-.05.73.73,0,0,1,.46-.05,1,1,0,0,1,.23.07c-.72.66.33.79-.63,1.45-.34-.87-3-1.17-1.78-2.4-.73,0-1.46-.06-2.19-.07l-2,0a.25.25,0,0,1,0,.32c-1.25-.13-.21.44-.34.78a.58.58,0,0,0-.17-.06.23.23,0,0,0-.26.1.25.25,0,0,1-.26.1.64.64,0,0,1-.18-.06,1.56,1.56,0,0,1,.49-1.18h-2a1.22,1.22,0,0,1,.45,1.16v.16h-.89l-.14.34L138,1.81l.2-.45h0a.86.86,0,0,0-.29-.35,1.34,1.34,0,0,1-.47-.69l-.18,0h-.11c.39.42.65,1,.4,1h-.07c-.41-.08-.58-.53-.77-1l-3.39.36a19.64,19.64,0,0,1-2.42.08h-.29l.26.16a1.93,1.93,0,0,0,.62.26,1,1,0,0,0,.3,0,.62.62,0,0,1,.57-.24,1.11,1.11,0,0,1,.77,1A9.85,9.85,0,0,1,129.87.92L130,.81l-.84,0,.32.18a3.29,3.29,0,0,0,.42.21l.62.22-.41.32a1.69,1.69,0,0,1-1.35.36,2,2,0,0,1-.77-.35,1.39,1.39,0,0,0-.56-.27,1.28,1.28,0,0,0-.39,0l-1.28.16.57-.69a.58.58,0,0,0,.08-.12l-.23-.07-.25,0c-.45,0-.91,0-1.36,0L120.69.8l-2.37,0a1,1,0,0,1-.81.11,1.19,1.19,0,0,1-.32-.1h-1l.08,0c.31,0,.53.27.31.6l-1-.18c.09-.12.05-.21-.09-.26A.8.8,0,0,1,116,.88h-3a.52.52,0,0,1-.1.58l.35.16.37.17.27.13,0,.2a.83.83,0,0,1,0,.15,2.12,2.12,0,0,1,.42,0,2.33,2.33,0,0,1,.53.16l.32.16-.09.23h0c.54.15.21.67-.4.56l-.07,0-.18.1,2.27-.18a2.54,2.54,0,0,0-.39,0c-.3-.32.44-.5.44-1l-.07,0a.33.33,0,0,0-.38.19.32.32,0,0,1-.37.18l-.14,0c.42-.43-.22-.51-.05-.86l.53.08a7.6,7.6,0,0,1,3,1.32,12,12,0,0,1,1.43.08l3.52.47a.8.8,0,0,0-.15-.17c.64-.4.49-1-.28-1.26a2,2,0,0,1,1.59-.5,1.3,1.3,0,0,1,.43.15c-.45.43-.33.59-.49,1.12-.25.33.94.21.58.59h0l-.26-.05-.27,0a1.88,1.88,0,0,0-.84,0c-.07.1-.07.18,0,.24l.13,0a17.47,17.47,0,0,0,2.4.13h0l.07-.15.38.07,0,.07,3.45-.08,1.43-.06c0-.12,0-.25.29-.32h.05c.26,0,.39.14.44.26l.23,0,.45,0h0A.59.59,0,0,1,134,3.6a.2.2,0,0,1,.08,0l3.09-.25a21.89,21.89,0,0,1,2.43,0l.51,0c-.38-.17-.62-.4-.6-.71l.19,0,.31.08.31.07c.25,0,.44,0,.44-.18l.57.11c-.33.29-.11.51,0,.68l.75,0c0-.3.43-.68.72-.71h.14c.43.08.4.48.18.76l.39,0,1.32.06a.71.71,0,0,0,.18-.2h.17c.19,0,.21.12.17.2h.59l3.88,0c.67,0,1.76-.05,2.43-.12l3.93-.42a19.73,19.73,0,0,1,2.43-.08l3.88.14c.66,0,1.74,0,2.41,0a2.34,2.34,0,0,1-1.73-2,1,1,0,0,1,.38,0,4.84,4.84,0,0,1,1.26.54c-.06.52.38.89.19,1.45l2.95-.09a.4.4,0,0,1,0-.54l.23,0a.79.79,0,0,1,.29.13.72.72,0,0,0,.28.13h.11l-.1.23h0l2.44-.05,3.89,0h6.32c.67,0,1.77,0,2.44,0l3.89-.1,2.44,0,3.88,0c.68,0,1.77,0,2.44,0l3.89,0a19.09,19.09,0,0,1,2.39.19l3.24.51h.07a4.3,4.3,0,0,1,1.83.84l1.9,1.71a12,12,0,0,1,1.28,1.4l1.41,1.9a2.3,2.3,0,0,1,.38,1.58l-.52,2.58a16.21,16.21,0,0,0-.25,1.68l-.23,2.57a8.69,8.69,0,0,0,.06,1.69l.4,2.58a4.45,4.45,0,0,1,0,1,.8.8,0,0,1,.47,0c.29.06.54.22.34.43l-.27,0a1.57,1.57,0,0,1-.55-.19,3.42,3.42,0,0,1-.09.53l-.66,2.59a5.57,5.57,0,0,0-.14,1.68l.23,2.57a13.45,13.45,0,0,1,0,1.68l-.21,2.57a5.63,5.63,0,0,0,0,.58.27.27,0,0,0,.17-.3h.09c.23,0,.22.16.44.21a.89.89,0,0,1-.7.49c0,.25,0,.5,0,.7l.21,2.57a3.21,3.21,0,0,1-.41,1.63L210,43a5.08,5.08,0,0,1-1.38,1.35,4,4,0,0,0,.77.34.9.9,0,0,1-.69.11,1.82,1.82,0,0,1-.51-.18l-.66.42a.84.84,0,0,1,.18.66,1.65,1.65,0,0,1-.32,0,1.78,1.78,0,0,1-.55-.18l-.76.47a5,5,0,0,1-2.14.62l-3.24.1c-.67,0-1.77.1-2.44.16l-3.93.4a13.85,13.85,0,0,1-2.41,0l-3.9-.4a17.75,17.75,0,0,0-2.42-.05l-3.9.22c-.67,0-1.77.1-2.44.12l-3.9.14c-.81,0-1.61,0-2.42-.06L169,46.78a21.72,21.72,0,0,0-2.42,0L162.7,47c-.8,0-1.62,0-2.42,0l-3.89-.22a17.74,17.74,0,0,0-2.42.07l-3.93.42c-.67.07-1.76.14-2.43.16l-3.9.08a21.49,21.49,0,0,1-2.41-.11L137.4,47a13.86,13.86,0,0,0-2.41,0l-3.92.33q-1.22.09-2.43.06l-3.88-.15c-.81,0-1.62,0-2.44,0l-3.89.15-2.44.06-3.89.06c-.67,0-1.76,0-2.43,0l-3.88-.19h0a1.14,1.14,0,0,0-.24.78,5.55,5.55,0,0,1-1.06-.44.55.55,0,0,1,.2-.35c-.43,0-.87,0-1.3,0l-3.91.3-.58,0a2.41,2.41,0,0,1,.12.65,1.86,1.86,0,0,1-.34,0,.92.92,0,0,1-.84-.62l-.78,0-1.35-.15a.4.4,0,0,1-.1.12h-.23c-.13,0-.14-.08-.11-.16l-2.1-.22A16.69,16.69,0,0,0,91,47a.63.63,0,0,1-.39.39.93.93,0,0,1-.23,0,.58.58,0,0,1-.28-.12.64.64,0,0,0-.29-.13h-.11v0l-2.91.17c-.81,0-1.62,0-2.43,0l-3.88-.19c-.32,0-.64,0-1,0,.07.31-.25.73-.21,1a.8.8,0,0,1-.5-1c-.28,0-.54,0-.76.06l-3.92.39c-.67.07-1.76.11-2.43.1l-1.18,0c.54.29.9.63.62,1.17l-.23,0c-.76-.14-.54-.59-1.06-.81,0-.3.41-.18.55-.33l-2.58,0c-.67,0-1.77,0-2.44,0l-3.88,0-2.43-.07-3.88-.17c-.81,0-1.62,0-2.43,0l-3.91.25c-.81,0-1.62.07-2.44.08H42.73c.32.11.59.38.49.63-.33-.06-.37.19-.71.13l-.15,0c.18-.3-.25-.41-.11-.71-.71,0-1.42,0-2.12,0l-3-.15c0,.15,0,.3,0,.44-.61-.05-.8.34-1.48.21h0c-.17-.17,0-.43.09-.7h0a1.75,1.75,0,0,1-.72,0h-.75c-.08.11-.12.26-.3.27l-.26-.07a1.88,1.88,0,0,0-.47,0,1.78,1.78,0,0,1-.46,0h0l-.08-.1-2.77.14-2,.09c-.29.5.67.83,0,1.14a11.12,11.12,0,0,1-1.44-1.1l-1.35,0-.13.16a1,1,0,0,1-.24-.15l-1.11,0c-.8,0-1.61,0-2.42-.07l-3.89-.35-.94-.09h0c.14.4.62.7.53,1.18l-.28-.08a1.1,1.1,0,0,0-.54.05.92.92,0,0,1-.54,0,1.36,1.36,0,0,1-.28-.08c1-.2.08-.62-.46-.72a1,1,0,0,0-.25,0,.79.79,0,0,1-.37-.62L12,46.83l-.4-.06c-.21,0-.43-.09-.64-.15a.31.31,0,0,1-.08.25c-.19,0-.37,0-.55-.09-.53-.09-.93-.23-.6-.6h0L9.38,46c.08.4-.3.94-.4,1.39-1.35-.38-.24-1.14-.05-1.63L7.4,45A3.07,3.07,0,0,1,6.17,43.7c-.35-.14-.47-.34-.29-.64l.06,0-.1-.27-.63-.11.14-.34a1.55,1.55,0,0,1,.31,0l-.29-.76a5.44,5.44,0,0,1-.28-1.65l.06-2.57c0-.47.07-1.23.13-1.69l.34-2.57a13.78,13.78,0,0,0,.09-1.69l-.07-2.57a11.47,11.47,0,0,1,.09-1.66l0,0-.77-.14c0-.23.3-.29.53-.25a.39.39,0,0,1,.3.19l.36-2.44a10.58,10.58,0,0,0,.09-1.69L6.1,20.31c0-.46,0-1.22,0-1.69l.08-2.56c0-.46,0-1.23.09-1.69l.17-2.56a6.9,6.9,0,0,1,.36-1.68L7.6,7.91A2.74,2.74,0,0,1,9,6.64l2.82-1.17A12.8,12.8,0,0,1,14,4.82L17,4.32c.66-.11,1.74-.23,2.41-.27l3.91-.19c.67,0,1.76-.06,2.43-.06l3.9,0,2.44,0,3.22-.07c-.15-.11-.22-.25-.13-.38l.08,0a.9.9,0,0,1,.44.2,1.1,1.1,0,0,0,.24.15h0c.67,0,1.77,0,2.44,0l3.89-.05h2.44l3.88,0c.67,0,1.76,0,2.43.08l3.88.24c.81.05,1.62.08,2.43.08h1.27c-.2-.06-.4-.1-.6-.14a8.62,8.62,0,0,0-.87-.11c0-.32-1-.64-.24-.89l.27,0c.57.11.23.5.69.64l.12,0A1.24,1.24,0,0,0,59.31,3h0a.84.84,0,0,1,.52.29.84.84,0,0,0,.52.3l.34,0c-.08.23-.33.28-.59.31h3.67l-.11,0c.11-.43.44-.63,1.06-.53A.86.86,0,0,1,64,4l2.53,0a1.07,1.07,0,0,1,.11-.46c-.57-.13-.32-.52-.17-.88.19,0,.09.17.1.26.23,0,.25-.17.33-.3l.58.11a.46.46,0,0,1-.3.28l.38.09c.78.17.92.56.92.89L70,3.88l3.94-.47a12.83,12.83,0,0,1,2.4,0l3.9.46A21.49,21.49,0,0,0,82.63,4l3.9-.08,2.43,0,3.89,0,2.44,0,3.38-.07a.53.53,0,0,0,.11-.43l.58.1a3.29,3.29,0,0,0-.09.32l2.35,0,.57,0c-.54-.27.36-1,.63-1.06.23.16,0,.84-.34,1.06l3-.08h.06c-.06-.57-.17-1.06.38-1.49H106a4.4,4.4,0,0,1,1.18.46,1.58,1.58,0,0,0-.44,1H108l3.88.06h.7c-.3-.06-.61-.13-.91-.21l-.44-.11-.51-.12.1-.3a.81.81,0,0,1,.64-.46,1.52,1.52,0,0,1,0-1.5h-.66L111,1l-.14.33h-.09c-.33-.06-.45-.19-.37-.37h-2.28c-.37.43-1.54,0-1.73.65-.31-.19-.66-.36-.7-.64h-.08l-3.89.1-2.44,0-3.88,0c-.82,0-1.63,0-2.44,0H91.12c0,.27.2.59.18.85a6.86,6.86,0,0,1-.9-.09,17.67,17.67,0,0,1-2.47-.77H82.75C81.94,1,81.14,1,80.34.9L76.44.42a11.33,11.33,0,0,0-2.4,0h-.12c0,.11-.2.13-.37.1l-.13,0L70.09.92,70,.94c-.3.56.42,1.05.26,1.8-1-.32-.72-1.06-1-1.62A1.25,1.25,0,0,0,69.9.94,16.46,16.46,0,0,1,67.68,1L63.79.72c-.8,0-1.61-.08-2.42-.1L59.74.6l-.23.53a1.85,1.85,0,0,1-.84,0L58.3,1A3.07,3.07,0,0,1,59,.58l-1.48,0c-.81,0-1.62,0-2.43.1l-3.92.39a15,15,0,0,1-2.42,0L44.82.69a17.76,17.76,0,0,0-2.42,0l-.58,0s0,0,0,.07L41.68.72,38.49.93c-.81,0-1.62.08-2.43.07L32.18,1c-.81,0-1.63,0-2.44.07l-1.8.12a.37.37,0,0,1,0,.11c-.2,0-.41-.06-.61-.07l-1.51.1c-.66,0-1.76.06-2.43,0l-3.88-.13H19c0,.08,0,.15,0,.22a.27.27,0,0,0-.19-.14c-.29-.05-.72.24-.34.41a.54.54,0,0,1-.3.07c-.19,0-.26-.28-.18-.51-.32,0-.61.06-.85.1l-3.36.52c-.66.1-1.72.31-2.36.47l-3.45.85a4.1,4.1,0,0,0-1.81,1L4.2,6.35A2.57,2.57,0,0,0,4,6.59a1.67,1.67,0,0,1,.38,0l.26.06.27.05c.38.07.73.08.88-.27.3.23.61.75,0,1a9.1,9.1,0,0,0-1.12-.28,8.62,8.62,0,0,0-1-.13c-.22.3-.45.61-.6.84L1.55,10.19l0,.06c.29.22.23.55.4.82"/></g><path class="cls-3" d="M15.38,50.57l1.13,0a2.22,2.22,0,0,0-.34-.22,2.67,2.67,0,0,0-.79.18M105.69,5a3.35,3.35,0,0,1,.47.06,2.53,2.53,0,0,1,1.48.78h.19l3.91-.33.25,0a2.75,2.75,0,0,1-.21-.82h-3.92c-.4,0-1,0-1.47,0a1.77,1.77,0,0,1-.7.31m9.73.53L118,5.7l1.06,0a0,0,0,0,1,0,0,.17.17,0,0,1,.12-.05l.09.06.09,0h1.34c-.08-.31.21-.61.47-.88h0l-.74,0-1.89,0c.33.22.44.62-.11.92h-.07a.64.64,0,0,1-.51-.34.66.66,0,0,0-.51-.33h-.06a.82.82,0,0,1,.25-.24H117a.37.37,0,0,0,.2.1c-.1.11-.41,0-.48.15-.2,0-.28-.14-.29-.26H115c-.27.24.54.48.43.83m-1.83-.09.57,0,1.13.06a3,3,0,0,1-.93-.83h-1.27a7.29,7.29,0,0,0,.5.77m-31,.29,3.88-.16c.67,0,1.77-.05,2.44-.05l3.87,0h2.44l3.87,0c.63,0,1.64,0,2.31.07a.49.49,0,0,0,0-.5,21.89,21.89,0,0,1-2.28,0L95.23,5c-.81,0-1.62,0-2.43,0l-3.89.23c-.81,0-1.62.07-2.44.08l-3.87,0c-.65,0-1.31,0-2-.07a1.23,1.23,0,0,1-.35.52c.77,0,1.55,0,2.32,0M20.23,45.82l-.1-.09H17.56a12.94,12.94,0,0,1-2.15-.21l-.22,0-.59-.13a.47.47,0,0,1,.06.15l.53.12.31.07a13.65,13.65,0,0,0,2.05.2h3.14l-.19,0a1.24,1.24,0,0,0-.27,0M78.32,5.08v0l-.19,0,.19,0M103,5.15l.39.08-.1.23-.38-.07.09-.24m-1.14.54,3.6.26.46,0c-.45-.21-.91-.41-1.33-.63.23-.24,0-.32,0-.48l-2.19.19a.87.87,0,0,0-.54.64M146,5.44l3.56-.08c.67,0,1.76,0,2.43,0l.3,0c.13-.1.28-.19.4-.3.16.1.36.24.59.36l1.35.08a.65.65,0,0,1,.08-.31,1.18,1.18,0,0,1,.29.32l.86,0c.66,0,1.76.06,2.43,0l3.38-.08a.89.89,0,0,1,.58,0l.16,0h0c.4-.43-.38-.5-.7-.7l-.83,0c-.14.23-.41.32-.5.6a4.21,4.21,0,0,1-1.28-.62h-.83l-2.44-.05-2.17-.06a.3.3,0,0,1,0,.1.52.52,0,0,1-.3,0,.51.51,0,0,1-.26-.14l-.82,0c-.14.35-.46.5-1,.41-.12-.14,0-.31.25-.42-.64,0-1.29,0-1.93,0l-3.23.21c-.23.19-.33.32-.34.51M46.09,46.14a.86.86,0,0,1-.23.06s0,0,.16-.1a.58.58,0,0,1,.22,0s-.05,0-.15.07m-16.63-.57.06-.09-.06.09m-.08.11-.07.1.07-.1m-2.63.24a.18.18,0,0,1-.16-.15c0-.05.05-.1.15-.09a.87.87,0,0,1,.31.19.63.63,0,0,1-.3.05M79.4,45.6v0l-1.19,0-3.87,0c-.67,0-1.76,0-2.43,0L68,45.41q-1.22,0-2.43,0l-3.89.18c-.81,0-1.62,0-2.42,0l-.52,0a.73.73,0,0,1,0,.39,1.17,1.17,0,0,1-.77-.44l-2.54-.19a16.43,16.43,0,0,0-2.43,0l-3.9.37a16.43,16.43,0,0,1-2.43,0l-3.87-.27-.39,0,0,0-.08,0c-.64,0-1.28-.06-1.91-.07l-3.87-.06-2.44-.05-3.86-.07q-1.23,0-2.43.09l-2,.19a1,1,0,0,1,.48.75l1.51.12c.35,0,.84,0,1.31,0a3.68,3.68,0,0,1-.95-.52.58.58,0,0,1,.37,0c.34.06.68.36.65.56h.28a.43.43,0,0,1,0-.16,4.56,4.56,0,0,1,.56.14h.2l2-.12a.7.7,0,0,1,.07-.22h.15c.16,0,.2.11.21.19l1.5-.1c.81,0,1.63-.07,2.44-.07h3.87c.67,0,1.77,0,2.43.06H43a.69.69,0,0,1-.09-.53,5.59,5.59,0,0,1,1.2.59h0l2.53.13,2.42.09,3.87.1h.37l0-.08h.18a.19.19,0,0,1,.15.08c.59,0,1.25,0,1.71,0l3.88-.2,1.12-.06a.93.93,0,0,1,.51-.45h0c.35.06.44.21.45.38l.33,0,3.89-.24c.67,0,1.77-.08,2.44-.08l3.87,0c.67,0,1.77,0,2.43,0l3.88.16c.53,0,1.33,0,2,0a.66.66,0,0,0-.49-.31l-.31,0"/><path class="cls-3" d="M209,9.67h0c.58.1.3.48.28.77l-.21,0c-.76-.14-.29-.4-.07-.75M153.86,45.1c-.15,0-.28-.15.08-.28.29.24.09.31-.08.28m-.45.47L153,45.5c0-.19.26-.16.34-.3l.38.07c0,.19-.26.16-.34.3m-62.92-.23-.38-.07.1-.22.38.07-.1.22M163.58,5.57l1,0,3.87.11,2.43,0,2.44,0a.67.67,0,0,1,.1-.23l.2,0c.17,0,.17.12.13.22h1l2.44,0h3.87q1.22,0,2.43-.09l3.9-.33a21.9,21.9,0,0,1,2.43,0l3.87.2c.81,0,1.62,0,2.43,0l3.89-.23a10.28,10.28,0,0,1,2.12.15l.24,0,3.22.75a2.32,2.32,0,0,1,1.47,1.08l.83,2.05a5.53,5.53,0,0,1,.35,1.65l.06,2.56c0,.46,0,1.23,0,1.69l-.2,2.56a15.88,15.88,0,0,0,0,1.69l.2,2.57a7.27,7.27,0,0,1-.11,1.68l-.55,2.57a6.38,6.38,0,0,0-.08,1.69l.29,2.56a11.94,11.94,0,0,1,.06,1.69l-.11,2.56c0,.46-.06,1.23-.1,1.69l-.2,2.56a3.48,3.48,0,0,1-.66,1.6l-1.55,1.94a3.22,3.22,0,0,1-1.14.79c.18.09.27.2.18.38-.46,0-1,0-1.44,0l-2.35.48c-.79.15-1.59.28-2.39.37l-3.93.43-.29,0a.25.25,0,0,0,0,.21l-.14,0c-.18,0-.27-.09-.3-.17a16.41,16.41,0,0,1-1.71,0l-3.87-.23c-.81,0-1.62-.07-2.43-.07h-3.88q-1.22,0-2.43.09l-3.9.27c-.81,0-1.62.08-2.44.09l-3.87,0c-.67,0-1.77,0-2.44,0l-3.87-.07c-.8,0-1.61-.06-2.41-.14l-3.88-.38a14.92,14.92,0,0,0-2.41,0l-3.92.39q-1.22.1-2.43.09l-3.87-.09c-.67,0-1.76,0-2.43,0l-3.89.18c-.81,0-1.62.06-2.44.08l-3.87,0h-6.31c-.81,0-1.62,0-2.43-.09l-3.87-.3a19.54,19.54,0,0,0-2.42,0l-3.89.24c-.82.05-1.63.07-2.44.08h-1.52a.73.73,0,0,1-.41.18c-.13-.06-.17-.11-.17-.18h-1.77q-1.22,0-2.43-.06l-3.87-.19c-.67,0-1.76-.08-2.43-.1l-3.87-.1h-.72c.2.2,0,.68-.35.77-.37-.16-.33-.46-.26-.77l-1.1,0L87,45.12l-2.43.14-3.89.24h-.06c-.08.13-.22.28-.3.42h.37l3.88-.17c.67,0,1.76,0,2.43,0h.09a.86.86,0,0,0,0-.23,1.14,1.14,0,0,1,.47.26l3.29.24a16.29,16.29,0,0,0,2.42,0l3.91-.37a17.79,17.79,0,0,1,2.42,0l3.88.27c.66,0,1.75.09,2.42.1l3.87.06h.08a.37.37,0,0,1,.06-.54l.35,0a1.93,1.93,0,0,1,.9.42l-.12.09,1.16,0h.4a.24.24,0,0,1,0-.19h.1c.2,0,.33.1.37.19l3,.06c.67,0,1.77,0,2.43-.09l3.91-.37c.67-.06,1.76-.11,2.43-.11h3.87c.67,0,1.77,0,2.44,0l3.88-.1c.67,0,1.76,0,2.43,0l3.87.13h.29a.5.5,0,0,1,.08-.27,1.46,1.46,0,0,1,.5.27c.54,0,1.14,0,1.56,0l3.88-.14a21.66,21.66,0,0,1,2.42.07l3.88.38a19.51,19.51,0,0,0,2.42,0l3.89-.19c.67,0,1.76-.05,2.43,0l3.87.08,2.43,0h3.88c.67,0,1.76,0,2.43-.1l3.9-.33c.67-.05,1.77-.11,2.44-.12l3.87-.08c.67,0,1.76,0,2.42.11l3.88.44a17.64,17.64,0,0,0,2.41.06l3.89-.23a13.55,13.55,0,0,0,2.38-.37l3.31-.85c0-.16.21-.32.5-.44l.57.11a3.24,3.24,0,0,0,1.19-.88l1.72-2.44a4.73,4.73,0,0,0,.69-1.61l.43-2.57c.08-.46.19-1.22.24-1.69l.3-2.56a16.15,16.15,0,0,0,.1-1.7V28c0-.46,0-1.22-.06-1.68l-.17-2.57a9.6,9.6,0,0,1,.07-1.69l.37-2.56c.07-.47.14-1.23.16-1.69l.11-2.56a13.63,13.63,0,0,0,0-1.69L209.73,11a4.59,4.59,0,0,0-.52-1.62L207.81,7a2.69,2.69,0,0,0-1.6-1l-3.77-.77A15.86,15.86,0,0,0,200.06,5l-3.88,0h-2.43l-3.88,0c-.81,0-1.62,0-2.43-.07l-3.87-.26a19.52,19.52,0,0,0-2.42,0l-.53,0a.61.61,0,0,1,.43.32.67.67,0,0,0,.51.34h.07a.81.81,0,0,1-.68.12c-.56-.1-1.11-.53-.61-.77l-3.1.27c-.81,0-1.62.07-2.43,0l-3.87-.21c-.81,0-1.62-.05-2.43,0l-3.88.08c-.56,0-1.12,0-1.68,0,.36.25,1,.41.63.69m-40.8.08-.1,0a.52.52,0,0,0-.42.07h.66Z"/><path class="cls-3" d="M163.23,5.45a.5.5,0,0,0-.36.12h.55a.3.3,0,0,0-.19-.12m-137.64,40-1.73.16c-.55,0-1.11.08-1.67.1a1.76,1.76,0,0,0,.3.21l1.36.08,1.65.12c.29-.18,0-.29.09-.67m178.47-2a2.57,2.57,0,0,1-.54.17h0a.48.48,0,0,0,.53-.19M35.33,5.74c-.09.13-.4,0-.63,0,.09-.13.39,0,.63,0M9.06,12.24c.26,0,.33.16.53.23v-.66a2.58,2.58,0,0,1,.75-1.54l2-1.88a5.94,5.94,0,0,1,1.87-1.05l2.89-.89a9.69,9.69,0,0,1,2.35-.37L23.37,6l2.44,0,3.88-.09c.67,0,1.76,0,2.43,0L36,6.11l2.43.1,3.87.11c.67,0,1.77,0,2.44,0l2.11-.06c-.15-.31.22-.79-.51-.93l-.24,0a.48.48,0,0,0,.12-.16l-.69.06a1.5,1.5,0,0,0-.11.22.37.37,0,0,1-.27-.19l-.39,0-1.34.08c-.18.06-.33.15-.21.4h-.05a.28.28,0,0,1-.25-.37h-.58l-3.88,0H36l-3.87,0-2.44,0-3.87-.05-2.43,0L19.53,5.1a7.39,7.39,0,0,0-2.31.36L13.45,6.79a5.12,5.12,0,0,0-1.76,1.12L9.58,10.24a3.1,3.1,0,0,0-.71,1.57l0,.44,0,0,.18,0M68.53,5.3c.32.19.31.4.29.48a.51.51,0,0,1-.13.24L70,6l2.86-.2A3.25,3.25,0,0,1,71.5,5c.13-.17.45-.14.71-.18l-1.15,0a.49.49,0,0,1,0,.29,1.84,1.84,0,0,1-.74,0L70,5.12A1.05,1.05,0,0,0,70,4.93l-.87,0-.11.1a1.35,1.35,0,0,1-.45.25m74.74.25c.66,0,1.76-.09,2.43-.11a5.05,5.05,0,0,0-.25-.45q-1.09.06-2.19.09l-1.81,0a2.92,2.92,0,0,0,.31.53l1.5-.1ZM51.8,5c.09,0,.17.08.15.14a1.08,1.08,0,0,1-.31,0s-.09,0-.08-.1A.28.28,0,0,1,51.8,5m2.31.41c.42.31-.36.52-.84.43A.43.43,0,0,1,53,5.72c.31-.17.85-.1,1.16-.27m-6.6.14a1.26,1.26,0,0,0,.3,0,1.88,1.88,0,0,1-.44.63l1.23,0h.26c-.35-.1-.09-.39,0-.63h.05c.46.09.39.35.3.62L51,6.12a1.19,1.19,0,0,1,.73,0l3.24-.18c.67,0,1.77,0,2.43,0L61.23,6c.67,0,1.76,0,2.43,0h2.89l0-.06.21-.07a.64.64,0,0,0,.46-.56l0-.22L67,5l-3.29,0c-.81,0-1.63,0-2.44.06l-.43,0c0,.14-.06.28-.29.41-.08-.13-.16-.26-.25-.38l-1.15.08c.34.14.72.27.68.53h0a.79.79,0,0,1-.3-.12.86.86,0,0,0-.3-.11H59.1c-.21,0-.29.19-.59.13l-.08,0c-.19-.18-.09-.28.08-.36l-.37,0a.21.21,0,0,1,0,.15l-.13,0-.24,0-.25,0h-.1a21.69,21.69,0,0,1-2.42,0l-3.88-.28h0a.42.42,0,0,1,.13.58,2.25,2.25,0,0,1-.71-.61c-.47,0-1,0-1.44,0a.35.35,0,0,1-.21.29A1.7,1.7,0,0,1,48.38,5l-1.2.1c-.07.24-.09.45.33.52M11.86,44.75l-.07,0-.21,0,0-.05a2.53,2.53,0,0,1-1.28-.94L9,41.51a4.16,4.16,0,0,1-.46-1.62l0-1.75A1.31,1.31,0,0,1,7.93,38l0,0-.21,1.91a2.57,2.57,0,0,0,.47,1.58L9.93,43.8a3.45,3.45,0,0,0,1.7,1l2.32.53a.5.5,0,0,1,0-.12l-2.11-.46Zm-3-13-.38-.07.09-.22.39.07ZM8,31.5c-.17-.63.81-1.1.92-1.64C10.39,30.44,8.29,30.85,8,31.5Zm.51,5.82a7.36,7.36,0,0,1,.21-1.68l.68-2.58a6.94,6.94,0,0,0,.18-1.69l-.13-2.54s-.06-.06,0-.09l0,0a13.68,13.68,0,0,1,.05-1.58l.07-.75c-.51-.1-.38-.39-.77-.52a.59.59,0,0,1,.53-.14,1.21,1.21,0,0,1,.3.11l.12-1.26c0-.47.11-1.23.13-1.69L10,20.31A11.89,11.89,0,0,0,10,18.62l-.31-2.57a15.76,15.76,0,0,1-.09-1.68v-1a.86.86,0,0,1-.32,0h0a.88.88,0,0,1-.42-.24l-.07,1.25a13.46,13.46,0,0,0,0,1.68L9,18.63a15.9,15.9,0,0,1,.05,1.69l-.11,2.56c0,.46-.07,1.23-.11,1.69l-.22,2.34a1,1,0,0,1,.17-.1.72.72,0,0,1,.14,1.11.78.78,0,0,1-.41-.22c-.06.39-.14.82-.22,1.12L7.6,31.4a5,5,0,0,0-.09,1.67l.41,2.58a7.85,7.85,0,0,1,0,1.68l0,.26a1.65,1.65,0,0,1,.58.26v-.53ZM72.65,5.24c.43,0,.51-.27,1-.18l.11,0a1.27,1.27,0,0,1,0,.62h.07c.67,0,1.76-.06,2.43,0l2.21.07a1.53,1.53,0,0,1-1-.75L76.3,4.85h-.1a.84.84,0,0,1,.29.62c-.32-.19-.8-.34-.76-.65-.61,0-1.23,0-1.84,0l-1,0c-.24.12-.54.15-.26.42M9.58,12.75v-.24a.6.6,0,0,1-.44,0,.68.68,0,0,1-.31-.11v.14l.24,0a2,2,0,0,1,.51.14M127.64,5.09c.22.1.33.22.24.41l-.26,0c-.41-.08-.27-.29,0-.39m-4.09.37-.13.22h.6l-.13-.06c.18-.4,1.11-.05,1.11-.64l.18,0c.4.07,0,.28-.13.35a2.63,2.63,0,0,1,.57.31h1.15l2.77,0a.65.65,0,0,1,0-.24l.14,0a1,1,0,0,1,.53.23h.41l1.48,0a.64.64,0,0,1,.37-.35h0a3.75,3.75,0,0,1,.43.12,2.28,2.28,0,0,0,.35.11.36.36,0,0,0,.44-.25c.32.09.45.24.49.41l.5,0-.27-.17a.32.32,0,0,1,.34-.14,1.74,1.74,0,0,1,.32.11,2.1,2.1,0,0,0,.44.13,1.29,1.29,0,0,0,.29,0l0,.06,1.12,0c.67,0,1.76,0,2.43,0l1-.06c-.13-.2-.23-.41-.35-.59h-.65c-.81,0-1.62,0-2.43,0l-3.87-.22c-.81,0-1.62-.05-2.43,0L126.77,5c-.81,0-1.62,0-2.43,0l-.82,0a.42.42,0,0,1,0,.55"/><path class="cls-4" d="M94.52,34.24a.36.36,0,0,0,0-.11m6-4.68a.05.05,0,0,1,0,.05"/></g></g></svg>