<?xml version="1.0" encoding="UTF-8"?>
<svg width="67px" height="62px" viewBox="0 0 67 62" version="1.1" xmlns="http://www.w3.org/2000/svg" xmlns:xlink="http://www.w3.org/1999/xlink">
    <!-- Generator: sketchtool 53 (72520) - https://sketchapp.com -->
    <title>2691D9F0-22D3-47FB-BEC2-5837D7A989D2</title>
    <desc>Created with sketchtool.</desc>
    <g id="top-estate" stroke="none" stroke-width="1" fill="none" fill-rule="evenodd">
        <g id="продавцам" transform="translate(-280.000000, -1559.000000)" fill="#B9A787" fill-rule="nonzero">
            <g id="house-value" transform="translate(279.900000, 1559.000000)">
                <path d="M59.0222357,23.3209787 L59.0222357,9.60827834 L49.9877157,9.60827834 L49.9877157,15.0821533 L33.550009,0 L0.1,30.5043985 L7.82662262,30.5043985 L7.82662262,62 L59.3233864,62 L59.3233864,30.5043985 L67.1,30.5043985 L59.0222357,23.3209787 Z M39.9470514,47.214935 C38.8541757,48.190693 37.4983954,48.8623972 35.9173544,49.2103631 L35.9435545,52.7587666 L31.0528677,52.7711831 L31.0299802,49.2230824 C29.5606661,48.8832934 28.4994112,48.1837276 27.2342772,47.1310477 C25.5520496,45.6737704 24.6750989,43.9711909 24.6190849,42.0632843 L24.6181814,42.0308801 L24.7371359,40.5003151 L29.4483369,40.483053 L29.4829693,41.4188358 C29.502544,42.6819911 29.8675387,43.5993005 30.5987325,44.2364808 C31.3329378,44.8997055 31.9662576,45.232832 33.4126843,45.232832 C34.8368258,45.221324 35.9423499,44.8748724 36.6946242,44.2031681 C37.4170847,43.5626566 37.7676241,42.6683632 37.7676241,41.4672906 C37.7676241,40.5136401 37.4475009,39.81468 36.7593716,39.2680496 C35.974573,38.6490399 34.5615741,38.0954442 32.5619337,37.6242215 C30.136165,37.056695 28.2759574,36.1754239 27.0328074,35.0049383 C25.7071422,33.7399659 25.031059,32.1485295 25.0202175,30.2721185 C25.0063646,28.1222408 25.8402508,26.3330484 27.4983864,24.9545102 C28.4698984,24.142287 29.6106571,23.5714293 30.8944624,23.2534448 L30.8709727,20.149311 L35.7598526,20.1153927 L35.772802,23.1135317 C37.2074838,23.3960836 38.145267,23.9778437 39.2122438,24.8518466 C40.805632,26.1922267 41.6717413,28.0268455 41.7922015,30.3099738 L41.8268339,31.3105648 L37.0948535,31.3402433 L36.9647564,30.5286259 C36.8051465,29.3314902 36.4272024,28.4702067 35.8390552,27.9508321 C35.2162756,27.401779 34.7805106,27.173133 33.6972717,27.173133 L33.6283082,27.173133 C32.3836525,27.173133 31.3883495,27.4641645 30.7438871,28.0174574 C30.1199029,28.5422831 29.8347132,29.2382148 29.8428443,30.2124585 C29.8428443,31.0295271 30.1147834,31.6491425 30.6749236,32.1121884 C31.1278542,32.4958896 32.1005708,33.0485769 34.1953749,33.5322161 C36.9144642,34.1748475 38.9951142,35.134252 40.3822141,36.3843851 C41.8415903,37.7120458 42.580614,39.3925178 42.580614,41.3803748 C42.5950692,43.7370938 41.7087828,45.7013291 39.9470514,47.214935 Z" id="Shape"></path>
            </g>
        </g>
    </g>
</svg>