<?xml version="1.0" encoding="UTF-8"?>
<svg width="92px" height="61px" viewBox="0 0 92 61" version="1.1" xmlns="http://www.w3.org/2000/svg" xmlns:xlink="http://www.w3.org/1999/xlink">
    <!-- Generator: sketchtool 53 (72520) - https://sketchapp.com -->
    <title>98DB00C3-DC6C-41D7-80A2-764CE0D5143F</title>
    <desc>Created with sketchtool.</desc>
    <g id="top-estate" stroke="none" stroke-width="1" fill="none" fill-rule="evenodd">
        <g id="продавцам" transform="translate(-877.000000, -1560.000000)" fill="#B9A787" fill-rule="nonzero">
            <g id="house-visiting" transform="translate(877.000000, 1560.000000)">
                <path d="M22.9001512,36.5718542 C25.374446,34.9784462 27.0181956,32.1814192 27.0181956,28.9895796 C27.0181956,24.0241658 23.0483341,20 18.1524418,20 C13.2554235,20 9.28556194,24.0241658 9.28556194,28.9895796 C9.28556194,32.1814192 10.9317888,34.9784462 13.4036064,36.5718542 C6.04693143,38.6696816 0.651315789,45.5191895 0.651315789,53.6494979 C0.651315789,63.4501674 35.6513158,63.4501674 35.6513158,53.6494979 C35.6513158,45.5191895 30.2568262,38.6708233 22.9001512,36.5718542 Z" id="Path"></path>
                <path d="M90.9021111,34.6915025 L73.7191634,17.7408059 L73.7191634,6.5613126 C73.7191634,5.16897906 72.5750359,4.03783493 71.1597383,4.03783493 C69.7469557,4.03783493 68.6028282,5.16897906 68.6028282,6.5613126 L68.6028282,12.6952038 L56.4801982,0.738908906 C55.4828592,-0.246302969 53.8636124,-0.246302969 52.8676453,0.738908906 L35.6513158,17.7225361 C37.121259,18.6353458 38.3051703,19.944225 39.0526029,21.5009861 L54.6759796,6.08765304 L87.2907014,38.2601889 C87.7868558,38.7509904 88.4435174,39 89.0965206,39 C89.748152,39 90.4059567,38.7545992 90.903483,38.2601889 C91.9008219,37.2715937 91.9008219,35.675361 90.9021111,34.6915025 Z" id="Path"></path>
                <path d="M82.845429,37.4282478 L56.1079399,10.7395759 C55.6331591,10.265662 54.993953,10 54.3254256,10 C53.6568981,10 53.0165643,10.265662 52.5429113,10.7395759 L39.6336102,23.6241816 C39.7256342,24.1361437 39.7820215,24.6625146 39.7820215,25.2001424 C39.7820215,26.352395 39.56369,27.4715523 39.1538673,28.5051575 C42.7741555,31.1329596 45.0571631,35.3957086 45.0571631,40.0378139 C45.0571631,41.6565508 44.3272864,45.3143559 38.184683,47.0789818 C38.6802143,48.870399 38.9477155,50.7428657 38.9477155,52.6617106 C38.9477155,55.3165292 37.6877984,57.3970227 35.6513158,59 L44.1405317,59 C45.8298943,59 47.460163,58.2872154 48.6133954,57.0406304 C49.6610708,55.911567 50.2375742,54.4459234 50.2375742,52.9127386 L50.2375742,43.3466563 C50.2375742,41.0250408 52.0200885,39.0863838 54.322719,38.8673252 C56.6253495,39.0866089 58.4078638,41.0261665 58.4078638,43.3466563 L58.4078638,52.9127386 C58.4078638,54.4459234 58.9857205,55.911567 60.0309149,57.0406304 C61.1816662,58.2872154 62.8119349,59 64.5037785,59 L77.555401,59 C80.9142778,59 83.6513158,56.2704358 83.6513158,52.9127386 L83.6513158,39.8849457 C83.6513158,39.5040134 83.615679,39.1172276 83.5385413,38.7326931 C83.4429084,38.2364906 83.2024731,37.7846401 82.845429,37.4282478 Z" id="Path"></path>
                <path d="M25.6513158,36.1995557 C29.7868052,38.0399334 33.0859114,41.1839489 35.0808662,45 C38.7646854,44.4150514 41.6513158,43.0763121 41.6513158,40.9786726 C41.6513158,36.1524577 38.2404586,32.086476 33.589841,30.839489 C35.1531895,29.8908636 36.1948774,28.231769 36.1948774,26.3360733 C36.1948774,23.388892 33.6836279,21 30.5900598,21 C28.7259866,21 27.080283,21.8688698 26.0612252,23.1991669 C27.4227685,24.9475701 28.2386213,27.1020828 28.2386213,29.4389892 C28.2374548,31.9582894 27.3047183,34.3327409 25.6513158,36.1995557 Z" id="Path"></path>
            </g>
        </g>
    </g>
</svg>