<?xml version="1.0" encoding="UTF-8"?>
<svg width="54px" height="52px" viewBox="0 0 54 52" version="1.1" xmlns="http://www.w3.org/2000/svg" xmlns:xlink="http://www.w3.org/1999/xlink">
    <!-- Generator: sketchtool 53 (72520) - https://sketchapp.com -->
    <title>8F382A26-9A0C-4A81-B2BA-9E876CC56291</title>
    <desc>Created with sketchtool.</desc>
    <g id="top-estate" stroke="none" stroke-width="1" fill="none" fill-rule="evenodd">
        <g id="карточка-квартиры" transform="translate(-807.000000, -996.000000)" fill="#B9A787" fill-rule="nonzero">
            <g id="select" transform="translate(807.000000, 996.000000)">
                <path d="M0.99422283,14 L6.24407266,14 C6.72712128,14 7.11884736,13.6086745 7.11884736,13.1248248 L7.11884736,6.99979974 L13.2438724,6.99979974 C13.7269211,6.99979974 14.1190476,6.60887479 14.1190476,6.12502504 L14.1190476,0.875175211 C14.1190476,0.390924957 13.7269211,0 13.2438724,0 L0.99422283,0 C0.511174215,0 0.119047619,0.390924957 0.119047619,0.875175211 L0.119047619,13.1248248 C0.119047619,13.6086745 0.511174215,14 0.99422283,14 Z" id="Path"></path>
                <path d="M13.2438724,45.0002003 L7.11884736,45.0002003 L7.11884736,38.8751752 C7.11884736,38.3913255 6.72712128,38 6.24407266,38 L0.99422283,38 C0.511174215,38 0.119047619,38.3913255 0.119047619,38.8751752 L0.119047619,51.1248248 C0.119047619,51.609075 0.511174215,52 0.99422283,52 L13.2438724,52 C13.7269211,52 14.1190476,51.609075 14.1190476,51.1248248 L14.1190476,45.874975 C14.1190476,45.3911252 13.7269211,45.0002003 13.2438724,45.0002003 Z" id="Path"></path>
                <path d="M49.2438724,0 L36.9942228,0 C36.5111741,0 36.1190476,0.390924957 36.1190476,0.875175211 L36.1190476,6.12502504 C36.1190476,6.60887479 36.5111741,6.99979974 36.9942228,6.99979974 L43.1192479,6.99979974 L43.1192479,13.1248248 C43.1192479,13.6086745 43.510974,14 43.9940226,14 L49.2438724,14 C49.726921,14 50.1190476,13.6086745 50.1190476,13.1248248 L50.1190476,0.875175211 C50.1190476,0.390924957 49.726921,0 49.2438724,0 L49.2438724,0 Z" id="Path"></path>
                <path d="M49.2438724,38 L43.9940226,38 C43.510974,38 43.1192479,38.3913255 43.1192479,38.8751752 L43.1192479,45.0002003 L36.9942228,45.0002003 C36.5111741,45.0002003 36.1190476,45.3911252 36.1190476,45.874975 L36.1190476,51.1248248 C36.1190476,51.609075 36.5111741,52 36.9942228,52 L49.2438724,52 C49.726921,52 50.1190476,51.609075 50.1190476,51.1248248 L50.1190476,38.8751752 C50.1190476,38.3913255 49.726921,38 49.2438724,38 L49.2438724,38 Z" id="Path"></path>
                <path d="M52.2521958,26.117457 L41.8523545,26.117457 L41.8523545,12.8821391 C41.8523545,12.394216 41.4639573,12 40.9858994,12 L13.2521958,12 C12.7741379,12 12.3857408,12.394216 12.3857408,12.8821391 L12.3857408,26.117457 L1.9858994,26.117457 C1.50744486,26.117457 1.11904762,26.5120769 1.11904762,27 C1.11904762,27.4879231 1.50744486,27.882543 1.9858994,27.882543 L12.3857408,27.882543 L12.3857408,41.1178609 C12.3857408,41.605784 12.7741379,42 13.2521958,42 L40.9858994,42 C41.4639573,42 41.8523545,41.605784 41.8523545,41.1178609 L41.8523545,27.882543 L52.2521958,27.882543 C52.7306504,27.882543 53.1190476,27.4879231 53.1190476,27 C53.1190476,26.5120769 52.7306504,26.117457 52.2521958,26.117457 Z M40.1190476,40.2353179 L14.1190476,40.2353179 L14.1190476,27.882543 L40.1190476,27.882543 L40.1190476,40.2353179 Z" id="Shape"></path>
            </g>
        </g>
    </g>
</svg>