<?xml version="1.0" encoding="UTF-8"?>
<svg width="86px" height="85px" viewBox="0 0 86 85" version="1.1" xmlns="http://www.w3.org/2000/svg" xmlns:xlink="http://www.w3.org/1999/xlink">
    <!-- Generator: sketchtool 53 (72520) - https://sketchapp.com -->
    <title>30798851-0909-45E1-A77B-0EE89C58D5B4</title>
    <desc>Created with sketchtool.</desc>
    <g id="top-estate" stroke="none" stroke-width="1" fill="none" fill-rule="evenodd">
        <g id="home-" transform="translate(-678.000000, -3418.000000)" fill="#C1AF8B" fill-rule="nonzero">
            <g id="Group-9" transform="translate(553.000000, 3418.000000)">
                <g id="tenant" transform="translate(125.000000, 0.000000)">
                    <path d="M78.9383664,54.4069352 L64.9354839,49.7370763 L64.9354839,46.8967364 C67.9652691,44.915929 70.2325872,41.8747636 71.2266728,38.3047583 C74.6226295,37.90043 77.2741935,35.0353216 77.2741935,31.5322581 L77.2741935,16.6203062 C77.2741935,12.8461285 74.8355043,9.54723736 71.2788873,8.41659049 C67.6941548,3.14224744 61.7617739,0 55.3768665,0 C44.7726184,0 36.1451613,8.62745716 36.1451613,19.2317052 L36.1451613,31.5322581 C36.1451613,35.0353216 38.7967253,37.90043 42.192682,38.3047583 C43.1847593,41.8761026 45.4540857,44.915929 48.483871,46.8967364 L48.483871,49.7370763 L34.4823274,54.4042575 C32.4667102,55.0756835 30.7764302,56.375693 29.6082961,58.0840474 C26.5457094,54.3928775 21.942123,52.0967742 16.9516129,52.0967742 C7.8796623,52.0967742 0.5,59.4764365 0.5,68.5483871 C0.5,77.6203377 7.8796623,85 16.9516129,85 C21.0946399,85 24.9692304,83.4134798 27.9193548,80.7679405 L27.9193548,85 L85.5,85 L85.5,63.5090096 C85.5,59.3726767 82.8638326,55.7136388 78.9383664,54.4069352 Z M71.7327526,35.410865 C71.7615376,35.0339828 71.7903226,34.6577699 71.7903226,34.2741935 L71.7903226,27.6717253 C73.3821981,28.2393917 74.5322581,29.7475902 74.5322581,31.5322581 C74.5322581,33.3376779 73.354752,34.8592647 71.7327526,35.410865 Z M55.3768665,2.74193548 C60.9035802,2.74193548 66.0319904,5.48654864 69.0965852,10.083441 L69.5718719,10.7977097 L70.0859848,10.9269075 C72.7047474,11.5822676 74.5322581,13.9218828 74.5322581,16.6203062 L74.5322581,26.0838662 C73.676742,25.4358697 72.6746235,24.9833433 71.5734312,24.7952369 C71.0405746,23.1417747 69.50493,21.9354839 67.6774194,21.9354839 L64.9354839,21.9354839 C61.1559506,21.9354839 58.0806452,18.8601784 58.0806452,15.0806452 L55.3387097,15.0806452 C55.3387097,18.8601784 52.2634042,21.9354839 48.483871,21.9354839 L45.7419355,21.9354839 C43.9144249,21.9354839 42.3787802,23.1417747 41.8459236,24.7938981 C40.7447313,24.9833433 39.7439516,25.4358697 38.8870968,26.0825274 L38.8870968,19.2303664 C38.8870968,10.1396721 46.2848334,2.74193548 55.3768665,2.74193548 Z M38.8870968,31.5322581 C38.8870968,29.7475902 40.0371567,28.2393917 41.6290323,27.6717253 L41.6290323,34.2741935 C41.6290323,34.6577699 41.6578173,35.0339828 41.6866023,35.410865 C40.0646028,34.8592647 38.8870968,33.3376779 38.8870968,31.5322581 Z M44.3709677,34.2741935 L44.3709677,26.0483871 C44.3709677,25.2932838 44.9868322,24.6774194 45.7419355,24.6774194 L48.483871,24.6774194 C51.9701991,24.6774194 55.0287692,22.8090741 56.7096774,20.0202795 C58.3905857,22.8090741 61.4491557,24.6774194 64.9354839,24.6774194 L67.6774194,24.6774194 C68.4325227,24.6774194 69.0483871,25.2932838 69.0483871,26.0483871 L69.0483871,34.2741935 C69.0483871,41.0768176 63.5123015,46.6129032 56.7096774,46.6129032 C49.9070534,46.6129032 44.3709677,41.0768176 44.3709677,34.2741935 L44.3709677,34.2741935 Z M56.7096774,49.3548387 C58.6456338,49.3548387 60.4905494,48.9752787 62.1935484,48.3071998 L62.1935484,50.5571132 C61.5642956,53.0781407 59.3090269,54.8387097 56.7096774,54.8387097 C54.1103279,54.8387097 51.8550592,53.0781407 51.2258065,50.5571132 L51.2258065,48.3071998 C52.9288054,48.9752787 54.773721,49.3548387 56.7096774,49.3548387 L56.7096774,49.3548387 Z M16.9516129,82.2580645 C9.39187725,82.2580645 3.24193548,76.1081228 3.24193548,68.5483871 C3.24193548,60.9886514 9.39187725,54.8387097 16.9516129,54.8387097 C23.0480012,54.8387097 28.4676081,58.9382245 30.130442,64.8083496 L30.4129363,65.8064516 L66.3064516,65.8064516 L66.3064516,71.2903226 L60.8225806,71.2903226 L60.8225806,76.7741935 L58.0806452,76.7741935 L58.0806452,71.2903226 L49.8548387,71.2903226 L49.8548387,76.7741935 L47.1129032,76.7741935 L47.1129032,71.2903226 L30.4129363,71.2903226 L30.130442,72.2884246 C28.4676081,78.1585496 23.0480012,82.2580645 16.9516129,82.2580645 L16.9516129,82.2580645 Z M82.7580645,82.2580645 L74.5322581,82.2580645 L74.5322581,68.5483871 L71.7903226,68.5483871 L71.7903226,82.2580645 L30.6612903,82.2580645 L30.6612903,77.604941 C31.3922946,76.5044181 31.9994566,75.3101767 32.4519831,74.0322581 L44.3709677,74.0322581 L44.3709677,79.516129 L52.5967742,79.516129 L52.5967742,74.0322581 L55.3387097,74.0322581 L55.3387097,79.516129 L63.5645161,79.516129 L63.5645161,74.0322581 L69.0483871,74.0322581 L69.0483871,63.0645161 L32.4519831,63.0645161 C32.1447203,62.1982894 31.7638216,61.3715584 31.3260222,60.5829841 C32.1226295,58.8927041 33.5565224,57.6054136 35.3498929,57.0062847 L48.9899509,52.4602681 C50.2852744,55.5268712 53.2929687,57.5806452 56.7096774,57.5806452 C60.1263861,57.5806452 63.1340804,55.5268712 64.4307429,52.4602681 L78.0721396,57.0062847 C80.8743226,57.9414614 82.7580645,60.5541991 82.7580645,63.5090096 L82.7580645,82.2580645 Z" id="Shape"></path>
                    <path d="M51.5,28.5 C51.5,29.3283692 50.8283692,30 50,30 C49.1716308,30 48.5,29.3283692 48.5,28.5 C48.5,27.6716308 49.1716308,27 50,27 C50.8283692,27 51.5,27.6716308 51.5,28.5 Z" id="Path"></path>
                    <path d="M64.5,28.5 C64.5,29.3283692 63.8283692,30 63,30 C62.1716308,30 61.5,29.3283692 61.5,28.5 C61.5,27.6716308 62.1716308,27 63,27 C63.8283692,27 64.5,27.6716308 64.5,28.5 Z" id="Path"></path>
                    <path d="M62.5,38 L59.75,38 C59.75,39.3787842 58.5166626,40.5 57,40.5 C55.4833374,40.5 54.25,39.3787842 54.25,38 L51.5,38 C51.5,40.7575684 53.9666747,43 57,43 C60.0333253,43 62.5,40.7575684 62.5,38 Z" id="Path"></path>
                    <path d="M12.5,61 C8.6404296,61 5.5,64.1404296 5.5,68 C5.5,71.8595704 8.6404296,75 12.5,75 C16.3595704,75 19.5,71.8595704 19.5,68 C19.5,64.1404296 16.3595704,61 12.5,61 Z M12.5,72.2 C10.1846679,72.2 8.3,70.3153321 8.3,68 C8.3,65.6846679 10.1846679,63.8 12.5,63.8 C14.8153321,63.8 16.7,65.6846679 16.7,68 C16.7,70.3153321 14.8153321,72.2 12.5,72.2 Z" id="Shape"></path>
                    <path d="M33.5,25.211035 L17,15 L0.5,25.211035 L0.5,46 L33.5,46 L33.5,25.211035 Z M27.4031372,24.607813 L6.59686275,24.607813 L17,18.1714857 L27.4031372,24.607813 Z M19.75,43.3259766 L14.25,43.3259766 L14.25,35.3039065 L19.75,35.3039065 L19.75,43.3259766 Z M22.5,43.3259766 L22.5,32.6298831 L11.5,32.6298831 L11.5,43.3259766 L3.25,43.3259766 L3.25,27.2818363 L30.75,27.2818363 L30.75,43.3259766 L22.5,43.3259766 Z" id="Shape"></path>
                </g>
            </g>
        </g>
    </g>
</svg>