<?xml version="1.0" encoding="UTF-8"?>
<svg width="90px" height="90px" viewBox="0 0 90 90" version="1.1" xmlns="http://www.w3.org/2000/svg" xmlns:xlink="http://www.w3.org/1999/xlink">
    <!-- Generator: sketchtool 53 (72520) - https://sketchapp.com -->
    <title>59F1E415-1CCC-4B8D-9CB1-80716C8972CC</title>
    <desc>Created with sketchtool.</desc>
    <g id="top-estate" stroke="none" stroke-width="1" fill="none" fill-rule="evenodd">
        <g id="home-" transform="translate(-235.000000, -3413.000000)" fill="#C1AF8B" fill-rule="nonzero">
            <g id="Group-7" transform="translate(113.000000, 3413.000000)">
                <g id="dream" transform="translate(122.000000, 0.000000)">
                    <path d="M28.5454545,51 C26.3401212,51 24.5454545,53.2433333 24.5454545,56 L27.2121212,56 C27.2121212,55.08 27.8107879,54.3333333 28.5454545,54.3333333 C29.2801212,54.3333333 29.8787879,55.08 29.8787879,56 L32.5454545,56 C32.5454545,53.2433333 30.7507879,51 28.5454545,51 Z" id="Path"></path>
                    <path d="M39.5454545,51 C37.3401212,51 35.5454545,53.2433333 35.5454545,56 L38.2121212,56 C38.2121212,55.08 38.8107879,54.3333333 39.5454545,54.3333333 C40.2801212,54.3333333 40.8787879,55.08 40.8787879,56 L43.5454545,56 C43.5454545,53.2433333 41.7507879,51 39.5454545,51 Z" id="Path"></path>
                    <path d="M45.2329545,67.5238095 L43.758267,67.5238095 C46.5275379,64.9952381 48.454517,61.5142381 49.0679545,57.5724762 C51.8900379,57.0218095 54.0350379,54.4553095 54.0350379,51.3690476 C54.0350379,48.2827857 51.8900379,45.7162857 49.0679545,45.165619 C47.8194129,37.1486429 41.1203504,31 33.0454545,31 C24.9705587,31 18.2714962,37.1486429 17.0229545,45.165619 C14.2008712,45.7162857 12.0558712,48.2841905 12.0558712,51.3690476 C12.0558712,54.4539048 14.2008712,57.0218095 17.0229545,57.5724762 C17.636392,61.5142381 19.5647254,64.9966429 22.332642,67.5238095 L20.8579545,67.5238095 C9.65764205,67.5238095 0.545454545,76.9764524 0.545454545,88.5952381 C0.545454545,89.3720714 1.15212121,90 1.89962121,90 L64.1912879,90 C64.9387879,90 65.5454545,89.3720714 65.5454545,88.5952381 C65.5454545,76.9764524 56.433267,67.5238095 45.2329545,67.5238095 Z M49.2954545,48.1507381 C50.4898295,48.694381 51.3267045,49.9319762 51.3267045,51.3690476 C51.3267045,52.806119 50.4898295,54.0437143 49.2954545,54.5873571 L49.2954545,48.1507381 Z M16.7954545,54.5873571 C15.6010795,54.0437143 14.7642045,52.806119 14.7642045,51.3690476 C14.7642045,49.9319762 15.6010795,48.694381 16.7954545,48.1507381 L16.7954545,54.5873571 Z M33.0454545,33.8095238 C40.5014962,33.8095238 46.5668087,40.0930238 46.585767,47.8220238 C36.8127462,47.4652143 30.3371212,43.3197619 30.3371212,39.4285714 C30.3371212,38.6517381 29.7304545,38.0238095 28.9829545,38.0238095 C28.2354545,38.0238095 27.6287879,38.6517381 27.6287879,39.4285714 C27.6287879,42.9390714 24.1296212,45.8483333 19.5823295,46.363881 C20.3041004,39.3175952 26.0647254,33.8095238 33.0454545,33.8095238 Z M19.5037879,54.8809524 L19.5037879,49.1832381 C23.7328504,48.8025476 27.321392,46.6869762 29.1129545,43.7243333 C31.944517,47.6183333 38.566392,50.3590238 46.5871212,50.6385714 L46.5871212,54.8809524 C46.5871212,60.564619 43.311392,65.4588095 38.6192045,67.6685 C35.0658712,69.3373571 31.0250379,69.3373571 27.4717045,67.6685 C22.779517,65.4588095 19.5037879,60.564619 19.5037879,54.8809524 Z M41.1704545,70.3333333 L41.1704545,73.1428571 C41.1704545,77.7912143 37.526392,81.5714286 33.0454545,81.5714286 C28.564517,81.5714286 24.9204545,77.7912143 24.9204545,73.1428571 L24.9204545,70.3333333 L26.5698295,70.3333333 C28.5550379,71.232381 30.7433712,71.7380952 33.0454545,71.7380952 C35.3475379,71.7380952 37.534517,71.232381 39.5210795,70.3333333 L41.1704545,70.3333333 Z M3.30524621,87.1904762 C3.99857955,77.7743571 11.6062879,70.3333333 20.8579545,70.3333333 L22.2121212,70.3333333 L22.2121212,73.1428571 C22.2121212,79.3392619 27.0722254,84.3809524 33.0454545,84.3809524 C39.0186837,84.3809524 43.8787879,79.3392619 43.8787879,73.1428571 L43.8787879,70.3333333 L45.2329545,70.3333333 C54.4846212,70.3333333 62.0923295,77.7743571 62.7856629,87.1904762 L3.30524621,87.1904762 Z" id="Shape"></path>
                    <path d="M79.0750545,20.463628 L76.7454545,18.4082438 L76.7454545,10.3908563 C76.7454545,9.62286476 76.1182545,9.00208316 75.3454545,9.00208316 L69.7454545,9.00208316 C68.9726545,9.00208316 68.3454545,9.62286476 68.3454545,10.3908563 L68.3454545,11.0019165 L66.4764545,9.352054 C65.9458545,8.88264867 65.1464545,8.88264867 64.6158545,9.352054 L52.0158545,20.4622393 C51.7162545,20.7261062 51.5454545,21.1052412 51.5454545,21.5010416 L51.5454545,32.6112268 C51.5454545,33.3792184 52.1726545,34 52.9454545,34 L62.7454545,34 L68.3454545,34 L78.1454545,34 C78.9182545,34 79.5454545,33.3792184 79.5454545,32.6112268 L79.5454545,21.5010416 C79.5454545,21.1038525 79.3746545,20.7261062 79.0750545,20.463628 Z M66.9454545,31.2224537 L64.1454545,31.2224537 L64.1454545,24.2785879 L66.9454545,24.2785879 L66.9454545,31.2224537 Z M76.7454545,31.2224537 L69.7454545,31.2224537 L69.7454545,22.8898147 C69.7454545,22.1218232 69.1182545,21.5010416 68.3454545,21.5010416 L62.7454545,21.5010416 C61.9726545,21.5010416 61.3454545,22.1218232 61.3454545,22.8898147 L61.3454545,31.2224537 L54.3454545,31.2224537 L54.3454545,22.1246007 L65.5454545,12.2490348 L68.8144545,15.1321279 C69.2274545,15.4959864 69.8168545,15.5862567 70.3180545,15.3612754 C70.8220545,15.137683 71.1454545,14.641891 71.1454545,14.0947143 L71.1454545,11.7796295 L73.9454545,11.7796295 L73.9454545,19.0331917 C73.9454545,19.4303808 74.1162545,19.8081271 74.4158545,20.0706052 L76.7454545,22.1246007 L76.7454545,31.2224537 Z" id="Shape"></path>
                    <path d="M67.0454545,0 C54.639517,0 44.5454545,10.0940625 44.5454545,22.5 C44.5454545,34.9059375 54.639517,45 67.0454545,45 C79.451392,45 89.5454545,34.9059375 89.5454545,22.5 C89.5454545,10.0940625 79.451392,0 67.0454545,0 Z M67.0454545,42.1875 C56.1892045,42.1875 47.3579545,33.35625 47.3579545,22.5 C47.3579545,11.64375 56.1892045,2.8125 67.0454545,2.8125 C77.9017045,2.8125 86.7329545,11.64375 86.7329545,22.5 C86.7329545,33.35625 77.9017045,42.1875 67.0454545,42.1875 Z" id="Shape"></path>
                    <path d="M58.0454545,55 C55.0122045,55 52.5454545,57.46675 52.5454545,60.5 C52.5454545,63.53325 55.0122045,66 58.0454545,66 C61.0787045,66 63.5454545,63.53325 63.5454545,60.5 C63.5454545,57.46675 61.0787045,55 58.0454545,55 Z M58.0454545,63.25 C56.5288295,63.25 55.2954545,62.016625 55.2954545,60.5 C55.2954545,58.983375 56.5288295,57.75 58.0454545,57.75 C59.5620795,57.75 60.7954545,58.983375 60.7954545,60.5 C60.7954545,62.016625 59.5620795,63.25 58.0454545,63.25 Z" id="Shape"></path>
                    <path d="M72.0454545,46 C67.9099545,46 64.5454545,49.3645 64.5454545,53.5 C64.5454545,57.6355 67.9099545,61 72.0454545,61 C76.1809545,61 79.5454545,57.6355 79.5454545,53.5 C79.5454545,49.3645 76.1809545,46 72.0454545,46 Z M72.0454545,58 C69.5644545,58 67.5454545,55.981 67.5454545,53.5 C67.5454545,51.019 69.5644545,49 72.0454545,49 C74.5264545,49 76.5454545,51.019 76.5454545,53.5 C76.5454545,55.981 74.5264545,58 72.0454545,58 Z" id="Shape"></path>
                    <path d="M36.7954545,59 C36.7954545,60.37875 35.5620795,61.5 34.0454545,61.5 C32.5288295,61.5 31.2954545,60.37875 31.2954545,59 L28.5454545,59 C28.5454545,61.7575 31.0122045,64 34.0454545,64 C37.0787045,64 39.5454545,61.7575 39.5454545,59 L36.7954545,59 Z" id="Path"></path>
                </g>
            </g>
        </g>
    </g>
</svg>