<?xml version="1.0" encoding="UTF-8"?>
<svg width="123px" height="109px" viewBox="0 0 123 109" version="1.1" xmlns="http://www.w3.org/2000/svg" xmlns:xlink="http://www.w3.org/1999/xlink">
    <!-- Generator: sketchtool 53 (72520) - https://sketchapp.com -->
    <title>24C0A7CC-2643-444A-BAB7-2344CF47D36E</title>
    <desc>Created with sketchtool.</desc>
    <g id="top-estate" stroke="none" stroke-width="1" fill="none" fill-rule="evenodd">
        <g id="продавцам" transform="translate(-336.000000, -1853.000000)" fill="#B9A787" fill-rule="nonzero">
            <g id="investor" transform="translate(336.000000, 1853.000000)">
                <path d="M58.0936797,45.5243817 C58.6865344,46.1399471 59.668229,46.161104 60.2863329,45.5697179 L73.9644087,32.4806431 L88.151511,43.6283195 C88.7110366,44.0685849 89.4998261,44.0716071 90.0633914,43.6353719 L110.293167,27.9510495 L109.540737,37.7053922 C109.475089,38.5577135 110.114402,39.3012277 110.96884,39.3667135 C111.009239,39.369736 111.048628,39.3717508 111.090037,39.3717508 C111.899026,39.3707434 112.571668,38.7481257 112.634287,37.9431558 L113.65638,24.6858331 C113.688699,24.275792 113.554373,23.8687733 113.28572,23.5574646 C113.016057,23.2451482 112.632267,23.0537286 112.221207,23.0235044 L97.9098783,22.0039428 C97.0554403,21.9434945 96.3131098,22.585254 96.2515012,23.4375754 C96.1909027,24.2898967 96.834256,25.0303884 97.688694,25.0908367 L107.979317,25.8242762 L89.1180559,40.4477308 L74.8238962,29.2154267 C74.2158921,28.7378849 73.3483245,28.7801989 72.7898091,29.3141589 L58.1391284,43.3351454 C57.8421963,43.6192523 57.6694907,44.009144 57.6614109,44.4201925 C57.6533311,44.8302334 57.8088669,45.2281849 58.0936797,45.5243817 L58.0936797,45.5243817 Z" id="Path"></path>
                <path d="M115.246588,51.000054 L98.6793326,51.000054 C98.270884,51.000054 97.8798377,51.163907 97.596278,51.4552013 C97.3127184,51.7454843 97.1622372,52.1379226 97.1775925,52.5414865 L97.1775925,105.89286 L86.6950975,105.89286 L86.6950975,62.5790053 C86.6950975,61.7213052 85.9979707,60.8393306 85.1288652,60.8393306 L68.5616093,60.8393306 C67.6935277,60.8393306 67.0404192,61.7213052 67.0404192,62.5790053 L67.0404192,105.89286 L56.5579242,105.89286 L56.5579242,81.2724169 C56.5620189,80.864807 56.401301,80.4733801 56.1105753,80.1851201 C55.8188263,79.8968601 55.4226616,79.7370527 55.0111419,79.7410987 L38.443886,79.7410987 C38.0323663,79.7370527 37.6362017,79.8978715 37.3464998,80.1861317 C37.056798,80.4743917 36.8960801,80.8658186 36.903246,81.2724169 L36.903246,105.89286 L4.23348537,105.89286 C3.36438013,105.89286 2.66111111,106.587718 2.66111111,107.44643 C2.66111111,108.30413 3.36438013,109 4.23348537,109 L121.088737,109 C121.956818,109 122.661111,108.30413 122.661111,107.44643 C122.661111,106.587718 121.956818,105.89286 121.088737,105.89286 L116.832271,105.89286 L116.832271,52.5414865 C116.825105,51.682775 116.115694,50.9929739 115.246588,51.000054 Z" id="Path"></path>
                <path d="M19.7073475,10.9989839 L19.6148747,10.9989839 C19.6311336,10.9989839 19.6453604,11.0010161 19.6616193,11.0010161 C19.6768619,11.0010161 19.6910886,10.9989839 19.7073475,10.9989839 Z" id="Path"></path>
                <path d="M19.1611111,24 C22.2609994,24 24.6611111,21.6583852 24.6611111,18.7791013 L24.6611111,16.1069053 C24.6611111,13.2865181 22.1985924,11 19.1611111,11 C16.1226065,11 13.6611111,13.2865181 13.6611111,16.1069053 L13.6611111,18.7791013 C13.6611111,21.6583852 16.0601996,24 19.1611111,24 Z" id="Path"></path>
                <path d="M21.8760463,99 C23.3316859,98.9742489 24.5104433,97.7773341 24.5535809,96.2827355 L25.6611111,58 L9.66111111,58 L10.7656317,96.2930361 C10.8127821,97.7793941 11.9915392,98.9649785 13.4401569,98.9824893 C14.1474112,98.9855795 14.826576,98.6992265 15.3281748,98.1862628 C15.8297737,97.6732992 16.1116722,96.9780175 16.1136787,96.250804 L16.1136787,63.5292936 C16.1136787,62.6558135 16.8028756,61.947141 17.6545904,61.947141 C18.505302,61.947141 19.195502,62.6558135 19.195502,63.5292936 L19.195502,96.2518342 C19.1985114,97.7690937 20.3973327,98.99897 21.8760463,99 L21.8760463,99 Z" id="Path"></path>
                <path d="M0.726435102,36.2073922 L0.726435102,59.51737 C0.719181903,60.157979 0.970969295,60.7716264 1.4206634,61.209484 C1.87864706,61.6570478 2.49205487,61.8899965 3.11893272,61.8544072 L3.15001744,61.8544072 C3.78000383,61.8716627 4.38926726,61.618223 4.83378062,61.1544822 C5.27829398,60.6896633 5.51971962,60.0555246 5.50106884,59.3998169 L5.50106884,43.9141149 C5.50106884,42.9995752 6.21291209,42.2575901 7.09261342,42.2575901 C7.97127866,42.2575901 8.684158,42.9995752 8.684158,43.9141149 L8.684158,53.307559 C8.684158,53.3819734 8.72767667,53.386287 8.72974912,53.4628582 L8.82196746,55.7804832 L25.5362941,55.7804832 L25.6606335,54.387104 L25.6606335,43.9141149 C25.6606335,42.9995752 26.3724768,42.2575901 27.2521781,42.2575901 C28.1308433,42.2575901 28.8437227,42.9995752 28.8437227,43.9141149 L28.8437227,53.2978529 C28.8437227,53.4056995 28.8696267,53.5178601 28.8665181,53.6321777 L28.8437227,54.4302427 L28.8437227,59.5152129 C28.8437227,60.8870224 29.9120056,62 31.2310396,62 C32.5490374,62 33.6183564,60.8870224 33.6183564,59.5152129 L33.6183564,36.2073922 C33.6183564,36.151312 33.6245733,36.0650346 33.629754,36.0089544 C33.9644343,32.5794305 31.5822982,29.5079576 28.289376,29.1261805 C28.0893969,29.1056896 27.8863091,29 27.6873661,29 L24.4804451,29 L18.2479316,35.1817704 C18.2168469,35.2119678 18.1816173,35.3122651 18.1494964,35.3392267 C18.1059775,35.374816 18.0655671,35.4190333 18.019976,35.4492301 C17.9754213,35.4794275 17.9287938,35.5074675 17.8832026,35.5322723 C17.8365754,35.5570771 17.7920204,35.5851171 17.743321,35.6045293 C17.6946213,35.6239419 17.6448856,35.6401189 17.5941137,35.6541389 C17.545414,35.6681589 17.4977504,35.684336 17.4500871,35.6940421 C17.4013875,35.7037485 17.3454349,35.7069837 17.2936266,35.7123763 C17.2418184,35.7166899 17.1951912,35.7220824 17.1454554,35.7220824 C17.0936475,35.7199253 17.0418392,35.7156115 16.9900313,35.7091408 C16.9413316,35.7026699 16.8915958,35.698356 16.8428962,35.6886499 C16.7921243,35.6757083 16.7413524,35.6606099 16.6916167,35.6433544 C16.6439531,35.6282557 16.5962898,35.6120787 16.5496626,35.5926664 C16.5030351,35.5721755 16.4532993,35.5387429 16.405636,35.5128597 C16.3590088,35.4858981 16.316526,35.4578579 16.2730073,35.4276611 C16.2294884,35.3974637 16.1859697,35.3424621 16.1445232,35.3047157 C16.1124021,35.2766755 16.0782089,35.1914768 16.04816,35.1612798 L10.0581085,29 L6.63255757,29 C5.03583224,29.0312755 3.51681886,29.7204154 2.40916192,30.9175135 C1.28285394,32.1124545 0.654939869,33.7215267 0.66115684,35.3953069 C0.66115684,35.6034509 0.680843928,35.8234581 0.701567218,36.0316024 C0.706747961,36.086604 0.726435102,36.1502336 0.726435102,36.2073922 Z" id="Path"></path>
                <path d="M52.1605867,33 C61.2727854,33 68.6600626,25.6127228 68.6611111,16.5005244 C68.6611111,7.38832567 61.273834,0.00104851731 52.1605867,0 C43.0483883,0 35.6611111,7.38727715 35.6611111,16.5005244 C35.6715968,25.6085285 43.0525826,32.9895143 52.1605867,33 Z M52.1605867,17.9989515 C48.9875704,17.9989515 46.2969027,15.6679482 45.844963,12.5274378 C45.3919745,9.3869277 47.3150782,6.39112182 50.3591188,5.49458235 L50.3591188,4.15973418 C50.3591188,3.26948608 51.0794964,2.54910852 51.9697445,2.54910852 C52.8589441,2.54910852 53.5803702,3.26948608 53.5803702,4.15973418 L53.5803702,5.39391824 C56.5069693,6.01887429 58.586312,8.62355825 58.546466,11.6172666 C58.546466,12.5075149 57.8239914,13.228941 56.9347918,13.228941 C56.0445434,13.228941 55.3231173,12.5075149 55.3231173,11.6172666 C55.3241661,9.87137357 53.908577,8.45473596 52.162684,8.45368744 C50.416791,8.45368744 49.0001534,9.86822775 49.0001534,11.6141207 C48.9991049,13.3610625 50.4146937,14.7766513 52.1605867,14.7777001 C55.3587693,14.7756028 58.0641171,17.1391122 58.4898423,20.3079342 C58.9166162,23.4767565 56.9326945,26.4725621 53.8488078,27.3156239 L53.8488078,28.8559944 C53.8488078,29.745194 53.1273817,30.46662 52.2381821,30.46662 C51.347934,30.46662 50.6275564,29.745194 50.6275564,28.8559944 L50.6275564,27.3544215 C47.8037184,26.6120237 45.821894,24.0786438 45.7799506,21.1604333 C45.7631733,20.5742748 46.0662141,20.0248166 46.5716319,19.7270186 C47.0760009,19.4281721 47.7030543,19.4281721 48.2084721,19.7270186 C48.7138899,20.0248166 49.0169308,20.5742748 49.0001534,21.1604333 C49.0001534,22.9063265 50.4157422,24.3219154 52.1616355,24.3208668 C53.9075285,24.3208668 55.3231173,22.9052777 55.3220688,21.1593848 C55.3220688,19.4134918 53.90648,17.9979027 52.1605867,17.9989515 Z" id="Shape"></path>
            </g>
        </g>
    </g>
</svg>