<svg xmlns="http://www.w3.org/2000/svg" width="33" height="33" viewBox="0 0 33 33">
    <g fill="none" fill-rule="evenodd">
        <path fill="#B0B0B0" fill-rule="nonzero" d="M18.203 6h-7.422c-.431 0-.781.311-.781.695v20.648c0 .384.35.696.781.696h3.125c.432 0 .782-.312.782-.696V19.21h3.515c4.093 0 7.422-2.963 7.422-6.604 0-3.642-3.33-6.605-7.422-6.605zm0 11.819h-4.297c-.43 0-.78.311-.78.695v8.134h-1.563V7.391h6.64c3.231 0 5.86 2.339 5.86 5.214 0 2.875-2.629 5.214-5.86 5.214z"/>
        <rect width="31.5" height="31.5" x=".75" y=".75" stroke="#B0B0B0" stroke-width="1.5" rx="2"/>
        <path fill="#B0B0B0" fill-rule="nonzero" d="M18.203 8.781h-4.297c-.43 0-.78.311-.78.695v6.257c0 .384.35.695.78.695h4.297c2.37 0 4.297-1.715 4.297-3.823 0-2.109-1.927-3.824-4.297-3.824zm0 6.257h-3.515v-4.867h3.515c1.508 0 2.735 1.092 2.735 2.434 0 1.341-1.227 2.433-2.735 2.433z"/>
    </g>
</svg>
