<svg xmlns="http://www.w3.org/2000/svg" width="35" height="35" viewBox="0 0 35 35">
    <g fill="#B0B0B0" fill-rule="nonzero">
        <path d="M15.428 26.81v-6.995a4.063 4.063 0 0 0 1.415-1.367 4.07 4.07 0 0 0 6.445-3.31c-.003-.2-.02-.399-.053-.595a4.36 4.36 0 0 0 0-8.709c.032-.196.05-.395.053-.594a4.07 4.07 0 0 0-6.446-3.31 4.057 4.057 0 0 0-6.734-.262 3.992 3.992 0 0 0-1.957-.504A4.08 4.08 0 0 0 4.075 5.24c.003.199.021.398.053.594a4.36 4.36 0 0 0 0 8.709c-.032.196-.05.395-.053.594a4.08 4.08 0 0 0 4.076 4.075 3.992 3.992 0 0 0 1.957-.503c.192.262.414.5.663.71v7.391a14.393 14.393 0 0 1-1.96 7.247.582.582 0 0 0 .504.875h7.569a.582.582 0 0 0 .503-.875 14.408 14.408 0 0 1-1.959-7.247zM10.48 16.302c0-.214.023-.427.068-.636a.582.582 0 1 0-1.138-.243 4.129 4.129 0 0 0-.095.879c0 .47.082.937.242 1.38a2.838 2.838 0 0 1-1.406.366 2.914 2.914 0 0 1-2.911-2.91 2.94 2.94 0 0 1 1.164-2.33.582.582 0 0 0-.698-.93 4.036 4.036 0 0 0-1.22 1.504c-.04.002-.079.009-.12.009A3.202 3.202 0 1 1 4.8 7.017c.596.079 1.157.325 1.619.71a.582.582 0 1 0 .741-.898 4.36 4.36 0 0 0-1.821-.888 2.855 2.855 0 0 1-.098-.701 2.914 2.914 0 0 1 2.91-2.911c.493-.002.978.124 1.407.366-.16.443-.242.91-.242 1.38 0 .296.032.59.094.879a.582.582 0 1 0 1.139-.244 2.91 2.91 0 0 1 5.571-1.643c.122.322.184.664.182 1.008 0 .19-.018.381-.057.568a.582.582 0 0 0 1.14.24c.055-.266.082-.536.082-.808a3.987 3.987 0 0 0-.147-1.023 2.847 2.847 0 0 1 1.893-.723 2.914 2.914 0 0 1 2.911 2.91 2.94 2.94 0 0 1-1.164 2.33.582.582 0 0 0 .698.93 4.036 4.036 0 0 0 1.221-1.504c.04-.002.078-.009.119-.009a3.202 3.202 0 1 1 0 6.405c-.042 0-.08-.007-.122-.009a4.065 4.065 0 0 0-1.4-1.635.582.582 0 0 0-.647.97 2.91 2.91 0 0 1-1.616 5.331 2.846 2.846 0 0 1-1.893-.723c.093-.333.142-.677.147-1.023 0-.272-.027-.542-.083-.808a.582.582 0 1 0-1.139.24c.039.187.058.377.058.568.001.347-.062.69-.186 1.015a2.91 2.91 0 0 1-5.636-1.015zm-.19 17.465a15.52 15.52 0 0 0 1.644-6.957l.001-6.71c.74.298 1.554.357 2.329.17v6.54a15.572 15.572 0 0 0 1.644 6.957H10.29z"/>
        <path d="M33.767 27.363c.643 0 1.164-.521 1.165-1.164v-3.493c0-.643-.522-1.164-1.165-1.165H18.63c-.642.001-1.163.522-1.164 1.165v3.493c0 .643.522 1.163 1.164 1.164h1.165v1.165H18.63c-.642 0-1.163.521-1.164 1.164v1.164c0 .643.522 1.164 1.164 1.165h1.165v2.329a.582.582 0 1 0 1.164 0v-2.33h10.48v2.33a.582.582 0 1 0 1.164 0v-2.33h1.164c.643 0 1.164-.52 1.165-1.164v-1.164c0-.643-.522-1.164-1.165-1.164h-1.164v-1.165h1.164zm0 2.33l.001 1.163H18.63v-1.164h15.137zM20.96 28.527v-1.165h10.48v1.165h-10.48zm-2.329-2.33v-3.492h15.137l.001 3.493H18.63z"/>
        <path d="M20.6 23.911a.582.582 0 0 0-.759.762c.028.072.07.137.123.193a.59.59 0 0 0 .826 0 .602.602 0 0 0 .123-.193.582.582 0 0 0-.312-.762zM32.556 24.23a.455.455 0 0 0-.052-.104l-.07-.087a.61.61 0 0 0-.827 0 .904.904 0 0 0-.07.087.433.433 0 0 0-.052.105.36.36 0 0 0-.035.11.582.582 0 1 0 1.106-.11z"/>
    </g>
</svg>
