<svg xmlns="http://www.w3.org/2000/svg" width="33" height="34" viewBox="0 0 33 34">
    <g fill="none" fill-rule="evenodd">
        <path stroke="#B0B0B0" stroke-width="1.5" d="M1 32.433h30.954L32 14.074 16.5 1 1 14.074z"/>
        <g fill="#B0B0B0" fill-rule="nonzero">
            <path d="M18.18 10.841h-5.567a.586.586 0 0 0-.586.586V28.83c0 .324.262.586.586.586h2.344a.586.586 0 0 0 .586-.585v-6.856h2.636a5.573 5.573 0 0 0 5.567-5.566 5.573 5.573 0 0 0-5.567-5.567zm0 9.961h-3.223a.586.586 0 0 0-.586.586v6.856h-1.172v-16.23h4.98a4.4 4.4 0 0 1 4.395 4.394 4.4 4.4 0 0 1-4.395 4.394z"/>
            <path d="M18.18 13.185h-3.223a.586.586 0 0 0-.586.586v5.273c0 .324.262.586.586.586h3.222a3.226 3.226 0 0 0 3.223-3.222 3.226 3.226 0 0 0-3.223-3.223zm0 5.273h-2.637v-4.101h2.636c1.131 0 2.051.92 2.051 2.05 0 1.132-.92 2.051-2.05 2.051z"/>
        </g>
    </g>
</svg>
