<?xml version="1.0" encoding="UTF-8"?>
<svg width="96px" height="114px" viewBox="0 0 96 114" version="1.1" xmlns="http://www.w3.org/2000/svg" xmlns:xlink="http://www.w3.org/1999/xlink">
    <!-- Generator: sketchtool 53 (72520) - https://sketchapp.com -->
    <title>A86DC3AB-F74F-4B97-B988-F3449E6B021D</title>
    <desc>Created with sketchtool.</desc>
    <g id="top-estate" stroke="none" stroke-width="1" fill="none" fill-rule="evenodd">
        <g id="продавцам" transform="translate(-327.000000, -1143.000000)">
            <g id="review-(2)" transform="translate(330.896552, 1148.000000)">
                <polygon id="Star" stroke="#B9A787" stroke-width="4" points="13.1034483 19.6127465 5.46224 23.5172209 6.81435266 15.043451 0.739713564 8.98277907 9.21657343 7.65017573 13.1034483 0 16.9903231 7.65017573 25.467183 8.98277907 19.3925439 15.043451 20.7446566 23.5172209"></polygon>
                <polygon id="Star-Copy" stroke="#B9A787" stroke-width="4" points="44.1034483 19.6127465 36.46224 23.5172209 37.8143527 15.043451 31.7397136 8.98277907 40.2165734 7.65017573 44.1034483 0 47.9903231 7.65017573 56.467183 8.98277907 50.3925439 15.043451 51.7446566 23.5172209"></polygon>
                <polygon id="Star-Copy-2" stroke="#B9A787" stroke-width="4" points="75.1034483 19.6127465 67.46224 23.5172209 68.8143527 15.043451 62.7397136 8.98277907 71.2165734 7.65017573 75.1034483 0 78.9903231 7.65017573 87.467183 8.98277907 81.3925439 15.043451 82.7446566 23.5172209"></polygon>
                <g id="like" transform="translate(2.103448, 16.000000)" fill="#B9A787" fill-rule="nonzero">
                    <path d="M0.70212766,93 L21.2978723,93 L21.2978723,46.030303 L0.70212766,46.030303 C0.70212766,46.030303 0.70212766,93 0.70212766,93 Z M10.9896328,49.8084071 C13.9996777,49.8084071 16.4392176,52.2283883 16.4392176,55.2129754 C16.4392176,58.1955681 13.9996777,60.6155492 10.9896328,60.6155492 C7.97958787,60.6155492 5.54097644,58.1955681 5.54097644,55.2129754 C5.54097644,52.2282349 7.97958787,49.8084071 10.9896328,49.8084071 Z" id="Shape"></path>
                    <path d="M86.8279479,48.318357 C86.8279479,48.318357 93.380917,32.2744287 71.8464032,36.2652616 C71.8464032,36.2652616 58.5452805,39.0881276 57.0140288,34.9684009 C57.0140288,34.9684009 55.9612651,31.8412785 60.8539623,25.8914424 C60.8539623,25.8914424 71.6972329,13.686295 59.4248141,1.78647048 C59.4248141,1.78647048 53.1749977,-3.55211028 52.1953154,4.22813987 C51.2165354,12.0093041 52.345388,12.4666791 48.1292205,18.4936077 C48.1292205,18.4936077 36.2641631,30.0873475 33.8022509,39.0133204 C33.8022509,39.0133204 30.5227589,49.1407788 25.0425532,49.3050194 L25.0425532,84.5494032 C26.8689877,84.5149706 32.7604645,84.2827789 38.998251,86.4840293 C38.998251,86.4840293 50.4030157,89.2328499 57.8316087,89.2328499 C57.8316087,89.2328499 72.893152,89.5876888 77.4866062,85.976986 C77.4866062,85.976986 81.5157092,82.9513332 80.689107,78.984725 C80.689107,78.984725 79.9375411,76.3727208 81.9140482,74.8649983 C81.9140482,74.8649983 87.6713919,71.177203 84.8603129,65.3306648 C84.8603129,65.3306648 83.3842482,62.6598509 85.7460118,60.373433 C85.7460118,60.373433 89.2157261,57.6640728 86.8238878,54.3463521 C86.8249405,54.3443714 85.2297801,51.5052033 86.8279479,48.318357 Z" id="Path"></path>
                </g>
            </g>
        </g>
    </g>
</svg>