<svg xmlns="http://www.w3.org/2000/svg" width="30" height="35" viewBox="0 0 30 35">
    <g fill="#B0B0B0" fill-rule="nonzero">
        <path d="M29.456 6.044A58.677 58.677 0 0 1 15.376.102a.743.743 0 0 0-.752 0A57.07 57.07 0 0 1 .544 6.044a.737.737 0 0 0-.544.71v7.522c0 7.747 3.592 12.875 6.605 15.812C9.85 33.251 13.628 35 15 35c1.372 0 5.15-1.749 8.395-4.912C26.408 27.151 30 22.023 30 14.276V6.754a.737.737 0 0 0-.544-.71zm-.936 8.232c0 7.236-3.35 12.02-6.16 14.76-3.19 3.11-6.602 4.491-7.36 4.491s-4.169-1.38-7.359-4.49c-2.81-2.74-6.161-7.525-6.161-14.76V7.312A58.437 58.437 0 0 0 15 1.589a60.286 60.286 0 0 0 13.52 5.723v6.964z"/>
        <path d="M19.317 14.444v-2.33c0-2.39-1.934-4.336-4.317-4.336s-4.317 1.946-4.317 4.337v2.329a2.185 2.185 0 0 0-1.952 2.174v6.67c0 1.206.978 2.184 2.175 2.184h8.188a2.18 2.18 0 0 0 2.175-2.184v-6.67c0-1.13-.856-2.062-1.952-2.174zm-7.167-2.33A2.861 2.861 0 0 1 15 9.252c1.57 0 2.85 1.286 2.85 2.864v2.314h-5.7v-2.314zm7.652 11.174c0 .39-.316.71-.708.71h-8.188a.709.709 0 0 1-.708-.71v-6.67c0-.394.316-.712.708-.712h8.188c.392 0 .708.318.708.712v6.67z"/>
        <path d="M15 19.983a.733.733 0 0 0-.733.737v1.448a.733.733 0 1 0 1.466 0V20.72a.736.736 0 0 0-.733-.737z"/>
    </g>
</svg>
