<?xml version="1.0" encoding="UTF-8"?>
<svg width="15px" height="16px" viewBox="0 0 15 16" version="1.1" xmlns="http://www.w3.org/2000/svg" xmlns:xlink="http://www.w3.org/1999/xlink">
    <!-- Generator: sketchtool 53 (72520) - https://sketchapp.com -->
    <title>0B0AD4DC-44B2-478C-84ED-69DFB21484B6</title>
    <desc>Created with sketchtool.</desc>
    <g id="top-estate" stroke="none" stroke-width="1" fill="none" fill-rule="evenodd">
        <g id="контакты" transform="translate(-867.000000, -390.000000)" fill-rule="nonzero">
            <g id="viber-(1)" transform="translate(867.000000, 390.000000)">
                <path d="M8.93652481,0 L5.82541033,0 C2.82329254,0 0.380952381,2.51243438 0.380952381,5.60071181 L0.380952381,8.00102133 C0.380952381,10.1691749 1.59650251,12.1367662 3.49206687,13.0622963 L3.49206687,15.7353242 C3.49206687,15.9674177 3.77430999,16.0887613 3.93464571,15.9239178 L6.19201349,13.6017331 L8.93649444,13.6017331 C11.9385818,13.6017331 14.3809524,11.0892988 14.3809524,8.00102133 L14.3809524,5.60071181 C14.3809524,2.51243438 11.9385818,0 8.93652481,0 Z" id="Path" fill="#A0A0A0"></path>
                <path d="M4.13094506,13.0622651 C2.30308141,12.1367037 1.13094506,10.1691436 1.13094506,8.00099008 L1.13094506,5.60068056 C1.13094506,2.51243438 3.48608552,0 6.38095238,0 L5.6309597,0 C2.73606355,0 0.380952381,2.51243438 0.380952381,5.60071181 L0.380952381,8.00102133 C0.380952381,10.1691749 1.55308873,12.1367662 3.38095238,13.0622963 L3.38095238,15.7353242 C3.38095238,15.9674177 3.65311509,16.0887613 3.80772437,15.9239178 L4.13094506,15.5791057 L4.13094506,13.0622651 Z" id="Path" fill="#A0A0A0"></path>
                <path d="M11.3768131,9.57360459 L11.1528334,8.36027088 C11.1342973,8.26003058 11.0566502,8.18118695 10.9567015,8.16119144 L9.19513413,7.80889089 C9.11331277,7.79260257 9.02901022,7.81814429 8.97007432,7.8770216 L8.25440748,8.59271509 C7.04860067,8.05242751 6.37937614,7.38174582 5.79054262,6.12418845 L6.50390339,5.41085938 C6.56278091,5.35195289 6.5883519,5.26747548 6.57203434,5.18580037 L6.21973255,3.42421006 C6.19973696,3.32429087 6.12089305,3.24658567 6.0206524,3.22807887 L4.8073144,3.0041291 C4.77409546,2.99802827 4.73988403,2.99867047 4.70689861,3.00617243 C4.38653138,3.07894443 4.09421634,3.24036808 3.86153778,3.47310421 C3.45864861,3.87599195 3.30466801,4.46388929 3.416293,5.17324844 C3.6036677,6.36439735 4.1872469,8.02206936 5.26394353,9.10308238 L5.27865561,9.11767765 C6.35882593,10.1936115 8.01653299,10.777247 9.20774448,10.9646503 C9.35781355,10.9882946 9.50233639,11 9.64093353,11 C10.1574618,11 10.590213,10.8370584 10.9079531,10.5193779 C11.1406317,10.2866709 11.3021143,9.99435693 11.3748573,9.67404921 C11.3822426,9.64103472 11.3829431,9.60688179 11.3768131,9.57360459 Z" id="Path" fill="#FFFFFF"></path>
                <g id="Group" transform="translate(3.380952, 3.000000)" fill="#E5E5E5">
                    <polygon id="Path" points="2.98340075 2.4913985 3.23340824 2.24042105 3.2336779 2.24015038 2.98337079 2.49136842"></polygon>
                    <polygon id="Rectangle" transform="translate(5.638630, 4.909276) rotate(-45.000000) translate(-5.638630, -4.909276) " points="5.45977932 4.90961183 5.81748071 4.90894072 5.81748071 4.90894072"></polygon>
                    <path d="M6.9355206,7.51491729 C6.79325843,7.51491729 6.64491386,7.50285714 6.4908764,7.47849624 C5.26819476,7.28541353 3.56665169,6.68409023 2.45788764,5.57554887 L2.44278652,5.56051128 C1.33761798,4.44673684 0.738606742,2.73882707 0.546277154,1.51157895 C0.453722846,0.921112782 0.53929588,0.412390977 0.79364794,0.0198195489 C0.6962397,0.0850526316 0.60482397,0.159879699 0.521078652,0.24393985 C0.107535581,0.659037594 -0.0505168539,1.26475188 0.0640599251,1.99560902 C0.256389513,3.22285714 0.855400749,4.93076692 1.96056929,6.04454135 L1.97567041,6.05957895 C3.08440449,7.1681203 4.78594757,7.76944361 6.00865918,7.96252632 C6.16269663,7.98688722 6.3110412,7.99894737 6.45330337,7.99894737 C6.98349064,7.99894737 7.42768539,7.83109774 7.75382772,7.5037594 C7.83754307,7.41969925 7.91208989,7.32796992 7.97707865,7.23019549 C7.68832959,7.41870677 7.33656929,7.51491729 6.9355206,7.51491729 Z" id="Path"></path>
                </g>
                <g id="Group" transform="translate(7.380952, 2.000000)" fill="#FFFFFF">
                    <path d="M0.52373913,2.22854839 C0.387130435,2.22854839 0.276376812,2.35180645 0.276376812,2.50383871 C0.276376812,2.65587097 0.387130435,2.77912903 0.52373913,2.77912903 C1.06936232,2.77912903 1.51324638,3.27312903 1.51324638,3.88035484 C1.51324638,4.03035484 1.62582609,4.15564516 1.7606087,4.15564516 C1.8953913,4.15564516 2.00797101,4.03035484 2.00797101,3.88035484 C2.008,2.96951613 1.34217391,2.22854839 0.52373913,2.22854839 Z" id="Path"></path>
                    <path d="M0.52373913,1.12732258 C0.432231884,1.12732258 0.339884058,1.13296774 0.249217391,1.14409677 C0.11342029,1.16077419 0.0154782609,1.29680645 0.0304637681,1.44796774 C0.0454492754,1.59912903 0.167942029,1.70783871 0.303507246,1.69141935 C0.376202899,1.68248387 0.450289855,1.67793548 0.52373913,1.67793548 C1.61495652,1.67793548 2.50272464,2.66593548 2.50272464,3.88035484 C2.50272464,3.96212903 2.49863768,4.04458065 2.4906087,4.12548387 C2.47582609,4.27454839 2.57536232,4.41293548 2.70936232,4.42935484 C2.84333333,4.44577419 2.9675942,4.33503226 2.9824058,4.18590323 C2.9924058,4.085 2.99747826,3.98222581 2.99747826,3.88035484 C2.99747826,2.36235484 1.88776812,1.12732258 0.52373913,1.12732258 Z" id="Path"></path>
                    <path d="M0.52373913,0.0261290323 C0.435333333,0.0261290323 0.345797101,0.0298709677 0.257681159,0.0373225806 C0.121449275,0.0488064516 0.0193623188,0.181064516 0.0296811594,0.332645161 C0.0399710145,0.484258065 0.159217391,0.597870968 0.295043478,0.586387097 C0.370782609,0.579967742 0.44773913,0.576741935 0.52373913,0.576741935 C2.16057971,0.576741935 3.49223188,2.05874194 3.49223188,3.8803871 C3.49223188,4.13812903 3.46550725,4.39470968 3.41281159,4.64296774 C3.38257971,4.78522581 3.46130435,4.93309677 3.58805797,4.97174194 C3.72142029,5.0123871 3.86252174,4.91932258 3.89428986,4.7696129 C3.9557971,4.47990323 3.98698551,4.18074194 3.98698551,3.8803871 C3.98698551,1.75512903 2.4333913,0.0261290323 0.52373913,0.0261290323 Z" id="Path"></path>
                </g>
            </g>
        </g>
    </g>
</svg>