<?xml version="1.0" encoding="UTF-8"?>
<svg width="19px" height="21px" viewBox="0 0 19 21" version="1.1" xmlns="http://www.w3.org/2000/svg" xmlns:xlink="http://www.w3.org/1999/xlink">
    <!-- Generator: sketchtool 53 (72520) - https://sketchapp.com -->
    <title>3F1DF5E8-24E4-4179-824B-761BD27348EC</title>
    <desc>Created with sketchtool.</desc>
    <g id="top-estate" stroke="none" stroke-width="1" fill="none" fill-rule="evenodd">
        <g id="карточка-квартиры" transform="translate(-901.000000, -2753.000000)" fill-rule="nonzero">
            <g id="viber-(1)" transform="translate(901.000000, 2753.000000)">
                <path d="M11.6984327,0 L7.54657637,0 C3.5401787,0 0.28081761,3.29757013 0.28081761,7.35093424 L0.28081761,10.5013405 C0.28081761,13.347042 1.90299819,15.9295056 4.43267397,17.1442639 L4.43267397,20.6526131 C4.43267397,20.9572357 4.80933413,21.1164992 5.02330597,20.9001421 L8.03581702,17.8522747 L11.6983922,17.8522747 C15.7047493,17.8522747 18.9641509,14.5547046 18.9641509,10.5013405 L18.9641509,7.35093424 C18.9641509,3.29757013 15.7047493,0 11.6984327,0 Z" id="Path" fill="#665CAC"></path>
                <path d="M5.42664089,17.1442229 C2.91840577,15.9294236 1.30997423,13.347001 1.30997423,10.5012995 L1.30997423,7.35089323 C1.30997423,3.29757013 4.5417503,0 8.51415094,0 L7.48499433,0 C3.51255349,0 0.28081761,3.29757013 0.28081761,7.35093424 L0.28081761,10.5013405 C0.28081761,13.347042 1.88924916,15.9295056 4.39748428,17.1442639 L4.39748428,20.6526131 C4.39748428,20.9572357 4.770952,21.1164992 4.98311029,20.9001421 L5.42664089,20.4475762 L5.42664089,17.1442229 Z" id="Path" fill="#523494"></path>
                <path d="M14.8417497,12.9689382 L14.5314444,11.2799225 C14.5057642,11.1403835 14.3981906,11.0306296 14.25972,11.0027949 L11.8192152,10.5123765 C11.7058586,10.4897024 11.5890644,10.5252577 11.5074136,10.6072176 L10.5159169,11.6034954 C8.84537201,10.8513906 7.91821719,9.91777116 7.10243741,8.16719415 L8.09073932,7.17420766 C8.17230921,7.09220714 8.2077357,6.97461076 8.18512907,6.86091529 L7.6970443,4.40870151 C7.66934208,4.26960944 7.56011041,4.16144027 7.42123535,4.13567797 L5.74025666,3.82392971 C5.69423458,3.81543709 5.6468375,3.81633105 5.60113896,3.82677413 C5.15729685,3.92807606 4.75231873,4.15278512 4.42996197,4.47676438 C3.8717926,5.03760243 3.6584653,5.85598225 3.81311243,6.84344243 C4.07270445,8.50157585 4.88120481,10.8091306 6.37287827,12.3139499 L6.39326063,12.3342672 C7.88974659,13.832016 10.1863616,14.6444632 11.8366858,14.905337 C12.044594,14.938251 12.2448184,14.9545455 12.4368332,14.9545455 C13.1524401,14.9545455 13.7519808,14.7277234 14.1921832,14.2854976 C14.51454,13.961559 14.7382607,13.5546446 14.8390401,13.1087617 C14.8492717,13.062804 14.8502423,13.0152616 14.8417497,12.9689382 Z" id="Path" fill="#FFFFFF"></path>
                <g id="Group" transform="translate(3.764151, 4.136364)" fill="#E5E5E5">
                    <polygon id="Path" points="4.01516017 3.36905024 4.35162859 3.02966029 4.35199151 3.02929426 4.01511985 3.36900957"></polygon>
                    <polygon id="Rectangle" transform="translate(7.588656, 6.638680) rotate(-45.000000) translate(-7.588656, -6.638680) " points="7.34737607 6.63970894 7.82993638 6.63765189 7.82993638 6.63765189"></polygon>
                    <path d="M9.33405481,10.1622177 C9.14259363,10.1622177 8.94294657,10.1459091 8.73563783,10.1129665 C7.09011211,9.85186603 4.80011873,9.03871292 3.30790712,7.53966268 L3.28758352,7.51932775 C1.80021086,6.01320096 0.994041573,3.70364115 0.735198002,2.04406699 C0.610635331,1.24559569 0.725802372,0.557665072 1.06811785,0.0268014354 C0.937022597,0.115014354 0.81399226,0.216200957 0.701285019,0.329873206 C0.144724969,0.891198565 -0.0679872659,1.71028947 0.0862139825,2.69860766 C0.345057553,4.35818182 1.15122684,6.66774163 2.6385995,8.17386842 L2.6589231,8.19420335 C4.15109438,9.69325359 6.44108777,10.5064067 8.08665381,10.7675072 C8.29396255,10.8004498 8.49360961,10.8167584 8.68507079,10.8167584 C9.39861448,10.8167584 9.99642659,10.5897799 10.4353598,10.1471292 C10.5480267,10.0334569 10.6483543,9.90941388 10.7358184,9.77719617 C10.3472102,10.0321148 9.8737995,10.1622177 9.33405481,10.1622177 Z" id="Path"></path>
                </g>
                <g id="Group" transform="translate(9.464151, 3.181818)" fill="#FFFFFF">
                    <path d="M0.746328261,2.83633431 C0.55166087,2.83633431 0.393836957,2.99320821 0.393836957,3.18670381 C0.393836957,3.38019941 0.55166087,3.53707331 0.746328261,3.53707331 C1.5238413,3.53707331 2.15637609,4.16580059 2.15637609,4.93863343 C2.15637609,5.12954252 2.31680217,5.28900293 2.50886739,5.28900293 C2.70093261,5.28900293 2.8613587,5.12954252 2.8613587,4.93863343 C2.8614,3.77938416 1.91259783,2.83633431 0.746328261,2.83633431 Z" id="Path"></path>
                    <path d="M0.746328261,1.43477419 C0.615930435,1.43477419 0.484334783,1.44195894 0.355134783,1.45612317 C0.161623913,1.47734897 0.0220565217,1.65048094 0.0434108696,1.84286804 C0.0647652174,2.03525513 0.239317391,2.1736129 0.432497826,2.15271554 C0.53608913,2.14134311 0.641663043,2.13555425 0.746328261,2.13555425 C2.30131304,2.13555425 3.56638261,3.3930088 3.56638261,4.93863343 C3.56638261,5.04270968 3.5605587,5.14764809 3.54911739,5.25061584 C3.52805217,5.44033431 3.6698913,5.61646334 3.8608413,5.6373607 C4.05175,5.65825806 4.22882174,5.51731378 4.24992826,5.3275132 C4.26417826,5.19909091 4.27140652,5.06828739 4.27140652,4.93863343 C4.27140652,3.00663343 2.69006957,1.43477419 0.746328261,1.43477419 Z" id="Path"></path>
                    <path d="M0.746328261,0.033255132 C0.62035,0.033255132 0.49276087,0.0380175953 0.367195652,0.0475014663 C0.173065217,0.0621173021 0.0275913043,0.230445748 0.0422956522,0.423366569 C0.0569586957,0.616328446 0.226884783,0.760926686 0.420436957,0.74631085 C0.528365217,0.738140762 0.638028261,0.734035191 0.746328261,0.734035191 C3.07882609,0.734035191 4.97643043,2.62021701 4.97643043,4.93867449 C4.97643043,5.26670968 4.93834783,5.59326686 4.86325652,5.90923167 C4.82017609,6.09028739 4.9323587,6.2784868 5.11298261,6.32767155 C5.30302391,6.37940176 5.50409348,6.26095601 5.54936304,6.07041642 C5.63701087,5.70169501 5.68145435,5.32094428 5.68145435,4.93867449 C5.68145435,2.23380059 3.46758261,0.033255132 0.746328261,0.033255132 Z" id="Path"></path>
                </g>
            </g>
        </g>
    </g>
</svg>