<?xml version="1.0" encoding="UTF-8"?>
<svg width="16px" height="14px" viewBox="0 0 16 14" version="1.1" xmlns="http://www.w3.org/2000/svg" xmlns:xlink="http://www.w3.org/1999/xlink">
    <!-- Generator: sketchtool 53 (72520) - https://sketchapp.com -->
    <title>0BFA96E1-017C-4A5B-B136-B0E10B40BB54</title>
    <desc>Created with sketchtool.</desc>
    <g id="top-estate" stroke="none" stroke-width="1" fill="none" fill-rule="evenodd">
        <g id="контакты" transform="translate(-912.000000, -390.000000)" fill-rule="nonzero">
            <g id="whatsapp-(2)" transform="translate(912.523810, 390.000000)">
                <path d="M7.35901786,0 L7.35526786,0 L7.35526786,0 C3.21995536,0 -0.142857143,3.1395 -0.142857143,7 C-0.142857143,8.53125 0.385892857,9.9505 1.28495536,11.102875 L0.350267857,13.703375 L3.23308036,12.84325 C4.41901786,13.5765 5.83370536,14 7.35901786,14 C11.4943304,14 14.8571429,10.859625 14.8571429,7 C14.8571429,3.140375 11.4943304,0 7.35901786,0 Z" id="Path" fill="#A0A0A0"></path>
                <path d="M11.6962753,9.92765428 C11.5129381,10.4219684 10.7852889,10.8319318 10.2048795,10.9516556 C9.80780722,11.0323784 9.28914346,11.0967753 7.54316545,10.4056425 C5.30987149,9.52222597 3.87167197,7.35540663 3.7595798,7.21482187 C3.6522373,7.07423711 2.85714286,6.06746881 2.85714286,5.02623457 C2.85714286,3.98500033 3.41095416,3.47798819 3.63418857,3.26030856 C3.81752576,3.08162986 4.12055458,3 4.41123427,3 C4.5052777,3 4.5898218,3.00453499 4.66581649,3.00816299 C4.88905089,3.01723297 5.00114306,3.02993095 5.14838277,3.36642738 C5.33171996,3.78818167 5.77818877,4.82941591 5.83138505,4.93644172 C5.88553127,5.04346754 5.93967748,5.1885873 5.86368279,5.32917206 C5.79243777,5.47429181 5.72974215,5.53868871 5.61764998,5.6620405 C5.50555782,5.78539229 5.39916525,5.87972013 5.28707308,6.01214191 C5.18448025,6.12733071 5.06858835,6.2506825 5.19777932,6.46382714 C5.32697029,6.67243679 5.7734391,7.36810461 6.43079317,7.92681567 C7.2790839,8.64787945 7.96683585,8.87825706 8.21286866,8.97621289 C8.39620585,9.04877277 8.61469058,9.0315398 8.74863122,8.89549003 C8.91866934,8.72043932 9.12860468,8.43019982 9.34233974,8.1444953 C9.49432912,7.93951365 9.68621572,7.91411769 9.88760165,7.98667757 C10.0927873,8.05470245 11.1785614,8.56715658 11.4017959,8.6732754 C11.6250303,8.78030122 11.77227,8.83109314 11.8264162,8.92088599 C11.8796125,9.01067883 11.8796125,9.43243312 11.6962753,9.92765428 Z" id="Path" fill="#FAFAFA"></path>
            </g>
        </g>
    </g>
</svg>