<?xml version="1.0" encoding="UTF-8"?>
<svg width="20px" height="19px" viewBox="0 0 20 19" version="1.1" xmlns="http://www.w3.org/2000/svg" xmlns:xlink="http://www.w3.org/1999/xlink">
    <!-- Generator: sketchtool 53 (72520) - https://sketchapp.com -->
    <title>2D4A8CF0-B8C4-4E61-86A0-7ABB6895C606</title>
    <desc>Created with sketchtool.</desc>
    <g id="top-estate" stroke="none" stroke-width="1" fill="none" fill-rule="evenodd">
        <g id="карточка-квартиры" transform="translate(-945.000000, -2753.000000)" fill-rule="nonzero">
            <g id="whatsapp-(2)" transform="translate(945.000000, 2753.000000)">
                <path d="M10.1433524,0 L10.1385524,0 L10.1385524,0 C4.84535238,0 0.540952381,4.26075 0.540952381,9.5 C0.540952381,11.578125 1.21775238,13.50425 2.36855238,15.0681875 L1.17215238,18.5974375 L4.86215238,17.430125 C6.38015238,18.42525 8.19095238,19 10.1433524,19 C15.4365524,19 19.7409524,14.7380625 19.7409524,9.5 C19.7409524,4.2619375 15.4365524,0 10.1433524,0 Z" id="Path" fill="#4CAF50"></path>
                <path d="M15.5407616,13.6621386 C15.3126087,14.2980532 14.4070897,14.8254539 13.6848024,14.9794735 C13.190668,15.0833201 12.5452198,15.1661641 10.3724472,14.2770505 C7.5932369,13.1405719 5.8034775,10.3530492 5.66398503,10.1721927 C5.53040325,9.99133628 4.54095238,8.69617081 4.54095238,7.35666635 C4.54095238,6.01716189 5.23013978,5.36491189 5.5079426,5.08487612 C5.73609554,4.85501342 6.11319809,4.75 6.47493281,4.75 C6.59196463,4.75 6.69717506,4.75583408 6.79174623,4.76050134 C7.06954904,4.7721695 7.20904152,4.78850492 7.39227316,5.22139356 C7.62042611,5.76396287 8.17603173,7.10346734 8.24223155,7.24115159 C8.30961351,7.37883585 8.37699547,7.56552637 8.2824243,7.74638281 C8.19376383,7.93307332 8.11574261,8.01591724 7.97625014,8.17460418 C7.83675766,8.33329112 7.70435802,8.45463996 7.56486555,8.62499506 C7.43719447,8.77318065 7.29297343,8.93186759 7.45374442,9.20606929 C7.61451541,9.47443691 8.17012104,10.3693846 8.98816166,11.0881431 C10.0438123,12.0157616 10.8996814,12.3121328 11.2058556,12.4381489 C11.4340085,12.5314941 11.7059007,12.5093246 11.8725823,12.3343023 C12.0841853,12.1091068 12.3454382,11.7357258 12.6114196,11.3681788 C12.800562,11.1044785 13.0393542,11.0718077 13.2899678,11.1651529 C13.5453099,11.2526641 14.8964955,11.911915 15.1742983,12.0484324 C15.4521011,12.1861167 15.6353328,12.2514584 15.7027147,12.3669731 C15.7689146,12.4824879 15.7689146,13.0250572 15.5407616,13.6621386 Z" id="Path" fill="#FAFAFA"></path>
            </g>
        </g>
    </g>
</svg>