<svg xmlns="http://www.w3.org/2000/svg" width="15" height="15" viewBox="0 0 15 15">
    <g fill="#C1AF8B" fill-rule="nonzero">
        <path d="M13.77 2.777l-.218.07-1.159.104-.327.529-.237-.077-.922-.84-.134-.437-.179-.466-.58-.525L9.332 1l-.015.316.67.66.327.39-.369.195-.3-.089-.449-.19.016-.366-.59-.245-.196.861-.594.137.059.48.774.15.134-.767.639.095.297.176h.477l.326.66.865.888-.064.344-.697-.09-1.205.616-.868 1.052-.113.465h-.311l-.58-.27-.564.27.14.602.245-.286.432-.014-.03.54.357.106.357.405.582-.166.666.106.773.21.385.046.655.751 1.263.75-.817 1.578-.862.405-.327.901-1.248.842-.133.486C12.628 13.224 15 10.328 15 6.865c0-1.512-.454-2.92-1.23-4.088z"/>
        <path d="M8.644 11.546l-.565-.977.518-1.007-.518-.145-.582-.545-1.29-.27-.427-.836v.496H5.59L4.48 6.857V5.702l-.814-1.235-1.294.215h-.87l-.44-.268.56-.414-.558.12A6.828 6.828 0 0 0 0 7.766C0 11.76 3.47 15 7.752 15c.33 0 .653-.027.973-.063l-.08-.877S9 12.76 9 12.715c0-.045-.356-1.169-.356-1.169zM2.074 2.66l1.336-.204.616-.37.693.219 1.107-.067.379-.654.553.1L8.1 1.545l.37-.447.522-.383.738.122L10 .793A6.947 6.947 0 0 0 6.799 0C4.465 0 2.378 1.167 1 3h.004l1.07-.34zM7.117.82l.768-.463.493.312-.714.596-.682.076-.307-.219.442-.301zM4.842.889l.34.155.443-.155.242.46-1.025.295-.492-.316c-.001 0 .481-.34.492-.439z"/>
    </g>
</svg>
